<?xml version="1.0" encoding="utf-8"?>
<svg id="master-artboard" viewBox="0 0 216 151.2" version="1.1" xmlns="http://www.w3.org/2000/svg" x="0px" y="0px" style="enable-background:new 0 0 216 151.2;" width="216px" height="151.1999969482422px"><rect id="ee-background" x="0" y="0" width="216" height="151.1999969482422" style="fill: rgb(234, 247, 255); fill-opacity: 1; pointer-events: none;"/>

<linearGradient id="SVGID_1_" gradientUnits="userSpaceOnUse" x1="128.4599" y1="-65.4476" x2="128.4599" y2="58.7577">
		<stop offset="0" style="stop-color:#FFFFFF"/>
		<stop offset="0.2389" style="stop-color:#ABA9AA"/>
		<stop offset="0.4451" style="stop-color:#615E5F"/>
		<stop offset="0.7396" style="stop-color:#110000"/>
		<stop offset="0.9904" style="stop-color:#000000"/>
		<stop offset="0.9952" style="stop-color:#000000"/>
		<stop offset="0.9976" style="stop-color:#000000"/>
		<stop offset="0.9988" style="stop-color:#000000"/>
		<stop offset="0.9994" style="stop-color:#000000"/>
		<stop offset="0.9997" style="stop-color:#000000"/>
		<stop offset="0.9998" style="stop-color:#000000"/>
		<stop offset="0.9999" style="stop-color:#000000"/>
		<stop offset="1" style="stop-color:#000000"/>
		<stop offset="1" style="stop-color:#000000"/>
		<stop offset="1" style="stop-color:#000000"/>
		<stop offset="1" style="stop-color:#000000"/>
		<stop offset="1" style="stop-color:#000000"/>
		<stop offset="1" style="stop-color:#000000"/>
		<stop offset="1" style="stop-color:#000000"/>
		<stop offset="1" style="stop-color:#000000"/>
		<stop offset="1" style="stop-color:#000000"/>
		<stop offset="1" style="stop-color:#000000"/>
		<stop offset="1" style="stop-color:#000000"/>
	</linearGradient>
<g transform="matrix(0.10721256239356977, 0, 0, 0.10721256239356977, 35.377076200148146, 1.1026511590445873)"><linearGradient id="gradient-1" gradientUnits="userSpaceOnUse" x1="700" y1="1400" x2="700" y2="-3.142668e-008">
	<stop offset="0" style="stop-color:#FFFFFF"/>
	<stop offset="1" style="stop-color:#D6EEFF"/>
</linearGradient><g transform="matrix(1, 0, 0, 1, -298.2572894846617, -37.02506045493652)">
	<g>
		<radialGradient id="SVGID_2_" gradientUnits="objectBoundingBox" cx="0.5" cy="0.5" r="0.5">
			<stop offset="0" style="stop-color:#0035C5"/>
			<stop offset="1" style="stop-color:#5099FF"/>
		</radialGradient>
		<path fill-rule="evenodd" clip-rule="evenodd" fill="url(#SVGID_2_)" d="M442.2,1400c-25.7,0-8.9-142.1-77-177.3&#10;&#9;&#9;&#9;c-19.5-10.1-46-2.4-53.3-38.5c-5.1-25.1-37.2-42.6-35.6-68.1c3.6-57.7,55.1-108.3,50.4-165.9c-5-60.3-91.7-105.2-77.6-164.1&#10;&#9;&#9;&#9;c4.5-18.9,32.5-23.4,42-40.4c7.3-13-5.3-34.5,5.9-44.4c18.5-16.3-4.8-39,5.9-53.3c6-8,24.5-2.8,29.6,5.9&#10;&#9;&#9;&#9;c11.1,19.1,0.2,46.4,11.9,65.2c8.2,13.2,29.9,10.5,41.5,20.8c13.8,12.1,14.2,43.6,32.6,44.4c17,0.8,18.1-28.9,29.6-41.5&#10;&#9;&#9;&#9;c21.2-23.2,53-37.7,68.2-65.2c14-25.5,1.3-60.2,14.8-85.9c14.6-27.8,54.6-38.1,65.9-67.4c15.9-40.9-2-89.3,11.1-131.1&#10;&#9;&#9;&#9;c13-41.4,54.9-70.5,65.2-112.6c13.2-53.8,5.7-110.7,3-165.9c-2.5-50.8,38-49.7,29.6-14.8c-8,33.6,5.1,69.5,0,103.7&#10;&#9;&#9;&#9;c-7.9,53.3-32.5,103.5-38.5,157.1c-1.3,11.4,17.8,18.1,17.8,29.6c0,17.8-18.7,32.6-17.8,50.4c3.3,65-52.1,53-26.7,180.7&#10;&#9;&#9;&#9;c8.6,43-25,87.1-17.8,130.4c6.3,37.9,26.6,76.3,56.3,100.7c24.5,20.2,64.7,36.7,92.8,21.8c47.8-25.3,76.2-78.5,102.8-125.5&#10;&#9;&#9;&#9;c12.8-22.6-0.6-54.2,11.9-77c14-25.6-15.9-32.5-17.8-50.4c-2.6-24.9,13.2-52.9,14.8-80c1.4-22.7-9-45.5-5.9-68.1&#10;&#9;&#9;&#9;c2.1-15.3,5.4-39.6,20.8-41.5c14.7-1.9,26.7,20.7,26.7,35.6c0,51.1-41.5,74.1-26.7,151.1c8.6,44.8,24.3,90.1,19.3,135.5&#10;&#9;&#9;&#9;c-9.1,84.2-52.4,162.4-60.8,246.8c-4.2,42-0.9,90.1,23.7,124.4c14.6,20.3,52.5,24.4,74.1,11.8c56.1-32.7,100.1-84.5,139.3-136.3&#10;&#9;&#9;&#9;c12-15.9-0.1-41.4,8.9-59.3c9.7-19.4,31.3-4.1,44.4-47.4c4.5-14.9,27.2-15.9,38.5-26.7c8.7-8.3,13.9-38,25.2-42.2&#10;&#9;&#9;&#9;c21.5-8.2,35.4,25.2,16.3,36.3c-23,13.3-40.8,34.8-56.3,56.3c-15.5,21.5-19.6,50-35.6,71.1c-21,27.9-55.9,44.2-74.1,74&#10;&#9;&#9;&#9;c-66.4,108.5-118.5,225-177.8,337.3C736.6,1400,589.4,1400,442.2,1400L442.2,1400z" style="fill-opacity: 0.47;"/>
		<radialGradient id="SVGID_3_" gradientUnits="objectBoundingBox" cx="0.5" cy="0.5" r="0.5">
			<stop offset="0" style="stop-color:#06256C"/>
			<stop offset="1" style="stop-color:#06256C;stop-opacity:0"/>
		</radialGradient>
		<path fill-rule="evenodd" clip-rule="evenodd" fill="url(#SVGID_3_)" d="M442.2,1400c-25.7-59.3-8.9-142.1-77-177.3&#10;&#9;&#9;&#9;c-19.5-10.1-46-2.4-53.3-38.5c-5.1-25.1-37.2-42.6-35.6-68.1c3.6-57.7,55.1-108.3,50.4-165.9c-2.9-34.8-32.9-64.5-55.2-94.6&#10;&#9;&#9;&#9;c1-7.8,2.4-15.5,4.4-23.1c2.4-9.1,18.6-5.9,25.2-12.6c5.8-5.9,4.9-16.1,9.6-23c4.2-6.1,11.3-9.5,16.3-14.8c6.1-6.5,8.4-23,17-20.7&#10;&#9;&#9;&#9;c15.4,4.1,20.8,24.4,33.4,34.1c8,6.1,21.6,4.4,27.4,12.6c5.4,7.7-2.4,19.6,1.5,28.2c13.8,30.7,28.7,61.7,50.4,87.4&#10;&#9;&#9;&#9;c26.5,31.5,33.7-44.8,57.8-33.3c60.5,28.8,53.4,199.3,141.5,274.1c68,57.8-66.3-56.6-65.9-194.1c0.2-63.1,60.3,104.9,135.5,31.8&#10;&#9;&#9;&#9;c17.1-16.6-21-63.9,31.4-100.1c74.1-51.3,124.9-130.2,137.5-135.4c19.8-8.2,8,41.4,7.7,62.4c-16.4,57-39.2,112.9-45.1,171.7&#10;&#9;&#9;&#9;c-2.1,20.8-2.3,43,1,64.4l0,0c-9.6,104.4,33.1,232.6,21.5,335.1H442.2z" style="fill-opacity: 0.47;"/>
	</g>
	<g>
		<radialGradient id="SVGID_4_" gradientUnits="objectBoundingBox" cx="0.5" cy="0.5" r="0.5">
			<stop offset="0" style="stop-color:#2977FF"/>
			<stop offset="1" style="stop-color:#2977FF;stop-opacity:0"/>
		</radialGradient>
		<path fill-rule="evenodd" clip-rule="evenodd" fill="url(#SVGID_4_)" d="M611.2,773c0.8,11.6,43.7,135.2,142.3,120.7&#10;&#9;&#9;&#9;c-41.4,58.3-65,142.5-75.1,221C520.6,1114.6,602,816.1,611.2,773L611.2,773z" style="fill-opacity: 0.47;"/>
		<radialGradient id="SVGID_5_" gradientUnits="objectBoundingBox" cx="0.5" cy="0.5" r="0.5">
			<stop offset="0" style="stop-color:#2977FF"/>
			<stop offset="1" style="stop-color:#2977FF;stop-opacity:0"/>
		</radialGradient>
		<path fill-rule="evenodd" clip-rule="evenodd" fill="url(#SVGID_5_)" d="M499.8,823c24.7-27.5,55.9-21.3,96.7-62.4&#10;&#9;&#9;&#9;c-48,161.3-31.8,216-22.5,301.7C514,1054.1,490.6,866.1,499.8,823L499.8,823z" style="fill-opacity: 0.47;"/>
	</g>
	<g>
		<radialGradient id="SVGID_6_" gradientUnits="objectBoundingBox" cx="0.5" cy="0.5" r="0.5">
			<stop offset="0" style="stop-color:#84CCFF"/>
			<stop offset="1" style="stop-color:#84CCFF;stop-opacity:0"/>
		</radialGradient>
		<path fill-rule="evenodd" clip-rule="evenodd" fill="url(#SVGID_6_)" d="M1224.4,837.8c13.5,0.2-2,18.2-12.2,20.1&#10;&#9;&#9;&#9;C1192.8,858.6,1210.6,838.7,1224.4,837.8L1224.4,837.8z" style="fill-opacity: 0.47;"/>
		<radialGradient id="SVGID_7_" gradientUnits="objectBoundingBox" cx="0.5" cy="0.5" r="0.5">
			<stop offset="0" style="stop-color:#84CCFF"/>
			<stop offset="1" style="stop-color:#84CCFF;stop-opacity:0"/>
		</radialGradient>
		<path fill-rule="evenodd" clip-rule="evenodd" fill="url(#SVGID_7_)" d="M1131.7,971.2c13.5,0.2-2,18.2-12.2,20.1&#10;&#9;&#9;&#9;c-11.2,0.4-1.2-4.3,4.5-10.1C1128.2,977,1125.9,971.5,1131.7,971.2L1131.7,971.2z" style="fill-opacity: 0.47;"/>
		<radialGradient id="SVGID_8_" gradientUnits="objectBoundingBox" cx="0.5" cy="0.5" r="0.5">
			<stop offset="0" style="stop-color:#84CCFF"/>
			<stop offset="1" style="stop-color:#84CCFF;stop-opacity:0"/>
		</radialGradient>
		<path fill-rule="evenodd" clip-rule="evenodd" fill="url(#SVGID_8_)" d="M1158.4,887.2c-18.3,24.1,11.5,26.7-3.7,47.2&#10;&#9;&#9;&#9;c-11.2,15.1-47.7,16.9-41.2,29.8c4.6,8.9,10.5,17-2.2,21.3c4.1-7.5-11.9-24.2,2.1-35.1c13.3-10.3,30.2-9.4,34.9-13.7&#10;&#9;&#9;&#9;C1166.3,920.2,1135.5,898.8,1158.4,887.2L1158.4,887.2z" style="fill-opacity: 0.47;"/>
		<radialGradient id="SVGID_9_" gradientUnits="objectBoundingBox" cx="0.5" cy="0.5" r="0.5">
			<stop offset="0" style="stop-color:#84CCFF"/>
			<stop offset="1" style="stop-color:#84CCFF;stop-opacity:0"/>
		</radialGradient>
		<path fill-rule="evenodd" clip-rule="evenodd" fill="url(#SVGID_9_)" d="M318,650.3c8.7,0.1,18.5,18.5,11.9,19.8&#10;&#9;&#9;&#9;C317.3,670.5,309.1,650.9,318,650.3L318,650.3z" style="fill-opacity: 0.47;"/>
		<radialGradient id="SVGID_10_" gradientUnits="objectBoundingBox" cx="0.5" cy="0.5" r="0.5">
			<stop offset="0" style="stop-color:#84CCFF"/>
			<stop offset="1" style="stop-color:#84CCFF;stop-opacity:0"/>
		</radialGradient>
		<path fill-rule="evenodd" clip-rule="evenodd" fill="url(#SVGID_10_)" d="M314.2,664.4c3.1,0,6,10.9,3.6,11.3&#10;&#9;&#9;&#9;C313.4,675.9,311,664.6,314.2,664.4L314.2,664.4z" style="fill-opacity: 0.47;"/>
		<radialGradient id="SVGID_11_" gradientUnits="objectBoundingBox" cx="0.5" cy="0.5" r="0.5">
			<stop offset="0" style="stop-color:#84CCFF"/>
			<stop offset="1" style="stop-color:#84CCFF;stop-opacity:0"/>
		</radialGradient>
		<path fill-rule="evenodd" clip-rule="evenodd" fill="url(#SVGID_11_)" d="M333,692c0.1,16.3,7.5,28.9,0,36.3&#10;&#9;&#9;&#9;c-13.4,13.2,57.5,12,58.5,26.4c2.3,30.7,21.6,45.8,34.1,40.6c-7.4,20.6-41.9-0.9-46.5-18.4c-8.2-31.1-77.8-34.4-54.5-46.2&#10;&#9;&#9;&#9;C344.8,720.6,324.2,690.9,333,692L333,692z" style="fill-opacity: 0.47;"/>
		<radialGradient id="SVGID_12_" gradientUnits="objectBoundingBox" cx="0.5" cy="0.5" r="0.5">
			<stop offset="0" style="stop-color:#84CCFF"/>
			<stop offset="1" style="stop-color:#84CCFF;stop-opacity:0"/>
		</radialGradient>
		<path fill-rule="evenodd" clip-rule="evenodd" fill="url(#SVGID_12_)" d="M290.1,763.8c9,0.1,14.2,13.8,7.5,15.1&#10;&#9;&#9;&#9;C277.9,779.6,286.1,764,290.1,763.8L290.1,763.8z" style="fill-opacity: 0.47;"/>
		<radialGradient id="SVGID_13_" gradientUnits="objectBoundingBox" cx="0.5" cy="0.5" r="0.5">
			<stop offset="0" style="stop-color:#84CCFF"/>
			<stop offset="1" style="stop-color:#84CCFF;stop-opacity:0"/>
		</radialGradient>
		<path fill-rule="evenodd" clip-rule="evenodd" fill="url(#SVGID_13_)" d="M488.2,728.2c9,0.1,14.2,13.8,7.5,15.1&#10;&#9;&#9;&#9;C476.1,744,484.3,728.5,488.2,728.2L488.2,728.2z" style="fill-opacity: 0.47;"/>
		<radialGradient id="SVGID_14_" gradientUnits="objectBoundingBox" cx="0.5" cy="0.5" r="0.5">
			<stop offset="0" style="stop-color:#84CCFF"/>
			<stop offset="1" style="stop-color:#84CCFF;stop-opacity:0"/>
		</radialGradient>
		<path fill-rule="evenodd" clip-rule="evenodd" fill="url(#SVGID_14_)" d="M465.3,748.2c3.2,0.1,3.7,3.7,1.3,4.2&#10;&#9;&#9;&#9;C462.1,752.6,462.1,748.4,465.3,748.2L465.3,748.2z" style="fill-opacity: 0.47;"/>
		<radialGradient id="SVGID_15_" gradientUnits="objectBoundingBox" cx="0.5" cy="0.5" r="0.5">
			<stop offset="0" style="stop-color:#84CCFF"/>
			<stop offset="1" style="stop-color:#84CCFF;stop-opacity:0"/>
		</radialGradient>
		<path fill-rule="evenodd" clip-rule="evenodd" fill="url(#SVGID_15_)" d="M609.4,697.5c3.1,0,6,10.9,3.6,11.3&#10;&#9;&#9;&#9;C608.5,709,606.2,697.7,609.4,697.5L609.4,697.5z" style="fill-opacity: 0.47;"/>
		<radialGradient id="SVGID_16_" gradientUnits="objectBoundingBox" cx="0.5" cy="0.5" r="0.5">
			<stop offset="0" style="stop-color:#84CCFF"/>
			<stop offset="1" style="stop-color:#84CCFF;stop-opacity:0"/>
		</radialGradient>
		<path fill-rule="evenodd" clip-rule="evenodd" fill="url(#SVGID_16_)" d="M596.8,804.2c2,29.9,8.3,144.4,48.7,298&#10;&#9;&#9;&#9;C611.3,1003.6,587.5,847.2,596.8,804.2L596.8,804.2z" style="fill-opacity: 0.47;"/>
		<radialGradient id="SVGID_17_" gradientUnits="objectBoundingBox" cx="0.5" cy="0.5" r="0.5">
			<stop offset="0" style="stop-color:#84CCFF"/>
			<stop offset="1" style="stop-color:#84CCFF;stop-opacity:0"/>
		</radialGradient>
		<path fill-rule="evenodd" clip-rule="evenodd" fill="url(#SVGID_17_)" d="M627.3,453.3c4.9,0.1,9.2,16.8,5.6,17.5&#10;&#9;&#9;&#9;C625.9,471.1,622.3,453.6,627.3,453.3L627.3,453.3z" style="fill-opacity: 0.47;"/>
		<radialGradient id="SVGID_18_" gradientUnits="objectBoundingBox" cx="0.5" cy="0.5" r="0.5">
			<stop offset="0" style="stop-color:#84CCFF"/>
			<stop offset="1" style="stop-color:#84CCFF;stop-opacity:0"/>
		</radialGradient>
		<path fill-rule="evenodd" clip-rule="evenodd" fill="url(#SVGID_18_)" d="M650.8,377.3c9,0.1,14.2,13.8,7.5,15.2&#10;&#9;&#9;&#9;C638.7,393.1,646.9,377.6,650.8,377.3L650.8,377.3z" style="fill-opacity: 0.47;"/>
		<radialGradient id="SVGID_19_" gradientUnits="objectBoundingBox" cx="0.5" cy="0.5" r="0.5">
			<stop offset="0" style="stop-color:#84CCFF"/>
			<stop offset="1" style="stop-color:#84CCFF;stop-opacity:0"/>
		</radialGradient>
		<path fill-rule="evenodd" clip-rule="evenodd" fill="url(#SVGID_19_)" d="M898.5,439.9c15.2,0.2,24.2,23.6,12.8,25.8&#10;&#9;&#9;&#9;C877.8,466.9,891.8,440.3,898.5,439.9L898.5,439.9z" style="fill-opacity: 0.47;"/>
		<radialGradient id="SVGID_20_" gradientUnits="objectBoundingBox" cx="0.5" cy="0.5" r="0.5">
			<stop offset="0" style="stop-color:#84CCFF"/>
			<stop offset="1" style="stop-color:#84CCFF;stop-opacity:0"/>
		</radialGradient>
		<path fill-rule="evenodd" clip-rule="evenodd" fill="url(#SVGID_20_)" d="M684.7,95.3c4.9,0.1,9.3,16.8,5.6,17.5&#10;&#9;&#9;&#9;C683.4,113,679.8,95.6,684.7,95.3L684.7,95.3z" style="fill-opacity: 0.47;"/>
		<radialGradient id="SVGID_21_" gradientUnits="objectBoundingBox" cx="0.5" cy="0.5" r="0.5">
			<stop offset="0" style="stop-color:#84CCFF"/>
			<stop offset="1" style="stop-color:#84CCFF;stop-opacity:0"/>
		</radialGradient>
		<path fill-rule="evenodd" clip-rule="evenodd" fill="url(#SVGID_21_)" d="M650.5,478.6c-18.6,41.3-42.3,97.1-56.2,105.9&#10;&#9;&#9;&#9;c-27.1,0.9-45.5,93.5-57.5,80.9c-17.5-87.3,26.5-65.4,56.6-96.7C622,539,641,495.4,650.5,478.6L650.5,478.6z" style="fill-opacity: 0.47;"/>
	</g>
</g><g transform="matrix(1, 0, 0, 1, 181.01143150552298, -32.91114737692351)">
	<radialGradient id="SVGID_22_" gradientUnits="objectBoundingBox" cx="0.5" cy="0.5" r="0.5">
		<stop offset="0" style="stop-color:#0035C5"/>
		<stop offset="1" style="stop-color:#5099FF"/>
	</radialGradient>
	<path fill-rule="evenodd" clip-rule="evenodd" fill="url(#SVGID_22_)" d="M130.6,667.6c8.6,13.1,6.8,31.1,14.8,44.4&#10;&#9;&#9;c5.2,8.7,21.6,1.3,23.7,19.3c3.8,32.6,32.9,23.4,40,65.2c2.8,16.8,18.1,42.6,1.1,41.5c-14.5-0.9-16.4-17.4-30.3-20.6&#10;&#9;&#9;c-8.9-2-17.4,8.8-15.2,17.6c3.1,12.7,18.8,19.6,31.1,23.7c12.7,4.2,34-11.9,40,0c14.8,29.2,37.1,29.1,41.5,50.4&#10;&#9;&#9;c2.3,11.2-10.4,19.3,5.9,34.1c10.3,9.3-2.1,29.2,4.4,41.5c8.2,15.4,30.2,21,37,37c7,16.4-8.7,38.7,1.5,53.3&#10;&#9;&#9;c23.8,34.2,72.9,46.6,93.3,82.9c42.4,75,43.2,153.3,90.4,242.2H772c-30-98.8-63.4-266.7-120-285.1c-16.1-5.2-34.4-6.9-47.4-17.7&#10;&#9;&#9;c-17.9-14.9-20.3-46.5-41.5-56.2c-46.9-21.6-47.7-63.8-80-85.9c-23-15.7-54.6-12.4-80-23.7c-19.5-8.7-23-31.3-53.3-35.6&#10;&#9;&#9;c-49.1-6.9-63.1-77.3-100.8-109.6c-12.8-11-31.8-8-41.5-21.8c-26.2-37.8-18.3-88.6-58.5-111.1c-21.8-12.2-21.2-48.7-39.3-50.7&#10;&#9;&#9;C98,601.1,91.4,623.6,95,635C99.9,650.3,121.8,654.1,130.6,667.6L130.6,667.6z" style="fill-opacity: 0.47;"/>
	<radialGradient id="SVGID_23_" gradientUnits="objectBoundingBox" cx="0.5" cy="0.5" r="0.5">
		<stop offset="0" style="stop-color:#2977FF"/>
		<stop offset="1" style="stop-color:#2977FF;stop-opacity:0"/>
	</radialGradient>
	<path fill-rule="evenodd" clip-rule="evenodd" fill="url(#SVGID_23_)" d="M296.4,940.4c7.4,16-3.7,28.9,2.2,41.5&#10;&#9;&#9;c7,14.8,27.5,20.5,34.1,35.6c6.9,15.9-6.4,37.8,3.7,51.9c23.4,32.5,68.1,46,90.4,79.3c25.8,38.4,33.1,86.4,49.6,129.6&#10;&#9;&#9;c48.6,23,212.1,63.7,260.7,86.6c-6.8-11.4-10.3-95.7-60.8-170.2c-26-38.3-72.3-42.6-92.6-78.3c-39-68.5-82.3-93.5-69.5-66&#10;&#9;&#9;c76.2,163.3,14.2,178.1,0.7,170.4c-56-31.7-95.2-93.2-136.8-141.3C338.5,1033.7,418.1,1011.6,296.4,940.4L296.4,940.4z" style="fill-opacity: 0.47;"/>
	<g>
		<radialGradient id="SVGID_24_" gradientUnits="objectBoundingBox" cx="0.5" cy="0.5" r="0.5">
			<stop offset="0" style="stop-color:#84CCFF"/>
			<stop offset="1" style="stop-color:#84CCFF;stop-opacity:0"/>
		</radialGradient>
		<path fill-rule="evenodd" clip-rule="evenodd" fill="url(#SVGID_24_)" d="M365.2,934.5c4.9-3.5,14.7,12.6-0.6,33.1&#10;&#9;&#9;&#9;c-11.2,15.1,79.8,29.2,72.7,41.8c-14,24.5,12.3,13.9,18.5,37.7c-12.9-4.5-43.5-14.1-30.6-26.1c23.6-22-92.4-39.8-69.1-51.5&#10;&#9;&#9;&#9;C376.2,959.2,350.8,945.9,365.2,934.5L365.2,934.5z" style="fill-opacity: 0.47;"/>
		<radialGradient id="SVGID_25_" gradientUnits="objectBoundingBox" cx="0.5" cy="0.5" r="0.5">
			<stop offset="0" style="stop-color:#84CCFF"/>
			<stop offset="1" style="stop-color:#84CCFF;stop-opacity:0"/>
		</radialGradient>
		<path fill-rule="evenodd" clip-rule="evenodd" fill="url(#SVGID_25_)" d="M465.9,1060.3c13.5,0.2,21.5,21,11.3,22.9&#10;&#9;&#9;&#9;c-11.2,0.4-24.7-7.1-19.1-12.8C462.3,1066.2,460,1060.6,465.9,1060.3L465.9,1060.3z" style="fill-opacity: 0.47;"/>
		<radialGradient id="SVGID_26_" gradientUnits="objectBoundingBox" cx="0.5" cy="0.5" r="0.5">
			<stop offset="0" style="stop-color:#84CCFF"/>
			<stop offset="1" style="stop-color:#84CCFF;stop-opacity:0"/>
		</radialGradient>
		<path fill-rule="evenodd" clip-rule="evenodd" fill="url(#SVGID_26_)" d="M380.2,1006.7c5.9,0.1,6.9,7,2.5,7.8&#10;&#9;&#9;&#9;C374.2,1014.8,374.2,1007,380.2,1006.7L380.2,1006.7z" style="fill-opacity: 0.47;"/>
		<radialGradient id="SVGID_27_" gradientUnits="objectBoundingBox" cx="0.5" cy="0.5" r="0.5">
			<stop offset="0" style="stop-color:#84CCFF"/>
			<stop offset="1" style="stop-color:#84CCFF;stop-opacity:0"/>
		</radialGradient>
		<path fill-rule="evenodd" clip-rule="evenodd" fill="url(#SVGID_27_)" d="M494.1,1071.6c5.9,0.1,6.9,7,2.5,7.8&#10;&#9;&#9;&#9;C488.2,1079.7,488.1,1071.9,494.1,1071.6L494.1,1071.6z" style="fill-opacity: 0.47;"/>
		<radialGradient id="SVGID_28_" gradientUnits="objectBoundingBox" cx="0.5" cy="0.5" r="0.5">
			<stop offset="0" style="stop-color:#84CCFF"/>
			<stop offset="1" style="stop-color:#84CCFF;stop-opacity:0"/>
		</radialGradient>
		<path fill-rule="evenodd" clip-rule="evenodd" fill="url(#SVGID_28_)" d="M352.3,927.1c5.9,0.1,6.9,7,2.5,7.9&#10;&#9;&#9;&#9;C346.3,935.3,346.3,927.5,352.3,927.1L352.3,927.1z" style="fill-opacity: 0.47;"/>
		<radialGradient id="SVGID_29_" gradientUnits="objectBoundingBox" cx="0.5" cy="0.5" r="0.5">
			<stop offset="0" style="stop-color:#84CCFF"/>
			<stop offset="1" style="stop-color:#84CCFF;stop-opacity:0"/>
		</radialGradient>
		<path fill-rule="evenodd" clip-rule="evenodd" fill="url(#SVGID_29_)" d="M362.2,923.8c3.1,0,3.7,3.7,1.3,4.2&#10;&#9;&#9;&#9;C359,928.1,359,923.9,362.2,923.8L362.2,923.8z" style="fill-opacity: 0.47;"/>
		<radialGradient id="SVGID_30_" gradientUnits="objectBoundingBox" cx="0.5" cy="0.5" r="0.5">
			<stop offset="0" style="stop-color:#84CCFF"/>
			<stop offset="1" style="stop-color:#84CCFF;stop-opacity:0"/>
		</radialGradient>
		<path fill-rule="evenodd" clip-rule="evenodd" fill="url(#SVGID_30_)" d="M382.5,954.3c3.1,0,6,10.9,3.6,11.3&#10;&#9;&#9;&#9;C381.7,965.8,379.3,954.5,382.5,954.3L382.5,954.3z" style="fill-opacity: 0.47;"/>
		<radialGradient id="SVGID_31_" gradientUnits="objectBoundingBox" cx="0.5" cy="0.5" r="0.5">
			<stop offset="0" style="stop-color:#84CCFF"/>
			<stop offset="1" style="stop-color:#84CCFF;stop-opacity:0"/>
		</radialGradient>
		<path fill-rule="evenodd" clip-rule="evenodd" fill="url(#SVGID_31_)" d="M340.3,906.6c3.1,0,6,10.8,3.6,11.3&#10;&#9;&#9;&#9;C339.5,918.1,337.1,906.8,340.3,906.6L340.3,906.6z" style="fill-opacity: 0.47;"/>
		<radialGradient id="SVGID_32_" gradientUnits="objectBoundingBox" cx="0.5" cy="0.5" r="0.5">
			<stop offset="0" style="stop-color:#84CCFF"/>
			<stop offset="1" style="stop-color:#84CCFF;stop-opacity:0"/>
		</radialGradient>
		<path fill-rule="evenodd" clip-rule="evenodd" fill="url(#SVGID_32_)" d="M676.9,1170.8c-23.6,2.8-15-46.9-36.1-37&#10;&#9;&#9;&#9;c-25.4,12,39.2,68,36.5,122.1c-8.5-63.1-65.9-107.7-51.5-118C665.4,1109.5,678.9,1160.2,676.9,1170.8L676.9,1170.8z" style="fill-opacity: 0.47;"/>
		<radialGradient id="SVGID_33_" gradientUnits="objectBoundingBox" cx="0.5" cy="0.5" r="0.5">
			<stop offset="0" style="stop-color:#84CCFF"/>
			<stop offset="1" style="stop-color:#84CCFF;stop-opacity:0"/>
		</radialGradient>
		<path fill-rule="evenodd" clip-rule="evenodd" fill="url(#SVGID_33_)" d="M640.8,1219.1c9,0.1,14.2,13.8,7.5,15.1&#10;&#9;&#9;&#9;C628.7,1234.8,636.8,1219.3,640.8,1219.1L640.8,1219.1z" style="fill-opacity: 0.47;"/>
		<radialGradient id="SVGID_34_" gradientUnits="objectBoundingBox" cx="0.5" cy="0.5" r="0.5">
			<stop offset="0" style="stop-color:#84CCFF"/>
			<stop offset="1" style="stop-color:#84CCFF;stop-opacity:0"/>
		</radialGradient>
		<path fill-rule="evenodd" clip-rule="evenodd" fill="url(#SVGID_34_)" d="M609.9,1142.8c3-0.6,18.8,31.5,17.5,32.5&#10;&#9;&#9;&#9;C624.2,1174.1,605.9,1143,609.9,1142.8L609.9,1142.8z" style="fill-opacity: 0.47;"/>
		<radialGradient id="SVGID_35_" gradientUnits="objectBoundingBox" cx="0.5" cy="0.5" r="0.5">
			<stop offset="0" style="stop-color:#84CCFF"/>
			<stop offset="1" style="stop-color:#84CCFF;stop-opacity:0"/>
		</radialGradient>
		<path fill-rule="evenodd" clip-rule="evenodd" fill="url(#SVGID_35_)" d="M472.3,961.1c21.6,3,42.1,53.4,40.8,54.4&#10;&#9;&#9;&#9;C510,1014.3,491,974.1,472.3,961.1L472.3,961.1z" style="fill-opacity: 0.47;"/>
		<radialGradient id="SVGID_36_" gradientUnits="objectBoundingBox" cx="0.5" cy="0.5" r="0.5">
			<stop offset="0" style="stop-color:#84CCFF"/>
			<stop offset="1" style="stop-color:#84CCFF;stop-opacity:0"/>
		</radialGradient>
		<path fill-rule="evenodd" clip-rule="evenodd" fill="url(#SVGID_36_)" d="M544.7,1047.9c21.6,3,42.1,53.4,40.8,54.4&#10;&#9;&#9;&#9;C582.3,1101.1,563.4,1060.9,544.7,1047.9L544.7,1047.9z" style="fill-opacity: 0.47;"/>
		<radialGradient id="SVGID_37_" gradientUnits="objectBoundingBox" cx="0.5" cy="0.5" r="0.5">
			<stop offset="0" style="stop-color:#84CCFF"/>
			<stop offset="1" style="stop-color:#84CCFF;stop-opacity:0"/>
		</radialGradient>
		<path fill-rule="evenodd" clip-rule="evenodd" fill="url(#SVGID_37_)" d="M437.9,1099.8c15.3,8.9,44.1,87.8,64.1,129.9&#10;&#9;&#9;&#9;C484.3,1195.6,450.2,1109.8,437.9,1099.8L437.9,1099.8z" style="fill-opacity: 0.47;"/>
		<radialGradient id="SVGID_38_" gradientUnits="objectBoundingBox" cx="0.5" cy="0.5" r="0.5">
			<stop offset="0" style="stop-color:#84CCFF"/>
			<stop offset="1" style="stop-color:#84CCFF;stop-opacity:0"/>
		</radialGradient>
		<path fill-rule="evenodd" clip-rule="evenodd" fill="url(#SVGID_38_)" d="M240.4,788.9c15.3,8.9,44.1,50.8,64.1,92.9&#10;&#9;&#9;&#9;C286.8,847.6,252.6,798.9,240.4,788.9L240.4,788.9z" style="fill-opacity: 0.47;"/>
		<radialGradient id="SVGID_39_" gradientUnits="objectBoundingBox" cx="0.5" cy="0.5" r="0.5">
			<stop offset="0" style="stop-color:#84CCFF"/>
			<stop offset="1" style="stop-color:#84CCFF;stop-opacity:0"/>
		</radialGradient>
		<path fill-rule="evenodd" clip-rule="evenodd" fill="url(#SVGID_39_)" d="M172.5,828.3c3.1,0.1,6,10.9,3.6,11.3&#10;&#9;&#9;&#9;C171.7,839.8,169.3,828.5,172.5,828.3L172.5,828.3z" style="fill-opacity: 0.47;"/>
		<radialGradient id="SVGID_40_" gradientUnits="objectBoundingBox" cx="0.5" cy="0.5" r="0.5">
			<stop offset="0" style="stop-color:#84CCFF"/>
			<stop offset="1" style="stop-color:#84CCFF;stop-opacity:0"/>
		</radialGradient>
		<path fill-rule="evenodd" clip-rule="evenodd" fill="url(#SVGID_40_)" d="M184.7,839.9c5.9,0.1,12.5,12.5,8,13.3&#10;&#9;&#9;&#9;C184.3,853.5,178.7,840.3,184.7,839.9L184.7,839.9z" style="fill-opacity: 0.47;"/>
		<radialGradient id="SVGID_41_" gradientUnits="objectBoundingBox" cx="0.5" cy="0.5" r="0.5">
			<stop offset="0" style="stop-color:#84CCFF"/>
			<stop offset="1" style="stop-color:#84CCFF;stop-opacity:0"/>
		</radialGradient>
		<path fill-rule="evenodd" clip-rule="evenodd" fill="url(#SVGID_41_)" d="M249.6,860.9c5.9,0.1,12.5,12.5,8,13.3&#10;&#9;&#9;&#9;C249.2,874.5,243.6,861.3,249.6,860.9L249.6,860.9z" style="fill-opacity: 0.47;"/>
		<radialGradient id="SVGID_42_" gradientUnits="objectBoundingBox" cx="0.5" cy="0.5" r="0.5">
			<stop offset="0" style="stop-color:#84CCFF"/>
			<stop offset="1" style="stop-color:#84CCFF;stop-opacity:0"/>
		</radialGradient>
		<path fill-rule="evenodd" clip-rule="evenodd" fill="url(#SVGID_42_)" d="M104,630c5.9,0.1,12.5,12.5,8,13.3&#10;&#9;&#9;&#9;C103.6,643.6,98,630.3,104,630L104,630z" style="fill-opacity: 0.47;"/>
		<radialGradient id="SVGID_43_" gradientUnits="objectBoundingBox" cx="0.5" cy="0.5" r="0.5">
			<stop offset="0" style="stop-color:#84CCFF"/>
			<stop offset="1" style="stop-color:#84CCFF;stop-opacity:0"/>
		</radialGradient>
		<path fill-rule="evenodd" clip-rule="evenodd" fill="url(#SVGID_43_)" d="M224.9,792.7c3.1,0.1,6,10.9,3.6,11.3&#10;&#9;&#9;&#9;C224,804.2,221.6,792.9,224.9,792.7L224.9,792.7z" style="fill-opacity: 0.47;"/>
		<radialGradient id="SVGID_44_" gradientUnits="objectBoundingBox" cx="0.5" cy="0.5" r="0.5">
			<stop offset="0" style="stop-color:#84CCFF"/>
			<stop offset="1" style="stop-color:#84CCFF;stop-opacity:0"/>
		</radialGradient>
		<path fill-rule="evenodd" clip-rule="evenodd" fill="url(#SVGID_44_)" d="M167.8,700.1c3.1,0,6,10.8,3.6,11.3&#10;&#9;&#9;&#9;C166.9,711.6,164.6,700.3,167.8,700.1L167.8,700.1z" style="fill-opacity: 0.47;"/>
		<radialGradient id="SVGID_45_" gradientUnits="objectBoundingBox" cx="0.5" cy="0.5" r="0.5">
			<stop offset="0" style="stop-color:#84CCFF"/>
			<stop offset="1" style="stop-color:#84CCFF;stop-opacity:0"/>
		</radialGradient>
		<path fill-rule="evenodd" clip-rule="evenodd" fill="url(#SVGID_45_)" d="M178.4,715.1c5.9,0.1,12.5,12.5,8,13.3&#10;&#9;&#9;&#9;C178,728.7,172.4,715.4,178.4,715.1L178.4,715.1z" style="fill-opacity: 0.47;"/>
	</g>
</g><g transform="matrix(1, 0, 0, 1, 201.58083823523657, -20.569470480513758)">
	<g>
		<radialGradient id="SVGID_46_" gradientUnits="objectBoundingBox" cx="0.5" cy="0.5" r="0.5">
			<stop offset="0" style="stop-color:#0035C5"/>
			<stop offset="1" style="stop-color:#5099FF"/>
		</radialGradient>
		<path fill-rule="evenodd" clip-rule="evenodd" fill="url(#SVGID_46_)" d="M671.7,1400c52.6-138.3,24.3-167,26.7-220.3&#10;&#9;&#9;&#9;c0.9-21.2,23.9-35.8,29.6-56.2c10.3-36.6,5.6-76.6,17.8-112.6c7.1-20.8,28.4-33.9,38.5-53.3c13.8-26.3,7.5-67.1,32.6-82.9&#10;&#9;&#9;&#9;c32.7-20.7,16.2-45.4,35.6-56.3c85.8-48.2,68.9-98.9,91.9-154.1c9.5-22.8-8.6-52.2,3-74c9.7-18.4,39.7-16.8,53.3-32.6&#10;&#9;&#9;&#9;c12.5-14.4,3.2-45.7,20.7-53.3c41.3-17.8,7.9-38,41.5-44.4c116.9-22.4,150.5-80.5,234.2-110.5c20.2-7.2,20.3-37.8,32.5-55.4&#10;&#9;&#9;&#9;c19.4-27.8,44.9-12.6,35.6,5.9c-8.9,17.8-40.5,28.4-26.7,53.3c10.1,18.2-37.3,19.3-53.3,32.6c-18.8,15.6-30.6,39-50.4,53.3&#10;&#9;&#9;&#9;c-9.9,7.2-25.7,1.7-35.6,8.9c-16.9,12.4-24.5,35.1-41.5,47.4c-67.9,49.2-33,92.1-88.9,157.1c-15.5,18,2.6,47.6,0,71.1&#10;&#9;&#9;&#9;c-1.4,12.4-6,24.5-11.9,35.6c-11,20.8-29,37.7-38.5,59.2c-8.6,19.5-14.4,40.9-14.8,62.2c-0.6,30.9,2.1,62.6,11.9,91.9&#10;&#9;&#9;&#9;c5.6,16.7,31.1,23.9,32.6,41.5c1.9,23-37.1,46.4-23.7,65.2c14.5,20.3-4.7,45.8,11.9,53.3c17.7,8,34.4-19,53.3-23.7&#10;&#9;&#9;&#9;c25.1-6.3,52.9,0.3,77-8.9c19-7.2,32.6-24.6,47.4-38.5c20.5-19.3,38.7,8.2,23.7,23.7c-23.8,24.6-59.2,34.9-85.9,56.3&#10;&#9;&#9;&#9;c-18,14.4-27.1,39.4-47.4,50.4c-35.8,19.3-32.3,52-59.2,59.1c-68.4,18.1-69.2,99.8-103.7,149.2H671.7z" style="fill-opacity: 0.47;"/>
		<radialGradient id="SVGID_47_" gradientUnits="objectBoundingBox" cx="0.5" cy="0.5" r="0.5">
			<stop offset="0" style="stop-color:#06256C"/>
			<stop offset="1" style="stop-color:#06256C;stop-opacity:0"/>
		</radialGradient>
		<path fill-rule="evenodd" clip-rule="evenodd" fill="url(#SVGID_47_)" d="M1068.7,652.4c-15.5,18,2.6,47.6,0,71.1&#10;&#9;&#9;&#9;c-1.4,12.4-6,24.5-11.9,35.6c-11,20.8-29,37.7-38.5,59.2c-8.6,19.5-14.4,40.9-14.8,62.2c-0.6,30.9,2.1,62.6,11.9,91.9&#10;&#9;&#9;&#9;c5.6,16.7,31.1,23.9,32.6,41.5c1.9,23-37.1,46.4-23.7,65.2c14.5,20.3-4.7,45.8,11.9,53.3c17.7,8,34.4-19,53.3-23.7&#10;&#9;&#9;&#9;c25.1-6.3,52.9,0.3,77-8.9c19-7.2,32.6-24.6,47.4-38.5c20.5-19.3,38.7,8.2,23.7,23.7c-23.8,24.6-59.2,34.9-85.9,56.3&#10;&#9;&#9;&#9;c-18,14.4-27.1,39.4-47.4,50.4c-35.8,19.3-32.3,52-59.2,59.1c-68.4,18.1-69.2,99.8-103.7,149.2H740.4c11.9-32.1-5.4-61.3,0-91.4&#10;&#9;&#9;&#9;c5.3-29.6,26.9-54.8,31.6-84.5c2.5-16-12.9-31.3-10.7-47.3c1.9-14.3,20.8-22.7,22.2-37c1.3-13.2-19.9-24.7-14.8-37&#10;&#9;&#9;&#9;c10.1-24.3-4.2-25.4,0-37c9-25.4,42.4-33.9,38.5-71.1c-1.8-16.9,29.5-13.8,37.1-25.2c5.9-9.1-3.2-22.2,0-32.6&#10;&#9;&#9;&#9;c4-13.1,17.5-22.2,20.7-35.6c2.1-8.9-15.2-26.6,1.9-39.3c29.9-22,23.7-38.5,53-58.5c8-5.5,19-5.8,26.7-11.9&#10;&#9;&#9;&#9;c15.2-12,5.5-26.7,20.7-43c7.5-8-7.2-22-4.4-32.6c2.1-8.1,14.5-10,17.8-17.8c2.7-6.4-5.1-14.8-1.5-20.8&#10;&#9;&#9;&#9;c4.5-7.3,16.6-6.8,22.2-13.3c9-10.3,20.6,4.9,31.1,5.9C1046.8,671.6,1056.6,658.3,1068.7,652.4L1068.7,652.4z" style="fill-opacity: 0.47;"/>
	</g>
	<g>
		<radialGradient id="SVGID_48_" gradientUnits="objectBoundingBox" cx="0.5" cy="0.5" r="0.5">
			<stop offset="0" style="stop-color:#0058DB"/>
			<stop offset="1" style="stop-color:#0058DB;stop-opacity:0"/>
		</radialGradient>
		<path fill-rule="evenodd" clip-rule="evenodd" fill="url(#SVGID_48_)" d="M922.5,1030c-7.8,73.6-12.2,220.8-63.4,326.7&#10;&#9;&#9;&#9;c-27.5-11.2-69.3,4.4-82.5-52.5c56.5-103.8-4.2-189.7,53.5-184.5C938.2,1129.5,890.3,1043.8,922.5,1030L922.5,1030z" style="fill-opacity: 0.47;"/>
		<radialGradient id="SVGID_49_" gradientUnits="objectBoundingBox" cx="0.5" cy="0.5" r="0.5">
			<stop offset="0" style="stop-color:#0058DB"/>
			<stop offset="1" style="stop-color:#0058DB;stop-opacity:0"/>
		</radialGradient>
		<path fill-rule="evenodd" clip-rule="evenodd" fill="url(#SVGID_49_)" d="M1017.3,1006.2c-7.8,73.6-27.8,256.4-79,362.4&#10;&#9;&#9;&#9;c-23,14-48.6,8-64-2.3c56.5-103.7,54.3-255.7,68.3-338.6C960.7,920.6,983.6,925.9,1017.3,1006.2L1017.3,1006.2z" style="fill-opacity: 0.47;"/>
	</g>
	<g>
		<radialGradient id="SVGID_50_" gradientUnits="objectBoundingBox" cx="0.5" cy="0.5" r="0.5">
			<stop offset="0" style="stop-color:#84CCFF"/>
			<stop offset="1" style="stop-color:#84CCFF;stop-opacity:0"/>
		</radialGradient>
		<path fill-rule="evenodd" clip-rule="evenodd" fill="url(#SVGID_50_)" d="M985.8,652.4c23-50.4,56.9-12.1,71.2-24.8&#10;&#9;&#9;&#9;c26.2-23.3-80.3-33.2-45-47.8c61.3-25.3,86.9-80.2,138.5-92c-61.1,24.2-47.3,74.7-89.6,86.1c-40.7,10.9,41.1,42.6,6.4,68.1&#10;&#9;&#9;&#9;C1034.2,666.3,1013.6,617,985.8,652.4L985.8,652.4z" style="fill-opacity: 0.47;"/>
		<radialGradient id="SVGID_51_" gradientUnits="objectBoundingBox" cx="0.5" cy="0.5" r="0.5">
			<stop offset="0" style="stop-color:#84CCFF"/>
			<stop offset="1" style="stop-color:#84CCFF;stop-opacity:0"/>
		</radialGradient>
		<path fill-rule="evenodd" clip-rule="evenodd" fill="url(#SVGID_51_)" d="M1327.5,360.5c-63.4,12.4-86,66.7-100,75.5&#10;&#9;&#9;&#9;c-27,0.9-71,19.8-83,7.2C1225.2,415.6,1288.4,357.3,1327.5,360.5L1327.5,360.5z" style="fill-opacity: 0.47;"/>
		<radialGradient id="SVGID_52_" gradientUnits="objectBoundingBox" cx="0.5" cy="0.5" r="0.5">
			<stop offset="0" style="stop-color:#84CCFF"/>
			<stop offset="1" style="stop-color:#84CCFF;stop-opacity:0"/>
		</radialGradient>
		<path fill-rule="evenodd" clip-rule="evenodd" fill="url(#SVGID_52_)" d="M1355.6,285.8c19.9,9.1-4.2,24.1-16.2,36.6&#10;&#9;&#9;&#9;C1318.7,323,1339.8,283.1,1355.6,285.8L1355.6,285.8z" style="fill-opacity: 0.47;"/>
		<radialGradient id="SVGID_53_" gradientUnits="objectBoundingBox" cx="0.5" cy="0.5" r="0.5">
			<stop offset="0" style="stop-color:#84CCFF"/>
			<stop offset="1" style="stop-color:#84CCFF;stop-opacity:0"/>
		</radialGradient>
		<path fill-rule="evenodd" clip-rule="evenodd" fill="url(#SVGID_53_)" d="M1141.1,461.8c14.4,0.2-2.1,19.3-12.9,21.4&#10;&#9;&#9;&#9;C1107.6,483.9,1126.5,462.7,1141.1,461.8L1141.1,461.8z" style="fill-opacity: 0.47;"/>
		<radialGradient id="SVGID_54_" gradientUnits="objectBoundingBox" cx="0.5" cy="0.5" r="0.5">
			<stop offset="0" style="stop-color:#84CCFF"/>
			<stop offset="1" style="stop-color:#84CCFF;stop-opacity:0"/>
		</radialGradient>
		<path fill-rule="evenodd" clip-rule="evenodd" fill="url(#SVGID_54_)" d="M1031.1,508.5c8.7,0.1-1.3,11.8-7.9,13.1&#10;&#9;&#9;&#9;C1010.7,521.9,1022.2,509,1031.1,508.5L1031.1,508.5z" style="fill-opacity: 0.47;"/>
		<radialGradient id="SVGID_55_" gradientUnits="objectBoundingBox" cx="0.5" cy="0.5" r="0.5">
			<stop offset="0" style="stop-color:#84CCFF"/>
			<stop offset="1" style="stop-color:#84CCFF;stop-opacity:0"/>
		</radialGradient>
		<path fill-rule="evenodd" clip-rule="evenodd" fill="url(#SVGID_55_)" d="M1039.9,527.7c13.5,0.2-2,18.2-12.1,20.1&#10;&#9;&#9;&#9;C1008.4,548.5,1026.1,528.5,1039.9,527.7L1039.9,527.7z" style="fill-opacity: 0.47;"/>
		<radialGradient id="SVGID_56_" gradientUnits="objectBoundingBox" cx="0.5" cy="0.5" r="0.5">
			<stop offset="0" style="stop-color:#84CCFF"/>
			<stop offset="1" style="stop-color:#84CCFF;stop-opacity:0"/>
		</radialGradient>
		<path fill-rule="evenodd" clip-rule="evenodd" fill="url(#SVGID_56_)" d="M945.5,769.5c13.5,0.2-2,18.2-12.2,20.2&#10;&#9;&#9;&#9;C914,790.3,931.7,770.3,945.5,769.5L945.5,769.5z" style="fill-opacity: 0.47;"/>
		<radialGradient id="SVGID_57_" gradientUnits="objectBoundingBox" cx="0.5" cy="0.5" r="0.5">
			<stop offset="0" style="stop-color:#84CCFF"/>
			<stop offset="1" style="stop-color:#84CCFF;stop-opacity:0"/>
		</radialGradient>
		<path fill-rule="evenodd" clip-rule="evenodd" fill="url(#SVGID_57_)" d="M952.6,716.9c8.2,0.1-1.8,7.6,7.6,26&#10;&#9;&#9;&#9;c4.6,8.9-28.1,17.5-32,18.2c-13.1,0.5,5.1-6.1,16.9-19.3C950.7,735.5,948.1,717.2,952.6,716.9L952.6,716.9z" style="fill-opacity: 0.47;"/>
		<radialGradient id="SVGID_58_" gradientUnits="objectBoundingBox" cx="0.5" cy="0.5" r="0.5">
			<stop offset="0" style="stop-color:#84CCFF"/>
			<stop offset="1" style="stop-color:#84CCFF;stop-opacity:0"/>
		</radialGradient>
		<path fill-rule="evenodd" clip-rule="evenodd" fill="url(#SVGID_58_)" d="M894.6,819.2c-12,12.6-12.9,26.9-41.4,43.8&#10;&#9;&#9;&#9;c-16.2,9.6-4.8,24.1,1.8,37c4.6,8.9-28,17.4-32,18.2c-13.1,0.5,5.1-6.1,16.9-19.3c3.4-3.8-14.3-29,9-40.8&#10;&#9;&#9;&#9;C868.9,847.9,880.2,830.5,894.6,819.2L894.6,819.2z" style="fill-opacity: 0.47;"/>
		<radialGradient id="SVGID_59_" gradientUnits="objectBoundingBox" cx="0.5" cy="0.5" r="0.5">
			<stop offset="0" style="stop-color:#84CCFF"/>
			<stop offset="1" style="stop-color:#84CCFF;stop-opacity:0"/>
		</radialGradient>
		<path fill-rule="evenodd" clip-rule="evenodd" fill="url(#SVGID_59_)" d="M830.3,947.8c13.5,0.2-2,18.2-12.1,20.2&#10;&#9;&#9;&#9;C798.7,968.6,816.6,948.7,830.3,947.8L830.3,947.8z" style="fill-opacity: 0.47;"/>
		<radialGradient id="SVGID_60_" gradientUnits="objectBoundingBox" cx="0.5" cy="0.5" r="0.5">
			<stop offset="0" style="stop-color:#84CCFF"/>
			<stop offset="1" style="stop-color:#84CCFF;stop-opacity:0"/>
		</radialGradient>
		<path fill-rule="evenodd" clip-rule="evenodd" fill="url(#SVGID_60_)" d="M794.8,1006c13.5,0.2-2,18.2-12.1,20.1&#10;&#9;&#9;&#9;c-11.2,0.4-1.2-4.3,4.4-10.1C791.3,1011.9,789,1006.4,794.8,1006L794.8,1006z" style="fill-opacity: 0.47;"/>
		<radialGradient id="SVGID_61_" gradientUnits="objectBoundingBox" cx="0.5" cy="0.5" r="0.5">
			<stop offset="0" style="stop-color:#84CCFF"/>
			<stop offset="1" style="stop-color:#84CCFF;stop-opacity:0"/>
		</radialGradient>
		<path fill-rule="evenodd" clip-rule="evenodd" fill="url(#SVGID_61_)" d="M785.8,989.5c5.9,0.1-0.9,7.9-5.3,8.7&#10;&#9;&#9;&#9;C772,998.5,779.8,989.8,785.8,989.5L785.8,989.5z" style="fill-opacity: 0.47;"/>
		<radialGradient id="SVGID_62_" gradientUnits="objectBoundingBox" cx="0.5" cy="0.5" r="0.5">
			<stop offset="0" style="stop-color:#84CCFF"/>
			<stop offset="1" style="stop-color:#84CCFF;stop-opacity:0"/>
		</radialGradient>
		<path fill-rule="evenodd" clip-rule="evenodd" fill="url(#SVGID_62_)" d="M761.1,1076.7c4.9-3.5,10.5,19.2-4.7,39.7&#10;&#9;&#9;&#9;c-11.2,15.1,11,11.5,17.5,24.4c4.6,8.9-27.7,21-21.5,44.7c-12.9-4.5-10.6-18.5,2.4-30.6c23.6-21.9-26.1-31.6-2.8-43.4&#10;&#9;&#9;&#9;C772,1101.5,746.7,1088.1,761.1,1076.7L761.1,1076.7z" style="fill-opacity: 0.47;"/>
		<radialGradient id="SVGID_63_" gradientUnits="objectBoundingBox" cx="0.5" cy="0.5" r="0.5">
			<stop offset="0" style="stop-color:#84CCFF"/>
			<stop offset="1" style="stop-color:#84CCFF;stop-opacity:0"/>
		</radialGradient>
		<path fill-rule="evenodd" clip-rule="evenodd" fill="url(#SVGID_63_)" d="M970.2,905.5c-3.5,46.4-25.6,220.8-23.2,318.7&#10;&#9;&#9;&#9;C934.4,1143.4,952.8,981.9,970.2,905.5L970.2,905.5z" style="fill-opacity: 0.47;"/>
		<radialGradient id="SVGID_64_" gradientUnits="objectBoundingBox" cx="0.5" cy="0.5" r="0.5">
			<stop offset="0" style="stop-color:#84CCFF"/>
			<stop offset="1" style="stop-color:#84CCFF;stop-opacity:0"/>
		</radialGradient>
		<path fill-rule="evenodd" clip-rule="evenodd" fill="url(#SVGID_64_)" d="M901.4,1134.3c-0.9,12.3-3.8,70.5-3.2,96.5&#10;&#9;&#9;&#9;C894.8,1209.4,896.7,1154.6,901.4,1134.3L901.4,1134.3z" style="fill-opacity: 0.47;"/>
		<radialGradient id="SVGID_65_" gradientUnits="objectBoundingBox" cx="0.5" cy="0.5" r="0.5">
			<stop offset="0" style="stop-color:#84CCFF"/>
			<stop offset="1" style="stop-color:#84CCFF;stop-opacity:0"/>
		</radialGradient>
		<path fill-rule="evenodd" clip-rule="evenodd" fill="url(#SVGID_65_)" d="M899.3,897.1c-2.3,12.1-11.7,69.6-13.9,95.5&#10;&#9;&#9;&#9;C884.4,971,892.4,916.7,899.3,897.1L899.3,897.1z" style="fill-opacity: 0.47;"/>
		<radialGradient id="SVGID_66_" gradientUnits="objectBoundingBox" cx="0.5" cy="0.5" r="0.5">
			<stop offset="0" style="stop-color:#84CCFF"/>
			<stop offset="1" style="stop-color:#84CCFF;stop-opacity:0"/>
		</radialGradient>
		<path fill-rule="evenodd" clip-rule="evenodd" fill="url(#SVGID_66_)" d="M1012.2,772.2c-1.3,6.9-6.7,39.9-8,54.7&#10;&#9;&#9;&#9;C1003.7,814.5,1008.3,783.4,1012.2,772.2L1012.2,772.2z" style="fill-opacity: 0.47;"/>
		<radialGradient id="SVGID_67_" gradientUnits="objectBoundingBox" cx="0.5" cy="0.5" r="0.5">
			<stop offset="0" style="stop-color:#84CCFF"/>
			<stop offset="1" style="stop-color:#84CCFF;stop-opacity:0"/>
		</radialGradient>
		<path fill-rule="evenodd" clip-rule="evenodd" fill="url(#SVGID_67_)" d="M1231.3,1069.2c13.5,0.2-2,18.2-12.1,20.1&#10;&#9;&#9;&#9;c-11.2,0.4-1.2-4.3,4.4-10C1227.8,1075.1,1225.5,1069.5,1231.3,1069.2L1231.3,1069.2z" style="fill-opacity: 0.47;"/>
	</g>
</g><g transform="matrix(1, 0, 0, 1, -16.45560252188079, 8.227795671513377)">
	<g>
		<radialGradient id="SVGID_68_" gradientUnits="objectBoundingBox" cx="0.5" cy="0.5" r="0.5">
			<stop offset="0" style="stop-color:#0035C5"/>
			<stop offset="1" style="stop-color:#5099FF"/>
		</radialGradient>
		<path fill-rule="evenodd" clip-rule="evenodd" fill="url(#SVGID_68_)" d="M0,1349.1c84,8.9,144-44.4,216.3-44.4&#10;&#9;&#9;&#9;c45.4,0,82.6,14.4,136.3,0c72.8-19.5,139.8-65.2,216.3-65.2c140.7,0,323.7,124.4,447.4,124.4c82.2,0,158.1-56.3,240.1-56.3&#10;&#9;&#9;&#9;c48.6,0,95.4,17.8,143.6,26.7v65.7H0V1349.1z" style="fill-opacity: 0.47;"/>
		<radialGradient id="SVGID_69_" gradientUnits="objectBoundingBox" cx="0.5" cy="0.5" r="0.5">
			<stop offset="0" style="stop-color:#06256C"/>
			<stop offset="1" style="stop-color:#06256C;stop-opacity:0"/>
		</radialGradient>
		<path fill-rule="evenodd" clip-rule="evenodd" fill="url(#SVGID_69_)" d="M0,1368.1c84,3.4,141.1-12.3,213.4-12.3&#10;&#9;&#9;&#9;c45.4,0,85.6,13.8,139.3,8.4c72.8-7.3,139.8-47.5,216.3-47.5c140.7,0,323.7,69.8,447.4,69.8c82.2,0,158.1-44.1,240.1-44.1&#10;&#9;&#9;&#9;c48.6,0,95.4,29.6,143.6,32.9v24.6H0V1368.1z" style="fill-opacity: 0.47;"/>
	</g>
	<g>
		<radialGradient id="SVGID_70_" gradientUnits="objectBoundingBox" cx="0.5" cy="0.5" r="0.5">
			<stop offset="0" style="stop-color:#84CCFF"/>
			<stop offset="1" style="stop-color:#84CCFF;stop-opacity:0"/>
		</radialGradient>
		<path fill-rule="evenodd" clip-rule="evenodd" fill="url(#SVGID_70_)" d="M576.5,1257.7c47.6,2.4,123.2,26.6,185.5,51.8&#10;&#9;&#9;&#9;c-42.1,22.3-141,19.4-163,19.4C593.3,1305.6,587.2,1278,576.5,1257.7L576.5,1257.7z" style="fill-opacity: 0.47;"/>
		<radialGradient id="SVGID_71_" gradientUnits="objectBoundingBox" cx="0.5" cy="0.5" r="0.5">
			<stop offset="0" style="stop-color:#84CCFF"/>
			<stop offset="1" style="stop-color:#84CCFF;stop-opacity:0"/>
		</radialGradient>
		<path fill-rule="evenodd" clip-rule="evenodd" fill="url(#SVGID_71_)" d="M554.5,1259.9c4.9,16,10.3,51.7,10,68.1&#10;&#9;&#9;&#9;c-27.1,0.9-94.9-12.5-106.9-25.2C480.6,1282.9,521.6,1265.7,554.5,1259.9L554.5,1259.9z" style="fill-opacity: 0.47;"/>
		<radialGradient id="SVGID_72_" gradientUnits="objectBoundingBox" cx="0.5" cy="0.5" r="0.5">
			<stop offset="0" style="stop-color:#84CCFF"/>
			<stop offset="1" style="stop-color:#84CCFF;stop-opacity:0"/>
		</radialGradient>
		<path fill-rule="evenodd" clip-rule="evenodd" fill="url(#SVGID_72_)" d="M1057,1372.7c-147.8,29.8-360-75.6-430.9-97.8&#10;&#9;&#9;&#9;C664.9,1264.1,901.4,1398.9,1057,1372.7L1057,1372.7z" style="fill-opacity: 0.47;"/>
		<radialGradient id="SVGID_73_" gradientUnits="objectBoundingBox" cx="0.5" cy="0.5" r="0.5">
			<stop offset="0" style="stop-color:#84CCFF"/>
			<stop offset="1" style="stop-color:#84CCFF;stop-opacity:0"/>
		</radialGradient>
		<path fill-rule="evenodd" clip-rule="evenodd" fill="url(#SVGID_73_)" d="M281.3,1317.4c-20.6-4-75.1-9.2-85.8,0&#10;&#9;&#9;&#9;c-36.4,31.5-75.1,12.1-97.8,23.7c-12.1,6.2-39,21.3-76.1,15.4c40.4,15.5,86-14.8,135.4-12.2&#10;&#9;&#9;&#9;C243.8,1348.9,228.7,1318.8,281.3,1317.4L281.3,1317.4z" style="fill-opacity: 0.47;"/>
		<radialGradient id="SVGID_74_" gradientUnits="objectBoundingBox" cx="0.5" cy="0.5" r="0.5">
			<stop offset="0" style="stop-color:#84CCFF"/>
			<stop offset="1" style="stop-color:#84CCFF;stop-opacity:0"/>
		</radialGradient>
		<path fill-rule="evenodd" clip-rule="evenodd" fill="url(#SVGID_74_)" d="M252.7,1321.7c6.1-0.6,11.2,1.1,11.4,3.6&#10;&#9;&#9;&#9;c0.2,2.6-4.5,5.1-10.5,5.6c-6.1,0.6-11.1-1-11.4-3.6C242,1324.7,246.7,1322.2,252.7,1321.7L252.7,1321.7z" style="fill-opacity: 0.47;"/>
		<radialGradient id="SVGID_75_" gradientUnits="objectBoundingBox" cx="0.5" cy="0.5" r="0.5">
			<stop offset="0" style="stop-color:#84CCFF"/>
			<stop offset="1" style="stop-color:#84CCFF;stop-opacity:0"/>
		</radialGradient>
		<path fill-rule="evenodd" clip-rule="evenodd" fill="url(#SVGID_75_)" d="M277.9,1330.2c3.4-0.3,6.2,0.6,6.4,2&#10;&#9;&#9;&#9;c0.1,1.4-2.5,2.8-5.9,3.1c-3.4,0.3-6.2-0.6-6.3-2C272,1331.9,274.6,1330.5,277.9,1330.2L277.9,1330.2z" style="fill-opacity: 0.47;"/>
		<radialGradient id="SVGID_76_" gradientUnits="objectBoundingBox" cx="0.5" cy="0.5" r="0.5">
			<stop offset="0" style="stop-color:#84CCFF"/>
			<stop offset="1" style="stop-color:#84CCFF;stop-opacity:0"/>
		</radialGradient>
		<path fill-rule="evenodd" clip-rule="evenodd" fill="url(#SVGID_76_)" d="M453.1,1285.4c3.4-0.3,6.2,0.6,6.3,2&#10;&#9;&#9;&#9;c0.1,1.4-2.5,2.8-5.8,3.1c-3.4,0.3-6.2-0.6-6.4-2C447.1,1287.1,449.8,1285.7,453.1,1285.4L453.1,1285.4z" style="fill-opacity: 0.47;"/>
		<radialGradient id="SVGID_77_" gradientUnits="objectBoundingBox" cx="0.5" cy="0.5" r="0.5">
			<stop offset="0" style="stop-color:#84CCFF"/>
			<stop offset="1" style="stop-color:#84CCFF;stop-opacity:0"/>
		</radialGradient>
		<path fill-rule="evenodd" clip-rule="evenodd" fill="url(#SVGID_77_)" d="M430.2,1297.9c6.8-0.6,12.5,1.2,12.7,4.1&#10;&#9;&#9;&#9;c0.3,2.8-5,5.7-11.8,6.3c-6.8,0.6-12.5-1.2-12.7-4C418.2,1301.3,423.5,1298.5,430.2,1297.9L430.2,1297.9z" style="fill-opacity: 0.47;"/>
	</g>
</g><g transform="matrix(1, 0, 0, 1, 57.594572509683985, -207.75166321088307)">
	<radialGradient id="SVGID_78_" gradientUnits="objectBoundingBox" cx="0.5" cy="0.5" r="0.5">
		<stop offset="0" style="stop-color:#0035C5"/>
		<stop offset="1" style="stop-color:#5099FF"/>
	</radialGradient>
	<path fill-rule="evenodd" clip-rule="evenodd" fill="url(#SVGID_78_)" d="M974.8,350.3c-6.9,2.9-16.6,13.5-14.2,20.5&#10;&#9;&#9;c2.6,7.8,16.2,8.6,24.1,6.1c9.4-2.9,12.3-8.5,10.9-15.6C994.1,354,987.6,345,974.8,350.3L974.8,350.3z" style="fill-opacity: 0.47;"/>
	<radialGradient id="SVGID_79_" gradientUnits="objectBoundingBox" cx="0.5" cy="0.5" r="0.5">
		<stop offset="0" style="stop-color:#0035C5"/>
		<stop offset="1" style="stop-color:#5099FF"/>
	</radialGradient>
	<path fill-rule="evenodd" clip-rule="evenodd" fill="url(#SVGID_79_)" d="M168.8,1114.4c-4.5,0.1-11.8,4.3-10.4,8.6&#10;&#9;&#9;c1.6,4.8,11.1,4.9,15.7,3C180.5,1123.4,176.2,1114.3,168.8,1114.4L168.8,1114.4z" style="fill-opacity: 0.47;"/>
	<radialGradient id="SVGID_80_" gradientUnits="objectBoundingBox" cx="0.5" cy="0.5" r="0.5">
		<stop offset="0" style="stop-color:#0035C5"/>
		<stop offset="1" style="stop-color:#5099FF"/>
	</radialGradient>
	<path fill-rule="evenodd" clip-rule="evenodd" fill="url(#SVGID_80_)" d="M123.2,495.7c-22.8,8,17.4,51.4,37.6,41.9&#10;&#9;&#9;C178.2,529.3,138.2,490.4,123.2,495.7L123.2,495.7z" style="fill-opacity: 0.47;"/>
	<radialGradient id="SVGID_81_" gradientUnits="objectBoundingBox" cx="0.5" cy="0.5" r="0.5">
		<stop offset="0" style="stop-color:#0035C5"/>
		<stop offset="1" style="stop-color:#5099FF"/>
	</radialGradient>
	<path fill-rule="evenodd" clip-rule="evenodd" fill="url(#SVGID_81_)" d="M108.1,778.7c-11.6,4.1,8.9,26.2,19.2,21.4&#10;&#9;&#9;C136.2,795.9,115.8,776,108.1,778.7L108.1,778.7z" style="fill-opacity: 0.47;"/>
	<radialGradient id="SVGID_82_" gradientUnits="objectBoundingBox" cx="0.5" cy="0.5" r="0.5">
		<stop offset="0" style="stop-color:#0035C5"/>
		<stop offset="1" style="stop-color:#5099FF"/>
	</radialGradient>
	<path fill-rule="evenodd" clip-rule="evenodd" fill="url(#SVGID_82_)" d="M1238,1159.5c-11.6,4.1-4.4,23.3,5.9,18.4&#10;&#9;&#9;C1252.8,1173.7,1245.7,1156.8,1238,1159.5L1238,1159.5z" style="fill-opacity: 0.47;"/>
	<radialGradient id="SVGID_83_" gradientUnits="objectBoundingBox" cx="0.5" cy="0.5" r="0.5">
		<stop offset="0" style="stop-color:#0035C5"/>
		<stop offset="1" style="stop-color:#5099FF"/>
	</radialGradient>
	<path fill-rule="evenodd" clip-rule="evenodd" fill="url(#SVGID_83_)" d="M540.7,328.5c-11.9,3.3-8.7,21.9,15.1,12.3&#10;&#9;&#9;C564.9,337.1,558.5,323.6,540.7,328.5L540.7,328.5z" style="fill-opacity: 0.47;"/>
	<radialGradient id="SVGID_84_" gradientUnits="objectBoundingBox" cx="0.5" cy="0.5" r="0.5">
		<stop offset="0" style="stop-color:#0035C5"/>
		<stop offset="1" style="stop-color:#5099FF"/>
	</radialGradient>
	<path fill-rule="evenodd" clip-rule="evenodd" fill="url(#SVGID_84_)" d="M1264.3,991.5c-22.8,8-11.8,37.3,8.4,27.8&#10;&#9;&#9;C1290.2,1011,1279.4,986.2,1264.3,991.5L1264.3,991.5z" style="fill-opacity: 0.47;"/>
	<radialGradient id="SVGID_85_" gradientUnits="objectBoundingBox" cx="0.5" cy="0.5" r="0.5">
		<stop offset="0" style="stop-color:#0035C5"/>
		<stop offset="1" style="stop-color:#5099FF"/>
	</radialGradient>
	<path fill-rule="evenodd" clip-rule="evenodd" fill="url(#SVGID_85_)" d="M484.5,501.7c-28.8,10.2-14.9,47.2,10.6,35.2&#10;&#9;&#9;C517.2,526.5,503.5,495,484.5,501.7L484.5,501.7z" style="fill-opacity: 0.47;"/>
	<radialGradient id="SVGID_86_" gradientUnits="objectBoundingBox" cx="0.5" cy="0.5" r="0.5">
		<stop offset="0" style="stop-color:#0035C5"/>
		<stop offset="1" style="stop-color:#5099FF"/>
	</radialGradient>
	<path fill-rule="evenodd" clip-rule="evenodd" fill="url(#SVGID_86_)" d="M953.6,266.5c-10.7,3.8-5.6,17.6,4,13.2&#10;&#9;&#9;C965.8,275.8,960.7,264,953.6,266.5L953.6,266.5z" style="fill-opacity: 0.47;"/>
</g></g></svg>