<?xml version="1.0" encoding="utf-8"?>
<svg id="master-artboard" viewBox="0 0 1400 980" version="1.1" xmlns="http://www.w3.org/2000/svg" x="0px" y="0px" style="enable-background:new 0 0 1400 980;" width="1400px" height="980px"><rect id="ee-background" x="0" y="0" width="1400" height="980" style="fill: rgb(234, 247, 255); fill-opacity: 1; pointer-events: none;"/>

<radialGradient id="SVGID_1_" cx="700" cy="490" r="1145.6371" gradientTransform="matrix(1 0 0 0.7652 0 115.0314)" gradientUnits="userSpaceOnUse">
		<stop offset="0" style="stop-color:#FFFFFF"/>
		<stop offset="0.2833" style="stop-color:#F9F9FA"/>
		<stop offset="0.5604" style="stop-color:#EFEFF0"/>
		<stop offset="0.834" style="stop-color:#DEDFE1"/>
		<stop offset="1" style="stop-color:#D1D3D4"/>
	</radialGradient><path class="st2" d="M218.5,449.9c-0.1-0.6-0.1-1.2-0.2-1.8C218.3,448.7,218.4,449.3,218.5,449.9z" style="fill: rgb(255, 200, 90);" transform="matrix(1, 0, 0, 1, 0, 0)"/><path class="st2" d="M220.6,466.1c0-0.2-0.1-0.5-0.1-0.7C220.5,465.6,220.6,465.8,220.6,466.1z" style="fill: rgb(255, 200, 90);" transform="matrix(1, 0, 0, 1, 0, 0)"/><path class="st2" d="M220.4,464.9c0-0.3-0.1-0.6-0.1-0.9C220.3,464.3,220.4,464.6,220.4,464.9z" style="fill: rgb(255, 200, 90);" transform="matrix(1, 0, 0, 1, 0, 0)"/><path class="st2" d="M221,468.1c0-0.2-0.1-0.4-0.1-0.6C220.9,467.7,221,467.9,221,468.1z" style="fill: rgb(255, 200, 90);" transform="matrix(1, 0, 0, 1, 0, 0)"/><path class="st2" d="M220.8,467.2c0-0.2-0.1-0.4-0.1-0.6C220.8,466.7,220.8,467,220.8,467.2z" style="fill: rgb(255, 200, 90);" transform="matrix(1, 0, 0, 1, 0, 0)"/><path class="st2" d="M220.2,463.5c-0.1-0.3-0.1-0.7-0.2-1.1C220.1,462.8,220.2,463.2,220.2,463.5z" style="fill: rgb(255, 200, 90);" transform="matrix(1, 0, 0, 1, 0, 0)"/><path class="st2" d="M219.5,458.2c-0.1-0.5-0.1-0.9-0.2-1.4C219.4,457.3,219.4,457.8,219.5,458.2z" style="fill: rgb(255, 200, 90);" transform="matrix(1, 0, 0, 1, 0, 0)"/><path class="st2" d="M219.2,456.2c-0.1-0.5-0.1-0.9-0.2-1.4C219.1,455.3,219.2,455.8,219.2,456.2z" style="fill: rgb(255, 200, 90);" transform="matrix(1, 0, 0, 1, 0, 0)"/><path class="st2" d="M218.7,452.1c-0.1-0.5-0.1-1.1-0.2-1.6C218.6,451.1,218.7,451.6,218.7,452.1z" style="fill: rgb(255, 200, 90);" transform="matrix(1, 0, 0, 1, 0, 0)"/><path class="st2" d="M221.2,468.9c0-0.2-0.1-0.3-0.1-0.5C221.1,468.6,221.2,468.7,221.2,468.9z" style="fill: rgb(255, 200, 90);" transform="matrix(1, 0, 0, 1, 0, 0)"/><path class="st2" d="M219,454.2c-0.1-0.5-0.1-1-0.2-1.5C218.9,453.2,218.9,453.7,219,454.2z" style="fill: rgb(255, 200, 90);" transform="matrix(1, 0, 0, 1, 0, 0)"/><path class="st2" d="M220,462c-0.1-1-0.3-2.2-0.5-3.3C219.7,459.9,219.8,461,220,462z" style="fill: rgb(255, 200, 90);" transform="matrix(1, 0, 0, 1, 0, 0)"/><path class="st2" d="M251.1,470.8c-0.6,0.5-1.1,1-1.6,1.4C250.1,471.8,250.6,471.4,251.1,470.8z" style="fill: rgb(255, 200, 90);" transform="matrix(1, 0, 0, 1, 0, 0)"/><path class="st2" d="M256.4,465.9c-0.8,0.8-1.6,1.5-2.3,2.2C254.8,467.4,255.6,466.7,256.4,465.9z" style="fill: rgb(255, 200, 90);" transform="matrix(1, 0, 0, 1, 0, 0)"/><path class="st2" d="M253.6,468.5c-0.7,0.6-1.3,1.2-1.9,1.8C252.3,469.8,252.9,469.2,253.6,468.5z" style="fill: rgb(255, 200, 90);" transform="matrix(1, 0, 0, 1, 0, 0)"/><path class="st2" d="M221.4,469.7c-0.1-0.2-0.1-0.3-0.2-0.6C221.3,469.3,221.4,469.5,221.4,469.7z" style="fill: rgb(255, 200, 90);" transform="matrix(1, 0, 0, 1, 0, 0)"/><path class="st2" d="M259.6,462.9c-1,0.9-1.9,1.8-2.8,2.7C257.7,464.7,258.6,463.8,259.6,462.9z" style="fill: rgb(255, 200, 90);" transform="matrix(1, 0, 0, 1, 0, 0)"/><path class="st2" d="M249,472.8c-0.4,0.4-0.8,0.8-1.2,1.1C248.2,473.5,248.6,473.2,249,472.8z" style="fill: rgb(255, 200, 90);" transform="matrix(1, 0, 0, 1, 0, 0)"/><path class="st2" d="M246,475.5c-0.4,0.3-0.7,0.6-0.9,0.7C245.3,476.1,245.6,475.8,246,475.5z" style="fill: rgb(255, 200, 90);" transform="matrix(1, 0, 0, 1, 0, 0)"/><path class="st2" d="M247.3,474.3c-0.4,0.3-0.7,0.6-1,0.8C246.6,474.9,246.9,474.7,247.3,474.3z" style="fill: rgb(255, 200, 90);" transform="matrix(1, 0, 0, 1, 0, 0)"/><path class="st3" d="M320.1,118.5c-3.9-0.2-7.7,0.3-11.3,1.5C312.3,118.8,316.2,118.3,320.1,118.5z" style="fill: rgb(110, 144, 130);" transform="matrix(1, 0, 0, 1, 0, 0)"/><path class="st3" d="M391.5,144.3c4.8,1.8,8.8,4.7,12,8.4C400.4,149,396.3,146.1,391.5,144.3l-62.7-23.8c-2.9-1.1-5.8-1.7-8.7-1.9&#10;&#9;&#9;&#9;c2.9,0.2,5.9,0.8,8.7,1.9L391.5,144.3z" style="fill: rgb(110, 144, 130);" transform="matrix(1, 0, 0, 1, 0, 0)"/><path class="st4" d="M409.3,180.9L409.3,180.9c-0.2,0.6-0.3,1.1-0.5,1.7C409,182,409.1,181.5,409.3,180.9z" style="fill: rgb(221, 231, 227);" transform="matrix(1, 0, 0, 1, 0, 0)"/><path class="st4" d="M290.5,137.6c0.2-0.4,0.3-0.8,0.5-1.2l0,0C290.8,136.9,290.6,137.2,290.5,137.6z" style="fill: rgb(221, 231, 227);" transform="matrix(1, 0, 0, 1, 0, 0)"/><path d="M 1015.5 345.1000061035156 L 1015.5 346.8999938964844 L 1016.2999877929688 345.1000061035156 Z" class="st2" style="fill: rgb(255, 200, 90);" transform="matrix(1, 0, 0, 1, 0, 0)"/><path class="st13" d="M642.9,483.9c10.2,3.7,19.5-5.4,24.2-11.1l-33.4-13.7C632.7,465.1,631.6,479.8,642.9,483.9z" style="fill: rgb(171, 68, 18);" transform="matrix(0.658117949962616, 0, 0, 0.658117949962616, 748.4923095703125, 286.90719408477474)"/><path d="M 630.2999877929688 457.70001220703125 L 633.7000122070312 459.1000061035156 L 667.0999755859375 472.70001220703125 L 673 475.1000061035156 L 714.7000122070312 435.79998779296875 L 621.7999877929688 401.20001220703125 Z" class="st14" style="fill: rgb(242, 97, 34);" transform="matrix(0.658117949962616, 0, 0, 0.658117949962616, 748.4923095703125, 286.90719408477474)"/><path class="st14" d="M774.5,136.5c-52.8-15.8-93.8,95.7-104.1,126.7c1.5-0.2,3.1-0.1,4.6,0.4l90.9,32.8c0.8,0.3,1.5,0.7,2.2,1.2&#10;&#9;&#9;&#9;C780.9,261.6,816.9,149.6,774.5,136.5z" style="fill: rgb(242, 97, 34);" transform="matrix(0.658117949962616, 0, 0, 0.658117949962616, 748.4923095703125, 286.90719408477474)"/><path class="st15" d="M668.6,281.2c-1.5-0.5-2.7-1.5-3.7-2.6l-40,101.9c0.7,0.1,1.5,0.3,2.2,0.5l98.7,36.3c1.1,0.4,2.1,1,3,1.8&#10;&#9;&#9;&#9;L762,314.9c-0.9-0.1-1.8-0.2-2.7-0.5L668.6,281.2z" style="fill: rgb(242, 146, 84);" transform="matrix(0.658117949962616, 0, 0, 0.658117949962616, 748.4923095703125, 286.90719408477474)"/><path class="st16" d="M675,263.6c-1.5-0.6-3.1-0.6-4.6-0.4c-3.1,0.5-5.9,2.5-7.2,5.6c-1.5,3.5-0.7,7.3,1.7,9.9&#10;&#9;&#9;&#9;c1,1.1,2.2,2,3.7,2.6l90.7,33.2c0.9,0.3,1.8,0.5,2.7,0.5c4,0.2,7.9-2.1,9.3-6.1l0.2-0.4c1.5-4.1,0-8.4-3.4-10.8&#10;&#9;&#9;&#9;c-0.7-0.5-1.4-0.9-2.2-1.2L675,263.6z" style="fill: rgb(166, 77, 44);" transform="matrix(0.6581183075904846, 0, 0, 0.6581183075904846, 748.4921875, 286.9071025320403)"/><path class="st16" d="M627,381.1c-0.7-0.3-1.4-0.4-2.2-0.5c-4.4-0.6-8.9,1.9-10.7,6.2c-2.3,5.5,0.4,11.7,5.9,13.8l1.7,0.6&#10;&#9;&#9;&#9;l92.9,34.6l3.9,1.5c5.3,2,11.1-0.8,13.1-6.2l0.2-0.5c1.5-4.3,0.1-8.8-3.1-11.6c-0.9-0.7-1.9-1.4-3-1.8L627,381.1z" style="fill: rgb(166, 77, 44);" transform="matrix(0.658117949962616, 0, 0, 0.658117949962616, 748.4923095703125, 286.90719408477474)"/><path class="st17" d="M651,847l-14.3,31.6l2.4,2.3l14.7-32.5c2.7,0.5,5.6-0.8,6.8-3.5c1.4-3.1,0-6.7-3.1-8.1&#10;&#9;&#9;&#9;c-3.1-1.4-6.7,0-8.1,3.1C648.2,842.3,649,845.2,651,847z" style="fill: none;" transform="matrix(1, 0, 0, 1, 0, 0)"/><path class="st17" d="M298.8,585.6h-3.9h-3.7h-3.9h-3.7h-3.9h-2.2v-16.9c-12.4,4.8-21.2,16.8-21.2,30.8&#10;&#9;&#9;&#9;c0,18.3,14.8,33.1,33.1,33.1c18.3,0,33.1-14.8,33.1-33.1c0-14-8.7-25.9-20.9-30.7v16.7H298.8z" style="fill: none;" transform="matrix(1, 0, 0, 1, 0, 0)"/>

</svg>