<?xml version="1.0" encoding="utf-8"?>
<svg id="master-artboard" viewBox="0 0 1400 980" version="1.1" xmlns="http://www.w3.org/2000/svg" x="0px" y="0px" style="enable-background:new 0 0 1400 980;" width="1400px" height="980px"><rect id="ee-background" x="0" y="0" width="1400" height="980" style="fill: rgb(234, 247, 255); fill-opacity: 1; pointer-events: none;"/>

<radialGradient id="SVGID_1_" cx="700" cy="490" r="1145.6371" gradientTransform="matrix(1 0 0 0.7652 0 115.0314)" gradientUnits="userSpaceOnUse">
		<stop offset="0" style="stop-color:#FFFFFF"/>
		<stop offset="0.2833" style="stop-color:#F9F9FA"/>
		<stop offset="0.5604" style="stop-color:#EFEFF0"/>
		<stop offset="0.834" style="stop-color:#DEDFE1"/>
		<stop offset="1" style="stop-color:#D1D3D4"/>
	</radialGradient><path class="st2" d="M218.5,449.9c-0.1-0.6-0.1-1.2-0.2-1.8C218.3,448.7,218.4,449.3,218.5,449.9z" style="fill: rgb(255, 200, 90);" transform="matrix(0.5953669913425494, 0, 0, 0.5953669913425494, 883.3426821984639, 311.5865214327051)"/><path class="st2" d="M220.6,466.1c0-0.2-0.1-0.5-0.1-0.7C220.5,465.6,220.6,465.8,220.6,466.1z" style="fill: rgb(255, 200, 90);" transform="matrix(0.32675243596910886, 0, 0, 0.32675243596910886, 1130.1852152716933, 235.32300256963694)"/><path class="st2" d="M218.2,447.7c-0.2-1.6-0.4-3.2-0.5-4.9l45.2,16.9c-1.1,1.1-2.2,2.1-3.2,3.1c23.9-22.9,67.8-66.3,67.8-66.3&#10;&#9;&#9;&#9;l-118.3-44.9C209.2,351.6,214.3,413.2,218.2,447.7z" style="fill: rgb(255, 200, 90);" transform="matrix(0.5953669494865077, 0, 0, 0.5953669494865077, 883.3427010710329, 308.9479814712553)"/><path class="st2" d="M220.4,464.9c0-0.3-0.1-0.6-0.1-0.9C220.3,464.3,220.4,464.6,220.4,464.9z" style="fill: rgb(255, 200, 90);" transform="matrix(0.32675243596910886, 0, 0, 0.32675243596910886, 1130.1852152716933, 235.32300256963694)"/><path class="st2" d="M221,468.1c0-0.2-0.1-0.4-0.1-0.6C220.9,467.7,221,467.9,221,468.1z" style="fill: rgb(255, 200, 90);" transform="matrix(0.32675243596910886, 0, 0, 0.32675243596910886, 1130.1852152716933, 235.32300256963694)"/><path class="st2" d="M220.8,467.2c0-0.2-0.1-0.4-0.1-0.6C220.8,466.7,220.8,467,220.8,467.2z" style="fill: rgb(255, 200, 90);" transform="matrix(0.32675243596910886, 0, 0, 0.32675243596910886, 1130.1852152716933, 235.32300256963694)"/><path class="st2" d="M220.2,463.5c-0.1-0.3-0.1-0.7-0.2-1.1C220.1,462.8,220.2,463.2,220.2,463.5z" style="fill: rgb(255, 200, 90);" transform="matrix(0.32675243596910886, 0, 0, 0.32675243596910886, 1130.1852152716933, 235.32300256963694)"/><path class="st2" d="M219.5,458.2c-0.1-0.5-0.1-0.9-0.2-1.4C219.4,457.3,219.4,457.8,219.5,458.2z" style="fill: rgb(255, 200, 90);" transform="matrix(0.32675243596910886, 0, 0, 0.32675243596910886, 1130.1852152716933, 235.32300256963694)"/><path class="st2" d="M219.2,456.2c-0.1-0.5-0.1-0.9-0.2-1.4C219.1,455.3,219.2,455.8,219.2,456.2z" style="fill: rgb(255, 200, 90);" transform="matrix(0.5953669913425494, 0, 0, 0.5953669913425494, 883.3426821984639, 311.5865214327051)"/><path class="st2" d="M218.7,452.1c-0.1-0.5-0.1-1.1-0.2-1.6C218.6,451.1,218.7,451.6,218.7,452.1z" style="fill: rgb(255, 200, 90);" transform="matrix(0.5953669913425494, 0, 0, 0.5953669913425494, 883.3426821984639, 311.5865214327051)"/><path class="st2" d="M221.2,468.9c0-0.2-0.1-0.3-0.1-0.5C221.1,468.6,221.2,468.7,221.2,468.9z" style="fill: rgb(255, 200, 90);" transform="matrix(0.32675243596910886, 0, 0, 0.32675243596910886, 1130.1852152716933, 235.32300256963694)"/><path class="st2" d="M219,454.2c-0.1-0.5-0.1-1-0.2-1.5C218.9,453.2,218.9,453.7,219,454.2z" style="fill: rgb(255, 200, 90);" transform="matrix(0.5953669913425494, 0, 0, 0.5953669913425494, 883.3426821984639, 311.5865214327051)"/><path class="st2" d="M220,462c-0.1-1-0.3-2.2-0.5-3.3C219.7,459.9,219.8,461,220,462z" style="fill: rgb(255, 200, 90);" transform="matrix(0.32675243596910886, 0, 0, 0.32675243596910886, 1130.1852152716933, 235.32300256963694)"/><path class="st2" d="M251.1,470.8c-0.6,0.5-1.1,1-1.6,1.4C250.1,471.8,250.6,471.4,251.1,470.8z" style="fill: rgb(255, 200, 90);" transform="matrix(0.32675243596910886, 0, 0, 0.32675243596910886, 1130.1852152716933, 235.32300256963694)"/><path class="st2" d="M256.4,465.9c-0.8,0.8-1.6,1.5-2.3,2.2C254.8,467.4,255.6,466.7,256.4,465.9z" style="fill: rgb(255, 200, 90);" transform="matrix(0.32675243596910886, 0, 0, 0.32675243596910886, 1130.1852152716933, 235.32300256963694)"/><path class="st2" d="M253.6,468.5c-0.7,0.6-1.3,1.2-1.9,1.8C252.3,469.8,252.9,469.2,253.6,468.5z" style="fill: rgb(255, 200, 90);" transform="matrix(0.32675243596910886, 0, 0, 0.32675243596910886, 1130.1852152716933, 235.32300256963694)"/><path class="st2" d="M221.4,469.7c-0.1-0.2-0.1-0.3-0.2-0.6C221.3,469.3,221.4,469.5,221.4,469.7z" style="fill: rgb(255, 200, 90);" transform="matrix(0.32675243596910886, 0, 0, 0.32675243596910886, 1130.1852152716933, 235.32300256963694)"/><path class="st2" d="M259.6,462.9c-1,0.9-1.9,1.8-2.8,2.7C257.7,464.7,258.6,463.8,259.6,462.9z" style="fill: rgb(255, 200, 90);" transform="matrix(0.32675243596910886, 0, 0, 0.32675243596910886, 1130.1852152716933, 235.32300256963694)"/><path class="st2" d="M249,472.8c-0.4,0.4-0.8,0.8-1.2,1.1C248.2,473.5,248.6,473.2,249,472.8z" style="fill: rgb(255, 200, 90);" transform="matrix(0.32675243596910886, 0, 0, 0.32675243596910886, 1130.1852152716933, 235.32300256963694)"/><path class="st2" d="M246,475.5c-0.4,0.3-0.7,0.6-0.9,0.7C245.3,476.1,245.6,475.8,246,475.5z" style="fill: rgb(255, 200, 90);" transform="matrix(0.32675243596910886, 0, 0, 0.32675243596910886, 1130.1852152716933, 235.32300256963694)"/><path class="st2" d="M247.3,474.3c-0.4,0.3-0.7,0.6-1,0.8C246.6,474.9,246.9,474.7,247.3,474.3z" style="fill: rgb(255, 200, 90);" transform="matrix(0.32675243596910886, 0, 0, 0.32675243596910886, 1130.1852152716933, 235.32300256963694)"/><path class="st3" d="M320.1,118.5c-3.9-0.2-7.7,0.3-11.3,1.5C312.3,118.8,316.2,118.3,320.1,118.5z" style="fill: rgb(110, 144, 130);" transform="matrix(0.5953669913425494, 0, 0, 0.5953669913425494, 883.3426821984639, 311.5865214327051)"/><path class="st3" d="M289.7,139.7L289.7,139.7l0.8-2.1c0.2-0.4,0.3-0.8,0.5-1.2l0,0c3-7.1,8.5-12.4,15.1-15.4&#10;&#9;&#9;&#9;c-6.9,3.1-12.7,8.9-15.6,16.5l-6,15.8l118.4,44.5l3.5-9.3l-119.3-42.2L289.7,139.7z" style="fill: rgb(110, 144, 130);" transform="matrix(0.5953669913425494, 0, 0, 0.5953669913425494, 883.3426821984639, 311.5865214327051)"/><path class="st3" d="M280.7,163.4l0.9-2.4l-9.7,25.5L390.3,231l11.1-29.3l-1.5,3.9L280.7,163.4z M393.9,221.7l-119.3-42.2l3.8-9.9&#10;&#9;&#9;&#9;l118.4,44.5L393.9,221.7z" style="fill: rgb(110, 144, 130);" transform="matrix(0.5953669913425494, 0, 0, 0.5953669913425494, 883.3426821984639, 311.5865214327051)"/><path class="st3" d="M391.5,144.3c4.8,1.8,8.8,4.7,12,8.4C400.4,149,396.3,146.1,391.5,144.3l-62.7-23.8c-2.9-1.1-5.8-1.7-8.7-1.9&#10;&#9;&#9;&#9;c2.9,0.2,5.9,0.8,8.7,1.9L391.5,144.3z" style="fill: rgb(110, 144, 130);" transform="matrix(0.5953669913425494, 0, 0, 0.5953669913425494, 883.3426821984639, 311.5865214327051)"/><path class="st4" d="M409.3,180.9L409.3,180.9c-0.2,0.6-0.3,1.1-0.5,1.7C409,182,409.1,181.5,409.3,180.9z" style="fill: rgb(221, 231, 227);" transform="matrix(0.5953669913425494, 0, 0, 0.5953669913425494, 883.3426821984639, 311.5865214327051)"/><path class="st4" d="M290.5,137.6c0.2-0.4,0.3-0.8,0.5-1.2l0,0C290.8,136.9,290.6,137.2,290.5,137.6z" style="fill: rgb(221, 231, 227);" transform="matrix(0.5953669913425494, 0, 0, 0.5953669913425494, 883.3426821984639, 311.5865214327051)"/><path d="M 289.70001220703125 139.6999969482422 L 287.1000061035156 146.39999389648438 L 406.3999938964844 188.60000610351562 L 406.3999938964844 188.60000610351562 L 408.6000061035156 183 Z" class="st4" style="fill: rgb(221, 231, 227);" transform="matrix(0.5953669913425494, 0, 0, 0.5953669913425494, 883.3426821984639, 311.5865214327051)"/><path d="M 284.5 153.39999389648438 L 281.6000061035156 161 L 280.70001220703125 163.39999389648438 L 400 205.60000610351562 L 401.5 201.6999969482422 L 402.8999938964844 197.89999389648438 L 402.8999938964844 197.89999389648438 L 284.5 153.39999389648438 Z" class="st4" style="fill: rgb(221, 231, 227);" transform="matrix(0.5953669913425494, 0, 0, 0.5953669913425494, 883.3426821984639, 311.5865214327051)"/><path d="M 274.6000061035156 179.5 L 393.8999938964844 221.6999969482422 L 396.79998779296875 214.10000610351562 L 278.29998779296875 169.60000610351562 Z" class="st4" style="fill: rgb(221, 231, 227);" transform="matrix(0.5953669913425494, 0, 0, 0.5953669913425494, 883.3426821984639, 311.5865214327051)"/><path d="M 271.8999938964844 186.5 L 271.6000061035156 187.1999969482422 L 268.1000061035156 196.5 L 387.3999938964844 238.60000610351562 L 387.3999938964844 238.60000610351562 L 390.29998779296875 231 L 390.29998779296875 231 L 271.8999938964844 186.5 Z" class="st4" style="fill: rgb(221, 231, 227);" transform="matrix(0.5953669913425494, 0, 0, 0.5953669913425494, 883.3426821984639, 311.5865214327051)"/><path class="st5" d="M403.5,152.6c-3.1-3.6-7.2-6.6-12-8.4l-62.7-23.8c-2.9-1.1-5.8-1.7-8.7-1.9c-3.9-0.2-7.7,0.3-11.3,1.5&#10;&#9;&#9;&#9;c-0.9,0.3-1.8,0.7-2.7,1c-6.6,3-12,8.3-15.1,15.4c-0.2,0.4-0.4,0.8-0.5,1.2l-0.8,2.1h0L408.6,183h0l0.2-0.4&#10;&#9;&#9;&#9;c0.2-0.6,0.4-1.1,0.5-1.7c1-3.3,1.5-6.7,1.4-10C410.4,164.2,407.9,157.7,403.5,152.6z" style="fill: rgb(232, 30, 38);" transform="matrix(0.5953669913425494, 0, 0, 0.5953669913425494, 883.3426821984639, 311.5865214327051)"/><path class="st6" d="M217.7,442.8c0.2,1.7,0.4,3.3,0.5,4.9c0,0.1,0,0.3,0,0.4c0.1,0.6,0.1,1.2,0.2,1.8c0,0.2,0,0.4,0.1,0.6&#10;&#9;&#9;&#9;c0.1,0.5,0.1,1.1,0.2,1.6c0,0.2,0.1,0.4,0.1,0.6c0.1,0.5,0.1,1,0.2,1.5c0,0.2,0.1,0.4,0.1,0.7c0.1,0.5,0.1,0.9,0.2,1.4&#10;&#9;&#9;&#9;c0,0.2,0,0.4,0.1,0.6c0.1,0.5,0.1,1,0.2,1.4c0,0.1,0,0.3,0.1,0.4c0.2,1.2,0.3,2.3,0.5,3.3c0,0.2,0,0.3,0.1,0.4&#10;&#9;&#9;&#9;c0.1,0.4,0.1,0.7,0.2,1.1c0,0.2,0,0.3,0.1,0.5c0,0.3,0.1,0.6,0.1,0.9c0,0.2,0.1,0.3,0.1,0.5c0,0.2,0.1,0.5,0.1,0.7&#10;&#9;&#9;&#9;c0,0.2,0.1,0.3,0.1,0.5c0,0.2,0.1,0.4,0.1,0.6c0,0.1,0.1,0.3,0.1,0.4c0,0.2,0.1,0.4,0.1,0.6c0,0.1,0,0.2,0.1,0.3&#10;&#9;&#9;&#9;c0,0.2,0.1,0.3,0.1,0.5c0,0.1,0,0.2,0.1,0.2c0.1,0.2,0.1,0.4,0.2,0.6c3.6,10.5,16.4,11.8,23.6,6.6c0.2-0.2,0.6-0.4,0.9-0.7&#10;&#9;&#9;&#9;c0.1-0.1,0.2-0.2,0.4-0.3c0.3-0.3,0.6-0.5,1-0.8c0.2-0.1,0.3-0.3,0.5-0.5c0.4-0.3,0.8-0.7,1.2-1.1c0.2-0.2,0.4-0.3,0.6-0.5&#10;&#9;&#9;&#9;c0.5-0.5,1-0.9,1.6-1.4c0.2-0.2,0.4-0.3,0.5-0.5c0.6-0.6,1.2-1.2,1.9-1.8c0.2-0.2,0.3-0.3,0.5-0.5c0.7-0.7,1.5-1.4,2.3-2.2&#10;&#9;&#9;&#9;c0.1-0.1,0.3-0.2,0.4-0.4c0.9-0.9,1.8-1.7,2.8-2.7c0,0,0,0,0.1-0.1c1-1,2.1-2,3.2-3.1L217.7,442.8z" style="fill: rgb(55, 55, 50);" transform="matrix(0.5953669494865077, 0, 0, 0.5953669494865077, 883.3427010710329, 308.9479814712553)"/><path d="M 1015.5 345.1000061035156 L 1015.5 346.8999938964844 L 1016.2999877929688 345.1000061035156 Z" class="st2" style="fill: rgb(255, 200, 90);" transform="matrix(1.1213979936590734, 0, 0, 1.1213979936590734, -135.9240476438336, -27.776769791234667)"/><path class="st9" d="M1026.8,896.8c0,0,34.2,2.2,52.7-25.8c18.5-28,8-42.4,8-42.4l-49.8-19.2c0,0-18.4,3.1-21.9,26.2&#10;&#9;&#9;&#9;C1012.4,858.8,1031.6,882.4,1026.8,896.8z" style="fill: rgb(153, 75, 52);" transform="matrix(0.6154515371811411, 0, 0, 0.6154515371811411, 570.7857056454192, 49.071750983974916)"/><path d="M 1119 793.7999877929688 L 1034.699951171875 760.2000122070312 L 1037.699951171875 809.4000244140625 L 1087.5999755859375 828.5999755859375 Z" class="st10" style="fill: rgb(201, 218, 228);" transform="matrix(0.6154515371811411, 0, 0, 0.6154515371811411, 570.7857056454192, 49.071750983974916)"/><path class="st10" d="M1129.5,782c0,0,0.1,0,0.1,0.1l4.4-4.8L1033.3,737l0.4,7c0.5,0,0.9,0.1,1.4,0.3L1129.5,782z" style="fill: rgb(201, 218, 228);" transform="matrix(0.6154515371811411, 0, 0, 0.6154515371811411, 570.7857056454192, 49.071750983974916)"/><path class="st11" d="M1143.6,765c0.3,0.1,0.6,0.3,0.9,0.5c2.7-6.6,80.1-195.1,16.5-217.4c-59.6-21-118.5,146.8-127.3,173.1&#10;&#9;&#9;&#9;L1143.6,765z" style="fill: rgb(255, 221, 0);" transform="matrix(0.6154515371811411, 0, 0, 0.6154515371811411, 570.7857056454192, 49.071750983974916)"/><path class="st12" d="M1138.1,778.8c3.6,1.4,7.8-0.5,9.3-4.3c1.4-3.5,0.1-7.3-2.9-9.1c-0.3-0.2-0.6-0.3-0.9-0.5l-109.9-43.9&#10;&#9;&#9;&#9;l-0.5-0.2c-3.6-1.4-7.8,0.5-9.3,4.3c-1.5,3.8,0.2,8.1,3.8,9.5l5.6,2.2l100.7,40.2L1138.1,778.8z" style="fill: rgb(163, 185, 196);" transform="matrix(0.6154515371811411, 0, 0, 0.6154515371811411, 570.7857056454192, 49.071750983974916)"/><path class="st12" d="M1124,795.8c3.1,1.2,6.8-0.9,8.4-4.7c1.5-3.8,0.3-7.8-2.8-9.1c0,0-0.1,0-0.1-0.1l-94.4-37.7&#10;&#9;&#9;&#9;c-0.5-0.2-0.9-0.3-1.4-0.3c-2.8-0.3-5.7,1.7-7,5c-1.5,3.8-0.2,7.9,2.9,9.1l5.1,2l84.3,33.6L1124,795.8z" style="fill: rgb(163, 185, 196);" transform="matrix(0.6154515371811411, 0, 0, 0.6154515371811411, 570.7857056454192, 49.071750983974916)"/><path class="st17" d="M651,847l-14.3,31.6l2.4,2.3l14.7-32.5c2.7,0.5,5.6-0.8,6.8-3.5c1.4-3.1,0-6.7-3.1-8.1&#10;&#9;&#9;&#9;c-3.1-1.4-6.7,0-8.1,3.1C648.2,842.3,649,845.2,651,847z" style="fill: none;" transform="matrix(1, 0, 0, 1, 2.842170943040401e-14, 1.4210854715202004e-14)"/><path class="st17" d="M298.8,585.6h-3.9h-3.7h-3.9h-3.7h-3.9h-2.2v-16.9c-12.4,4.8-21.2,16.8-21.2,30.8&#10;&#9;&#9;&#9;c0,18.3,14.8,33.1,33.1,33.1c18.3,0,33.1-14.8,33.1-33.1c0-14-8.7-25.9-20.9-30.7v16.7H298.8z" style="fill: none;" transform="matrix(0.32675243596910886, 0, 0, 0.32675243596910886, 1130.1852152716933, 235.32300256963694)"/><path class="st17" d="M275.9,712.8h7.7c0.8-8.2,3.8-14.4,7.5-14.4s6.7,6.2,7.5,14.4h5.7c-6.1-29.6-11.5-55.5-13.9-67.1&#10;&#9;&#9;&#9;c-0.2,0-0.4,0-0.7,0C287.4,657.3,282,683.3,275.9,712.8z" style="fill: none;" transform="matrix(1, 0, 0, 1, 2.842170943040401e-14, 1.4210854715202004e-14)"/>

<path d="M 271.6000061035156 187.1999969482422 L 209.1999969482422 351.6000061035156 L 327.5 396.5 L 387.3999938964844 238.60000610351562 L 268.1000061035156 196.5 Z" class="st3" style="fill: rgb(110, 144, 130);" transform="matrix(0.5953669913425494, 0, 0, 0.5953669913425494, 883.3426821984639, 311.5865214327051)"/></svg>