<?xml version="1.0" encoding="utf-8"?>
<svg id="master-artboard" viewBox="0 0 1400 980" version="1.1" xmlns="http://www.w3.org/2000/svg" x="0px" y="0px" style="enable-background:new 0 0 1400 980;" width="1400px" height="980px"><rect id="ee-background" x="0" y="0" width="1400" height="980" style="fill: rgb(234, 247, 255); fill-opacity: 1; pointer-events: none;"/>

<radialGradient id="SVGID_1_" cx="700" cy="490" r="1145.6371" gradientTransform="matrix(1 0 0 0.7652 0 115.0314)" gradientUnits="userSpaceOnUse">
		<stop offset="0" style="stop-color:#FFFFFF"/>
		<stop offset="0.2833" style="stop-color:#F9F9FA"/>
		<stop offset="0.5604" style="stop-color:#EFEFF0"/>
		<stop offset="0.834" style="stop-color:#DEDFE1"/>
		<stop offset="1" style="stop-color:#D1D3D4"/>
	</radialGradient><path class="st2" d="M218.5,449.9c-0.1-0.6-0.1-1.2-0.2-1.8C218.3,448.7,218.4,449.3,218.5,449.9z" style="fill: rgb(255, 200, 90);" transform="matrix(0.8227534890174866, 0, 0, 0.6063734889030457, 963.1639948968952, 60.14049105450853)"/><path class="st2" d="M220.6,466.1c0-0.2-0.1-0.5-0.1-0.7C220.5,465.6,220.6,465.8,220.6,466.1z" style="fill: rgb(255, 200, 90);" transform="matrix(0.8227534890174866, 0, 0, 0.6063734889030457, 963.1639948968952, 60.14049105450853)"/><path class="st2" d="M220.4,464.9c0-0.3-0.1-0.6-0.1-0.9C220.3,464.3,220.4,464.6,220.4,464.9z" style="fill: rgb(255, 200, 90);" transform="matrix(0.8227534890174866, 0, 0, 0.6063734889030457, 963.1639948968952, 60.14049105450853)"/><path class="st2" d="M221,468.1c0-0.2-0.1-0.4-0.1-0.6C220.9,467.7,221,467.9,221,468.1z" style="fill: rgb(255, 200, 90);" transform="matrix(0.8227534890174866, 0, 0, 0.6063734889030457, 963.1639948968952, 60.14049105450853)"/><path class="st2" d="M220.8,467.2c0-0.2-0.1-0.4-0.1-0.6C220.8,466.7,220.8,467,220.8,467.2z" style="fill: rgb(255, 200, 90);" transform="matrix(0.8227534890174866, 0, 0, 0.6063734889030457, 963.1639948968952, 60.14049105450853)"/><path class="st2" d="M220.2,463.5c-0.1-0.3-0.1-0.7-0.2-1.1C220.1,462.8,220.2,463.2,220.2,463.5z" style="fill: rgb(255, 200, 90);" transform="matrix(0.8227534890174866, 0, 0, 0.6063734889030457, 963.1639948968952, 60.14049105450853)"/><path class="st2" d="M219.5,458.2c-0.1-0.5-0.1-0.9-0.2-1.4C219.4,457.3,219.4,457.8,219.5,458.2z" style="fill: rgb(255, 200, 90);" transform="matrix(0.8227534890174866, 0, 0, 0.6063734889030457, 963.1639948968952, 60.14049105450853)"/><path class="st2" d="M219.2,456.2c-0.1-0.5-0.1-0.9-0.2-1.4C219.1,455.3,219.2,455.8,219.2,456.2z" style="fill: rgb(255, 200, 90);" transform="matrix(0.8227534890174866, 0, 0, 0.6063734889030457, 963.1639948968952, 60.14049105450853)"/><path class="st2" d="M218.7,452.1c-0.1-0.5-0.1-1.1-0.2-1.6C218.6,451.1,218.7,451.6,218.7,452.1z" style="fill: rgb(255, 200, 90);" transform="matrix(0.8227534890174866, 0, 0, 0.6063734889030457, 963.1639948968952, 60.14049105450853)"/><path class="st2" d="M221.2,468.9c0-0.2-0.1-0.3-0.1-0.5C221.1,468.6,221.2,468.7,221.2,468.9z" style="fill: rgb(255, 200, 90);" transform="matrix(0.8227534890174866, 0, 0, 0.6063734889030457, 963.1639948968952, 60.14049105450853)"/><path class="st2" d="M219,454.2c-0.1-0.5-0.1-1-0.2-1.5C218.9,453.2,218.9,453.7,219,454.2z" style="fill: rgb(255, 200, 90);" transform="matrix(0.8227534890174866, 0, 0, 0.6063734889030457, 963.1639948968952, 60.14049105450853)"/><path class="st2" d="M220,462c-0.1-1-0.3-2.2-0.5-3.3C219.7,459.9,219.8,461,220,462z" style="fill: rgb(255, 200, 90);" transform="matrix(0.8227534890174866, 0, 0, 0.6063734889030457, 963.1639948968952, 60.14049105450853)"/><path class="st2" d="M251.1,470.8c-0.6,0.5-1.1,1-1.6,1.4C250.1,471.8,250.6,471.4,251.1,470.8z" style="fill: rgb(255, 200, 90);" transform="matrix(0.8227534890174866, 0, 0, 0.6063734889030457, 963.1639948968952, 60.14049105450853)"/><path class="st2" d="M256.4,465.9c-0.8,0.8-1.6,1.5-2.3,2.2C254.8,467.4,255.6,466.7,256.4,465.9z" style="fill: rgb(255, 200, 90);" transform="matrix(0.8227534890174866, 0, 0, 0.6063734889030457, 963.1639948968952, 60.14049105450853)"/><path class="st2" d="M253.6,468.5c-0.7,0.6-1.3,1.2-1.9,1.8C252.3,469.8,252.9,469.2,253.6,468.5z" style="fill: rgb(255, 200, 90);" transform="matrix(0.8227534890174866, 0, 0, 0.6063734889030457, 963.1639948968952, 60.14049105450853)"/><path class="st2" d="M221.4,469.7c-0.1-0.2-0.1-0.3-0.2-0.6C221.3,469.3,221.4,469.5,221.4,469.7z" style="fill: rgb(255, 200, 90);" transform="matrix(0.8227534890174866, 0, 0, 0.6063734889030457, 963.1639948968952, 60.14049105450853)"/><path class="st2" d="M259.6,462.9c-1,0.9-1.9,1.8-2.8,2.7C257.7,464.7,258.6,463.8,259.6,462.9z" style="fill: rgb(255, 200, 90);" transform="matrix(0.8227534890174866, 0, 0, 0.6063734889030457, 963.1639948968952, 60.14049105450853)"/><path class="st2" d="M249,472.8c-0.4,0.4-0.8,0.8-1.2,1.1C248.2,473.5,248.6,473.2,249,472.8z" style="fill: rgb(255, 200, 90);" transform="matrix(0.8227534890174866, 0, 0, 0.6063734889030457, 963.1639948968952, 60.14049105450853)"/><path class="st2" d="M246,475.5c-0.4,0.3-0.7,0.6-0.9,0.7C245.3,476.1,245.6,475.8,246,475.5z" style="fill: rgb(255, 200, 90);" transform="matrix(0.8227534890174866, 0, 0, 0.6063734889030457, 963.1639948968952, 60.14049105450853)"/><path class="st2" d="M247.3,474.3c-0.4,0.3-0.7,0.6-1,0.8C246.6,474.9,246.9,474.7,247.3,474.3z" style="fill: rgb(255, 200, 90);" transform="matrix(0.8227534890174866, 0, 0, 0.6063734889030457, 963.1639948968952, 60.14049105450853)"/><path class="st3" d="M320.1,118.5c-3.9-0.2-7.7,0.3-11.3,1.5C312.3,118.8,316.2,118.3,320.1,118.5z" style="fill: rgb(110, 144, 130);" transform="matrix(1, 0, 0, 1, -47.32592773437497, 10.388610839843764)"/><path class="st3" d="M391.5,144.3c4.8,1.8,8.8,4.7,12,8.4C400.4,149,396.3,146.1,391.5,144.3l-62.7-23.8c-2.9-1.1-5.8-1.7-8.7-1.9&#10;&#9;&#9;&#9;c2.9,0.2,5.9,0.8,8.7,1.9L391.5,144.3z" style="fill: rgb(110, 144, 130);" transform="matrix(1, 0, 0, 1, -47.32592773437497, 10.388610839843764)"/><path class="st4" d="M409.3,180.9L409.3,180.9c-0.2,0.6-0.3,1.1-0.5,1.7C409,182,409.1,181.5,409.3,180.9z" style="fill: rgb(221, 231, 227);" transform="matrix(1, 0, 0, 1, -47.32592773437497, 10.388610839843764)"/><path class="st4" d="M290.5,137.6c0.2-0.4,0.3-0.8,0.5-1.2l0,0C290.8,136.9,290.6,137.2,290.5,137.6z" style="fill: rgb(221, 231, 227);" transform="matrix(1, 0, 0, 1, -47.32592773437497, 10.388610839843764)"/><path d="M 1015.5 345.1000061035156 L 1015.5 346.8999938964844 L 1016.2999877929688 345.1000061035156 Z" class="st2" style="fill: rgb(255, 200, 90);" transform="matrix(1, 0, 0, 1, -47.32592773437497, 10.388610839843764)"/><path class="st17" d="M651,847l-14.3,31.6l2.4,2.3l14.7-32.5c2.7,0.5,5.6-0.8,6.8-3.5c1.4-3.1,0-6.7-3.1-8.1&#10;&#9;&#9;&#9;c-3.1-1.4-6.7,0-8.1,3.1C648.2,842.3,649,845.2,651,847z" style="fill: none;" transform="matrix(1, 0, 0, 1, -47.32592773437497, 10.388610839843764)"/><path class="st17" d="M298.8,585.6h-3.9h-3.7h-3.9h-3.7h-3.9h-2.2v-16.9c-12.4,4.8-21.2,16.8-21.2,30.8&#10;&#9;&#9;&#9;c0,18.3,14.8,33.1,33.1,33.1c18.3,0,33.1-14.8,33.1-33.1c0-14-8.7-25.9-20.9-30.7v16.7H298.8z" style="fill: none;" transform="matrix(0.8227534890174866, 0, 0, 0.6063734889030457, 963.1639948968952, 60.14049105450853)"/><path class="st17" d="M275.9,712.8h7.7c0.8-8.2,3.8-14.4,7.5-14.4s6.7,6.2,7.5,14.4h5.7c-6.1-29.6-11.5-55.5-13.9-67.1&#10;&#9;&#9;&#9;c-0.2,0-0.4,0-0.7,0C287.4,657.3,282,683.3,275.9,712.8z" style="fill: none;" transform="matrix(0.8227534890174866, 0, 0, 0.6063734889030457, 963.1639948968952, 60.14049105450853)"/><path class="st20" d="M352.7,870.8l10.6,23h2.6v-25.3c-3.6,1.6-7.9,2.3-12.5,2.3C353.2,870.8,352.9,870.8,352.7,870.8z" style="fill: rgb(75, 75, 80);" transform="matrix(0.8227534890174866, 0, 0, 0.6063734889030457, 963.1639948968952, 60.14049105450853)"/><path class="st20" d="M362,720.7v-7.9h-17.8c0.6,2.6,1.2,5.2,1.8,7.9H362z" style="fill: rgb(75, 75, 80);" transform="matrix(0.8227534890174866, 0, 0, 0.6063734889030457, 963.1639948968952, 60.14049105450853)"/><path class="st20" d="M220.3,712.8v7.9h14c0.6-2.6,1.2-5.3,1.8-7.9H220.3z" style="fill: rgb(75, 75, 80);" transform="matrix(0.8227534890174866, 0, 0, 0.6063734889030457, 963.1639948968952, 60.14049105450853)"/><path d="M 364.399994 844.900024 A 10.5 10.5 0 0 1 353.899994 855.400024 A 10.5 10.5 0 0 1 343.399994 844.900024 A 10.5 10.5 0 0 1 353.899994 834.400024 A 10.5 10.5 0 0 1 364.399994 844.900024 Z" class="st21" style="fill: rgb(162, 159, 152);" transform="matrix(0.8227534890174866, 0, 0, 0.6063734889030457, 963.1639948968952, 60.14049105450853)"/><path class="st20" d="M214.4,868.5v25.3h2.6l10.6-23c-0.3,0-0.5,0-0.7,0C222.3,870.8,218,870.1,214.4,868.5z" style="fill: rgb(75, 75, 80);" transform="matrix(0.8227534890174866, 0, 0, 0.6063734889030457, 963.1639948968952, 60.14049105450853)"/><path d="M 236.800003 844.900024 A 10.5 10.5 0 0 1 226.300003 855.400024 A 10.5 10.5 0 0 1 215.800003 844.900024 A 10.5 10.5 0 0 1 226.300003 834.400024 A 10.5 10.5 0 0 1 236.800003 844.900024 Z" class="st21" style="fill: rgb(162, 159, 152);" transform="matrix(0.8227534890174866, 0, 0, 0.6063734889030457, 963.1639948968952, 60.14049105450853)"/><path class="st21" d="M289.8,645.8c-0.2,0-0.4,0-0.6,0c-13.3,0-25.3-5.7-33.7-14.7c-3.6,15.2-11.1,46.9-19.3,81.7&#10;&#9;&#9;&#9;c-0.6,2.6-1.2,5.2-1.8,7.9c-13.5,57.7-28.1,120.8-29.1,129.1c-1.3,10,2.8,15.8,9.2,18.6c3.6,1.6,7.9,2.3,12.5,2.3&#10;&#9;&#9;&#9;c0.3,0,0.5,0,0.7,0c12-0.3,18.3-6.9,21.5-25.5c1.8-10.4,14.3-71.6,25.2-124.5c0.5-2.6,1.1-5.3,1.6-7.9&#10;&#9;&#9;&#9;C282,683.3,287.4,657.3,289.8,645.8z M226.3,859.6c-8.1,0-14.7-6.6-14.7-14.7c0-8.1,6.6-14.7,14.7-14.7c8.1,0,14.7,6.6,14.7,14.7&#10;&#9;&#9;&#9;C241,853,234.4,859.6,226.3,859.6z" style="fill: rgb(162, 159, 152);" transform="matrix(0.8227534890174866, 0, 0, 0.6063734889030457, 963.1639948968952, 60.14049105450853)"/><path class="st20" d="M289.1,645.8c0.2,0,0.4,0,0.6,0c0.2,0,0.4,0,0.7,0c13.6-0.4,25.8-6.6,34-16.4c6.8-8,10.9-18.4,10.9-29.7&#10;&#9;&#9;&#9;c0-21.3-14.4-39.2-34-44.5v13.8c12.2,4.9,20.9,16.8,20.9,30.7c0,18.3-14.8,33.1-33.1,33.1c-18.3,0-33.1-14.8-33.1-33.1&#10;&#9;&#9;&#9;c0-14.1,8.8-26.1,21.2-30.8V555c-19.8,5.2-34.3,23.2-34.3,44.6c0,12.2,4.7,23.2,12.4,31.5C263.8,640.1,275.8,645.8,289.1,645.8z" style="fill: rgb(75, 75, 80);" transform="matrix(0.8227534890174866, 0, 0, 0.6063734889030457, 963.1639948968952, 60.14049105450853)"/><path class="st22" d="M226.3,830.3c-8.1,0-14.7,6.6-14.7,14.7c0,8.1,6.6,14.7,14.7,14.7c8.1,0,14.7-6.6,14.7-14.7&#10;&#9;&#9;&#9;C241,836.8,234.4,830.3,226.3,830.3z M226.3,855.4c-5.8,0-10.5-4.7-10.5-10.5c0-5.8,4.7-10.5,10.5-10.5c5.8,0,10.5,4.7,10.5,10.5&#10;&#9;&#9;&#9;C236.8,850.7,232.1,855.4,226.3,855.4z" style="fill: rgb(255, 244, 193);" transform="matrix(0.8227534890174866, 0, 0, 0.6063734889030457, 963.1639948968952, 60.14049105450853)"/><path class="st22" d="M353.9,830.3c-8.1,0-14.7,6.6-14.7,14.7c0,8.1,6.6,14.7,14.7,14.7c8.1,0,14.7-6.6,14.7-14.7&#10;&#9;&#9;&#9;C368.6,836.8,362,830.3,353.9,830.3z M353.9,855.4c-5.8,0-10.5-4.7-10.5-10.5c0-5.8,4.7-10.5,10.5-10.5s10.5,4.7,10.5,10.5&#10;&#9;&#9;&#9;C364.4,850.7,359.7,855.4,353.9,855.4z" style="fill: rgb(255, 244, 193);" transform="matrix(0.8227534890174866, 0, 0, 0.6063734889030457, 963.1639948968952, 60.14049105450853)"/><path class="st21" d="M277.3,585.6h2.2v-61.5c-1.4,1.7-2.2,3.8-2.2,6.2V555v13.7V585.6z" style="fill: rgb(162, 159, 152);" transform="matrix(0.8227534890174866, 0, 0, 0.6063734889030457, 963.1639948968952, 60.14049105450853)"/><path class="st21" d="M283.5,585.6h3.7v-65.1h-0.1c-1.3,0-2.5,0.3-3.7,0.7V585.6z" style="fill: rgb(162, 159, 152);" transform="matrix(0.8227534890174866, 0, 0, 0.6063734889030457, 963.1639948968952, 60.14049105450853)"/><path class="st21" d="M291.1,585.6h3.7v-64.5c-1-0.4-2.2-0.6-3.3-0.6h-0.4V585.6z" style="fill: rgb(162, 159, 152);" transform="matrix(0.8227534890174866, 0, 0, 0.6063734889030457, 963.1639948968952, 60.14049105450853)"/><path class="st21" d="M298.8,585.6h2.6v-16.7v-13.8v-24.8c0-2.5-1-4.8-2.6-6.6V585.6z" style="fill: rgb(162, 159, 152);" transform="matrix(0.8227534890174866, 0, 0, 0.6063734889030457, 963.1639948968952, 60.14049105450853)"/><path class="st20" d="M279.5,585.6h3.9v-64.4c-1.6,0.6-2.9,1.7-3.9,2.9V585.6z" style="fill: rgb(75, 75, 80);" transform="matrix(0.8227534890174866, 0, 0, 0.6063734889030457, 963.1639948968952, 60.14049105450853)"/><path d="M 287.200012 520.5 H 291.100012 V 585.599998 H 287.200012 V 520.5 Z" class="st20" style="fill: rgb(75, 75, 80);" transform="matrix(0.8227534890174866, 0, 0, 0.6063734889030457, 963.1639948968952, 60.14049105450853)"/><path class="st20" d="M294.8,585.6h3.9v-61.9c-1.1-1.2-2.4-2.1-3.9-2.6V585.6z" style="fill: rgb(75, 75, 80);" transform="matrix(0.8227534890174866, 0, 0, 0.6063734889030457, 963.1639948968952, 60.14049105450853)"/>

<path class="st20" d="M298.6,712.8c-0.8-8.2-3.8-14.4-7.5-14.4s-6.7,6.2-7.5,14.4h-7.7c-0.5,2.6-1.1,5.2-1.6,7.9h9.3&#10;&#9;&#9;&#9;c0.8,8.2,3.8,14.4,7.5,14.4s6.7-6.2,7.5-14.4h7.4c-0.5-2.6-1.1-5.3-1.6-7.9H298.6z" style="fill: rgb(75, 75, 80);" transform="matrix(0.8227534890174866, 0, 0, 0.6063734889030457, 963.1639948968952, 60.14049105450853)"/><path class="st21" d="M346,720.7c-0.6-2.6-1.2-5.3-1.8-7.9c-8.5-36.2-16.3-69.1-19.7-83.4c-8.2,9.7-20.4,16-34,16.4&#10;&#9;&#9;&#9;c2.4,11.5,7.8,37.5,13.9,67.1c0.5,2.6,1.1,5.2,1.6,7.9c10.9,53,23.4,114.1,25.2,124.5c3.2,18.6,9.6,25.3,21.5,25.5&#10;&#9;&#9;&#9;c0.3,0,0.5,0,0.7,0c4.5,0,8.8-0.7,12.5-2.3c6.3-2.9,10.4-8.6,9.2-18.6C374,841.5,359.5,778.4,346,720.7z M353.9,859.6&#10;&#9;&#9;&#9;c-8.1,0-14.7-6.6-14.7-14.7c0-8.1,6.6-14.7,14.7-14.7c8.1,0,14.7,6.6,14.7,14.7C368.6,853,362,859.6,353.9,859.6z" style="fill: rgb(162, 159, 152);" transform="matrix(0.8227534890174866, 0, 0, 0.6063734889030457, 963.1639948968952, 60.14049105450853)"/></svg>