<?xml version="1.0" encoding="utf-8"?>
<svg id="master-artboard" viewBox="0 0 1400 980" version="1.1" xmlns="http://www.w3.org/2000/svg" x="0px" y="0px" style="enable-background:new 0 0 336 235.2;" width="1400px" height="980px"><rect id="ee-background" x="0" y="0" width="1400" height="980" style="fill: rgb(234, 247, 255); fill-opacity: 1; pointer-events: none;"/>

<path d="M 0 0 H 336 V 235.199997 H 0 V 0 Z" class="st0" style="fill: rgb(152, 184, 161); fill-opacity: 0;" transform="matrix(4.177751541137695, 0, 0, 4.177751541137695, -4.440185546875, -1.220062255859375)"/>
<g transform="matrix(3.384500411642228, 0, 0, 3.384500411642228, 102.01033907477826, 169.5706718993724)">
	<path class="st1" d="M238.5,136.2c0,1.2-1,2.2-2.2,2.2h-131c-1.2,0-2.2-1-2.2-2.2V61.8c0-1.2,1-2.2,2.2-2.2h131&#10;&#9;&#9;c1.2,0,2.2,1,2.2,2.2V136.2z" style="opacity: 0.15; fill: rgb(18, 16, 11);"/>
	<path class="st2" d="M235.7,133.4c0,1.2-1,2.2-2.2,2.2h-131c-1.2,0-2.2-1-2.2-2.2V59c0-1.2,1-2.2,2.2-2.2h131c1.2,0,2.2,1,2.2,2.2&#10;&#9;&#9;V133.4z" style="fill: rgb(242, 242, 243);"/>
	<path d="M 110.400002 63.799999 H 225.599998 V 111.299999 H 110.400002 V 63.799999 Z" class="st3" style="fill: rgb(216, 218, 216);"/>
	<path d="M 150.100006 114.400002 H 185.900005 V 132.800001 H 150.100006 V 114.400002 Z" class="st3" style="fill: rgb(216, 218, 216);"/>
	<g>
		<path d="M 114.599998 67.400002 H 121.199998 V 74.000001 H 114.599998 V 67.400002 Z" class="st4" style="fill: rgb(114, 120, 114);"/>
		<path d="M 123.5 67.400002 H 130.1 V 74.000001 H 123.5 V 67.400002 Z" class="st4" style="fill: rgb(114, 120, 114);"/>
		<path d="M 131.800003 67.400002 H 138.400003 V 74.000001 H 131.800003 V 67.400002 Z" class="st4" style="fill: rgb(114, 120, 114);"/>
		<path d="M 148.399994 67.400002 H 154.999994 V 74.000001 H 148.399994 V 67.400002 Z" class="st4" style="fill: rgb(114, 120, 114);"/>
		<path d="M 140.100006 67.400002 H 146.700006 V 74.000001 H 140.100006 V 67.400002 Z" class="st4" style="fill: rgb(114, 120, 114);"/>
		<path d="M 156.699997 67.400002 H 163.299997 V 74.000001 H 156.699997 V 67.400002 Z" class="st4" style="fill: rgb(114, 120, 114);"/>
		<path d="M 164.899994 67.400002 H 171.499994 V 74.000001 H 164.899994 V 67.400002 Z" class="st4" style="fill: rgb(114, 120, 114);"/>
		<path d="M 173.199997 67.400002 H 179.799997 V 74.000001 H 173.199997 V 67.400002 Z" class="st4" style="fill: rgb(114, 120, 114);"/>
		<path d="M 181.5 67.400002 H 188.1 V 74.000001 H 181.5 V 67.400002 Z" class="st4" style="fill: rgb(114, 120, 114);"/>
		<path d="M 189.800003 67.400002 H 196.400003 V 74.000001 H 189.800003 V 67.400002 Z" class="st4" style="fill: rgb(114, 120, 114);"/>
		<path d="M 198.100006 67.400002 H 204.700006 V 74.000001 H 198.100006 V 67.400002 Z" class="st4" style="fill: rgb(114, 120, 114);"/>
		<path d="M 128.100006 76 H 134.700006 V 82.6 H 128.100006 V 76 Z" class="st4" style="fill: rgb(114, 120, 114);"/>
		<path d="M 114.599998 76 H 126.499998 V 82.6 H 114.599998 V 76 Z" class="st4" style="fill: rgb(114, 120, 114);"/>
		<path d="M 136.399994 76 H 142.999994 V 82.6 H 136.399994 V 76 Z" class="st4" style="fill: rgb(114, 120, 114);"/>
		<path d="M 153 76 H 159.6 V 82.6 H 153 V 76 Z" class="st4" style="fill: rgb(114, 120, 114);"/>
		<path d="M 144.699997 76 H 151.299997 V 82.6 H 144.699997 V 76 Z" class="st4" style="fill: rgb(114, 120, 114);"/>
		<path d="M 161.300003 76 H 167.900003 V 82.6 H 161.300003 V 76 Z" class="st4" style="fill: rgb(114, 120, 114);"/>
		<path d="M 169.5 76 H 176.1 V 82.6 H 169.5 V 76 Z" class="st4" style="fill: rgb(114, 120, 114);"/>
		<path d="M 177.800003 76 H 184.400003 V 82.6 H 177.800003 V 76 Z" class="st4" style="fill: rgb(114, 120, 114);"/>
		<path d="M 186.100006 76 H 192.700006 V 82.6 H 186.100006 V 76 Z" class="st4" style="fill: rgb(114, 120, 114);"/>
		<path d="M 194.399994 76 H 200.999994 V 82.6 H 194.399994 V 76 Z" class="st4" style="fill: rgb(114, 120, 114);"/>
		<path d="M 131.699997 84.300003 H 138.299997 V 90.900003 H 131.699997 V 84.300003 Z" class="st4" style="fill: rgb(114, 120, 114);"/>
		<path d="M 114.599998 84.300003 H 129.599998 V 90.900003 H 114.599998 V 84.300003 Z" class="st4" style="fill: rgb(114, 120, 114);"/>
		<path d="M 140 84.300003 H 146.6 V 90.900003 H 140 V 84.300003 Z" class="st4" style="fill: rgb(114, 120, 114);"/>
		<path d="M 156.600006 84.300003 H 163.200006 V 90.900003 H 156.600006 V 84.300003 Z" class="st4" style="fill: rgb(114, 120, 114);"/>
		<path d="M 148.300003 84.300003 H 154.900003 V 90.900003 H 148.300003 V 84.300003 Z" class="st4" style="fill: rgb(114, 120, 114);"/>
		<path d="M 164.899994 84.300003 H 171.499994 V 90.900003 H 164.899994 V 84.300003 Z" class="st4" style="fill: rgb(114, 120, 114);"/>
		<path d="M 173.199997 84.300003 H 179.799997 V 90.900003 H 173.199997 V 84.300003 Z" class="st4" style="fill: rgb(114, 120, 114);"/>
		<path d="M 181.5 84.300003 H 188.1 V 90.900003 H 181.5 V 84.300003 Z" class="st4" style="fill: rgb(114, 120, 114);"/>
		<path d="M 189.800003 84.300003 H 196.400003 V 90.900003 H 189.800003 V 84.300003 Z" class="st4" style="fill: rgb(114, 120, 114);"/>
		<path d="M 135.199997 92.300003 H 141.799997 V 98.900003 H 135.199997 V 92.300003 Z" class="st4" style="fill: rgb(114, 120, 114);"/>
		<path d="M 114.599998 92.300003 H 133.699999 V 98.900003 H 114.599998 V 92.300003 Z" class="st4" style="fill: rgb(114, 120, 114);"/>
		<path d="M 143.5 92.300003 H 150.1 V 98.900003 H 143.5 V 92.300003 Z" class="st4" style="fill: rgb(114, 120, 114);"/>
		<path d="M 160.100006 92.300003 H 166.700006 V 98.900003 H 160.100006 V 92.300003 Z" class="st4" style="fill: rgb(114, 120, 114);"/>
		<path d="M 151.800003 92.300003 H 158.400003 V 98.900003 H 151.800003 V 92.300003 Z" class="st4" style="fill: rgb(114, 120, 114);"/>
		<path d="M 114.599998 100.800003 H 121.199998 V 107.400003 H 114.599998 V 100.800003 Z" class="st4" style="fill: rgb(114, 120, 114);"/>
		<path d="M 123.400002 100.800003 H 130.000001 V 107.400003 H 123.400002 V 100.800003 Z" class="st4" style="fill: rgb(114, 120, 114);"/>
		<path d="M 140 100.800003 H 146.6 V 107.400003 H 140 V 100.800003 Z" class="st4" style="fill: rgb(114, 120, 114);"/>
		<path d="M 149.199997 100.800003 H 186.999996 V 107.400003 H 149.199997 V 100.800003 Z" class="st4" style="fill: rgb(114, 120, 114);"/>
		<path d="M 131.699997 100.800003 H 138.299997 V 107.400003 H 131.699997 V 100.800003 Z" class="st4" style="fill: rgb(114, 120, 114);"/>
		<path d="M 168.399994 92.300003 H 174.999994 V 98.900003 H 168.399994 V 92.300003 Z" class="st4" style="fill: rgb(114, 120, 114);"/>
		<path d="M 176.699997 92.300003 H 183.299997 V 98.900003 H 176.699997 V 92.300003 Z" class="st4" style="fill: rgb(114, 120, 114);"/>
		<path d="M 185 92.300003 H 191.6 V 98.900003 H 185 V 92.300003 Z" class="st4" style="fill: rgb(114, 120, 114);"/>
		<path d="M 193.300003 92.300003 H 199.900003 V 98.900003 H 193.300003 V 92.300003 Z" class="st4" style="fill: rgb(114, 120, 114);"/>
		<path d="M 189.100006 100.800003 H 195.700006 V 107.400003 H 189.100006 V 100.800003 Z" class="st4" style="fill: rgb(114, 120, 114);"/>
		<path d="M 197.399994 100.800003 H 203.999994 V 107.400003 H 197.399994 V 100.800003 Z" class="st4" style="fill: rgb(114, 120, 114);"/>
		<path d="M 205.699997 100.800003 H 212.299997 V 107.400003 H 205.699997 V 100.800003 Z" class="st4" style="fill: rgb(114, 120, 114);"/>
		<path d="M 214.699997 100.800003 H 221.299997 V 107.400003 H 214.699997 V 100.800003 Z" class="st4" style="fill: rgb(114, 120, 114);"/>
		<path d="M 202.100006 92.300003 H 221.400005 V 98.900003 H 202.100006 V 92.300003 Z" class="st4" style="fill: rgb(114, 120, 114);"/>
		<path d="M 198.100006 84.300003 H 204.700006 V 90.900003 H 198.100006 V 84.300003 Z" class="st4" style="fill: rgb(114, 120, 114);"/>
		<path d="M 206.199997 84.300003 H 221.399997 V 90.900003 H 206.199997 V 84.300003 Z" class="st4" style="fill: rgb(114, 120, 114);"/>
		<path d="M 202.699997 76 H 209.299997 V 82.6 H 202.699997 V 76 Z" class="st4" style="fill: rgb(114, 120, 114);"/>
		<path d="M 211.300003 76 H 221.400003 V 82.6 H 211.300003 V 76 Z" class="st4" style="fill: rgb(114, 120, 114);"/>
		<path d="M 206.399994 67.400002 H 212.999994 V 74.000001 H 206.399994 V 67.400002 Z" class="st4" style="fill: rgb(114, 120, 114);"/>
		<path d="M 214.699997 67.400002 H 221.299997 V 74.000001 H 214.699997 V 67.400002 Z" class="st4" style="fill: rgb(114, 120, 114);"/>
	</g>
	<path d="M 74.800003 9.2 H 261.100006 V 11.9 H 74.800003 V 9.2 Z" class="st3" style="fill: rgb(216, 218, 216);"/>
	<path d="M 235.1999969482422 56.900001525878906 L 100.69999694824219 56.900001525878906 L 74.80000305175781 11.899999618530273 L 261.20001220703125 11.899999618530273 Z" class="st4" style="fill: rgb(114, 120, 114);"/>
	<path d="M 228.10000610351562 54.29999923706055 L 107.9000015258789 54.29999923706055 L 89.0999984741211 18.100000381469727 L 246.89999389648438 18.100000381469727 Z" class="st2" style="fill: rgb(242, 242, 243);"/>
</g>
<g transform="matrix(4.177751541137695, 0, 0, 4.177751541137695, -11.760760145894665, -51.24398868249382)">
	<path class="st1" d="M93.4,201.3c0.3,1.2-0.5,2.4-1.6,2.6l-29.9,6.9c-1.2,0.3-2.4-0.5-2.6-1.6l-11-48c-0.3-1.2,0.5-2.4,1.6-2.6&#10;&#9;&#9;l29.9-6.9c1.2-0.3,2.4,0.5,2.6,1.6L93.4,201.3z" style="opacity: 0.15; fill: rgb(18, 16, 11);"/>
	<path class="st2" d="M89.8,199.4c0.3,1.2-0.5,2.4-1.6,2.6l-29.9,6.9c-1.2,0.3-2.4-0.5-2.6-1.6l-11-48c-0.3-1.2,0.5-2.4,1.6-2.6&#10;&#9;&#9;l29.9-6.9c1.2-0.3,2.4,0.5,2.6,1.6L89.8,199.4z" style="fill: rgb(242, 242, 243);"/>
	
		<path d="M 52.200001 157.100006 H 80.400002 V 193.700005 H 52.200001 V 157.100006 Z" transform="matrix(0.9746 -0.2241 0.2241 0.9746 -37.6379 19.3189)" class="st4" style="fill: rgb(114, 120, 114);"/>
	<path d="M 75.500003 199.5 A 3.7 3.7 0 0 1 71.800003 203.2 A 3.7 3.7 0 0 1 68.100003 199.5 A 3.7 3.7 0 0 1 71.800003 195.8 A 3.7 3.7 0 0 1 75.500003 199.5 Z" class="st3" style="fill: rgb(216, 218, 216);"/>
</g>

<g transform="matrix(4.177751541137695, 0, 0, 4.177751541137695, -11.760760013851836, 142.75123584441604)">
	<path class="st1" d="M306.4,93c-0.3,1-1.4,1.6-2.4,1.2L258.5,80c-1-0.3-1.6-1.4-1.2-2.4l18-57.5c0.3-1,1.4-1.6,2.4-1.2l45.5,14.3&#10;&#9;&#9;c1,0.3,1.6,1.4,1.2,2.4L306.4,93z" style="opacity: 0.15; fill: rgb(18, 16, 11);"/>
	<path class="st2" d="M304,90.6c-0.3,1-1.4,1.6-2.4,1.2l-45.5-14.3c-1-0.3-1.6-1.4-1.2-2.4l18-57.5c0.3-1,1.4-1.6,2.4-1.2l45.5,14.3&#10;&#9;&#9;c1,0.3,1.6,1.4,1.2,2.4L304,90.6z" style="fill: rgb(242, 242, 243);"/>
	
		<path d="M 267 26.5 H 311.099998 V 78.200001 H 267 V 26.5 Z" transform="matrix(0.9541 0.2995 -0.2995 0.9541 28.9487 -84.1513)" class="st4" style="fill: rgb(114, 120, 114);"/>
	<path d="M 282.000006 81 A 1.9 1.9 0 0 1 280.100006 82.9 A 1.9 1.9 0 0 1 278.200006 81 A 1.9 1.9 0 0 1 280.100006 79.1 A 1.9 1.9 0 0 1 282.000006 81 Z" class="st3" style="fill: rgb(216, 218, 216);"/>
</g>

<g transform="matrix(4.177751541137695, 0, 0, 4.177751541137695, -4.440185546875, -1.220062255859375)">
	<path class="st1" d="M37.7,132.1c0,0,8.9,7.3,13.1,7.3c4.2,0,16.7-4.4,17.2-6c0.5-1.6-2.6-13.8-4.1-15.4c-1.4-1.6,2.3-4.9,2.5-6&#10;&#9;&#9;c0.2-1.1-8.5-14.2-8.5-14.2S47.7,96.5,44,98.3c-3.7,1.9-9,8-9.2,10C34.6,110.4,34,127.6,37.7,132.1z" style="opacity: 0.15; fill: rgb(18, 16, 11);"/>
	
		<path d="M 27.299999 89.900002 H 53.699999 V 109.600002 H 27.299999 V 89.900002 Z" transform="matrix(0.5423 0.8402 -0.8402 0.5423 102.3319 11.6379)" class="st4" style="fill: rgb(114, 120, 114);"/>
	<path d="M 32.900002 93 H 59.300001 V 99.4 H 32.900002 V 93 Z" transform="matrix(0.5423 0.8402 -0.8402 0.5423 101.8556 5.2819)" class="st11" style="fill: rgb(80, 90, 80);"/>
	<path d="M 16.1 95 H 46.800001 V 116.1 H 16.1 V 95 Z" transform="matrix(0.5423 0.8402 -0.8402 0.5423 103.0984 21.941)" class="st4" style="fill: rgb(114, 120, 114);"/>
	<path class="st4" d="M53,108.8c-0.6,0.4-1.3,0.2-1.7-0.4L37.1,86.2c-0.4-0.6-0.2-1.3,0.4-1.7l7.4-4.8c0.6-0.4,1.3-0.2,1.7,0.4&#10;&#9;&#9;l14.3,22.2c0.4,0.6,0.2,1.3-0.4,1.7L53,108.8z" style="fill: rgb(114, 120, 114);"/>
	<path class="st2" d="M39,131.8c-0.7,0.4-1.6,0.2-2-0.4L10.2,89.9c-0.4-0.7-0.2-1.6,0.4-2l11.9-7.7c0.7-0.4,1.6-0.2,2,0.4l26.8,41.5&#10;&#9;&#9;c0.4,0.7,0.2,1.6-0.4,2L39,131.8z" style="fill: rgb(242, 242, 243);"/>
	<path d="M 40.3 126.300003 A 4.3 4.3 0 0 1 36 130.600003 A 4.3 4.3 0 0 1 31.7 126.300003 A 4.3 4.3 0 0 1 36 122.000003 A 4.3 4.3 0 0 1 40.3 126.300003 Z" class="st3" style="fill: rgb(216, 218, 216);"/>
	<path d="M 48.099998 121.199997 A 2 2 0 0 1 46.099998 123.199997 A 2 2 0 0 1 44.099998 121.199997 A 2 2 0 0 1 46.099998 119.199997 A 2 2 0 0 1 48.099998 121.199997 Z" class="st12" style="fill: rgb(184, 189, 186);"/>
	<path d="M 9.6 93.699997 H 24.5 V 96.299997 H 9.6 V 93.699997 Z" transform="matrix(0.5423 0.8402 -0.8402 0.5423 87.5901 29.1038)" class="st4" style="fill: rgb(114, 120, 114);"/>
	<path d="M 26 99.400002 H 35 V 113.100001 H 26 V 99.400002 Z" transform="matrix(0.5424 0.8401 -0.8401 0.5424 103.1709 22.9859)" class="st4" style="fill: rgb(114, 120, 114);"/>
	<g>
		<path d="M 35.700001 87.300003 H 36.000001 V 91.100003 H 35.700001 V 87.300003 Z" transform="matrix(0.5426 0.84 -0.84 0.5426 91.305 10.6753)" class="st11" style="fill: rgb(80, 90, 80);"/>
		
			<path d="M 36.700001 88.699997 H 37.000001 V 92.499997 H 36.700001 V 88.699997 Z" transform="matrix(0.5424 0.8401 -0.8401 0.5424 92.9956 10.5632)" class="st11" style="fill: rgb(80, 90, 80);"/>
		
			<path d="M 37.599998 90.199997 H 37.899998 V 93.999997 H 37.599998 V 90.199997 Z" transform="matrix(0.5424 0.8401 -0.8401 0.5424 94.6712 10.4769)" class="st11" style="fill: rgb(80, 90, 80);"/>
		
			<path d="M 38.5 91.699997 H 38.8 V 95.499997 H 38.5 V 91.699997 Z" transform="matrix(0.5416 0.8407 -0.8407 0.5416 96.4267 10.4461)" class="st11" style="fill: rgb(80, 90, 80);"/>
		
			<path d="M 39.400002 93.199997 H 39.700002 V 96.999997 H 39.400002 V 93.199997 Z" transform="matrix(0.5409 0.8411 -0.8411 0.5409 98.162 10.3651)" class="st11" style="fill: rgb(80, 90, 80);"/>
		
			<path d="M 40.400002 94.699997 H 40.700002 V 98.499997 H 40.400002 V 94.699997 Z" transform="matrix(0.5404 0.8414 -0.8414 0.5404 99.895 10.2809)" class="st11" style="fill: rgb(80, 90, 80);"/>
		
			<path d="M 41.400002 96.099998 H 41.700002 V 99.899998 H 41.400002 V 96.099998 Z" transform="matrix(0.5418 0.8405 -0.8405 0.5418 101.4221 10.0197)" class="st11" style="fill: rgb(80, 90, 80);"/>
		
			<path d="M 42.299999 97.599998 H 42.599999 V 101.399998 H 42.299999 V 97.599998 Z" transform="matrix(0.5432 0.8396 -0.8396 0.5432 102.9425 9.7927)" class="st11" style="fill: rgb(80, 90, 80);"/>
		
			<path d="M 43.299999 99.099998 H 43.599999 V 102.899998 H 43.299999 V 99.099998 Z" transform="matrix(0.5401 0.8416 -0.8416 0.5401 104.9482 9.8925)" class="st11" style="fill: rgb(80, 90, 80);"/>
		
			<path d="M 44.200001 100.5 H 44.500001 V 104.3 H 44.200001 V 100.5 Z" transform="matrix(0.5391 0.8422 -0.8422 0.5391 106.7351 9.8438)" class="st11" style="fill: rgb(80, 90, 80);"/>
		
			<path d="M 45.200001 102 H 45.500001 V 105.8 H 45.200001 V 102 Z" transform="matrix(0.5436 0.8393 -0.8393 0.5436 107.9084 9.3855)" class="st11" style="fill: rgb(80, 90, 80);"/>
		
			<path d="M 46.099998 103.5 H 46.399998 V 107.3 H 46.099998 V 103.5 Z" transform="matrix(0.5435 0.8394 -0.8394 0.5435 109.5935 9.2699)" class="st11" style="fill: rgb(80, 90, 80);"/>
		
			<path d="M 47.099998 104.900002 H 47.399998 V 108.700001 H 47.099998 V 104.900002 Z" transform="matrix(0.5404 0.8414 -0.8414 0.5404 111.6252 9.382)" class="st11" style="fill: rgb(80, 90, 80);"/>
		
			<path d="M 48 106.400002 H 48.3 V 110.200001 H 48 V 106.400002 Z" transform="matrix(0.5432 0.8396 -0.8396 0.5432 112.9715 9.0427)" class="st11" style="fill: rgb(80, 90, 80);"/>
	</g>
</g>
<g transform="matrix(4.177751541137695, 0, 0, 4.177751541137695, -4.440185546875, -1.220062255859375)">
	<g class="st7" style="opacity: 0.15;">
		<path d="M 83.5 102.5 H 90.7 V 109.9 H 83.5 V 102.5 Z" class="st8" style="fill: rgb(18, 16, 11);"/>
		<path d="M 82.900002 133.899994 H 91.300001 V 134.999994 H 82.900002 V 133.899994 Z" class="st8" style="fill: rgb(18, 16, 11);"/>
		<path d="M 81.900002 108.099998 H 92.500002 V 134.199999 H 81.900002 V 108.099998 Z" class="st8" style="fill: rgb(18, 16, 11);"/>
	</g>
	<path d="M 81.099998 100.099998 H 88.299998 V 107.499999 H 81.099998 V 100.099998 Z" class="st2" style="fill: rgb(242, 242, 243);"/>
	<path d="M 80.5 131.5 H 88.9 V 132.6 H 80.5 V 131.5 Z" class="st4" style="fill: rgb(114, 120, 114);"/>
	<path d="M 79.5 105.699997 H 90.1 V 131.799997 H 79.5 V 105.699997 Z" class="st13" style="fill: rgb(233, 78, 80);"/>
	<path d="M 84.199997 105.699997 H 85.299997 V 131.799997 H 84.199997 V 105.699997 Z" class="st2" style="fill: rgb(242, 242, 243);"/>
	<g>
		<path d="M 82.300003 102.199997 H 83.700003 V 103.599997 H 82.300003 V 102.199997 Z" class="st3" style="fill: rgb(216, 218, 216);"/>
		<path d="M 85.699997 102.199997 H 87.099997 V 103.599997 H 85.699997 V 102.199997 Z" class="st3" style="fill: rgb(216, 218, 216);"/>
	</g>
	<g class="st7" style="opacity: 0.15;">
		<g>
			<path d="M 71.400002 88.400002 H 82.000002 V 94.800002 H 71.400002 V 88.400002 Z" transform="matrix(0.8216 -0.57 0.57 0.8216 -38.4934 60.0561)" class="st8" style="fill: rgb(18, 16, 11);"/>
			<path class="st8" d="M79.2,85.9c1.7,2.4-0.5,3.4-2.9,5.1c-2.4,1.7-4.1,3.3-5.8,0.9c-1.7-2.4-1.1-5.7,1.3-7.3&#10;&#9;&#9;&#9;&#9;C74.3,82.9,77.6,83.5,79.2,85.9z" style="fill: rgb(18, 16, 11);"/>
		</g>
		<path class="st8" d="M71.4,84.9l6.6,9.6l0.9-0.6l-6.6-9.6c-0.2,0.1-0.3,0.2-0.5,0.3C71.7,84.7,71.6,84.8,71.4,84.9z" style="fill: rgb(18, 16, 11);"/>
	</g>
	<g>
		<path d="M 69 86 H 79.6 V 92.4 H 69 V 86 Z" transform="matrix(0.8216 -0.57 0.57 0.8216 -37.5549 58.2653)" class="st13" style="fill: rgb(233, 78, 80);"/>
		<path class="st13" d="M76.8,83.5c1.7,2.4-0.5,3.4-2.9,5.1c-2.4,1.7-4.1,3.3-5.8,0.9c-1.7-2.4-1.1-5.7,1.3-7.3&#10;&#9;&#9;&#9;C71.9,80.5,75.2,81.1,76.8,83.5z" style="fill: rgb(233, 78, 80);"/>
	</g>
	<path class="st2" d="M69,82.5l6.6,9.6l0.9-0.6L70,81.9c-0.2,0.1-0.3,0.2-0.5,0.3C69.3,82.3,69.2,82.4,69,82.5z" style="fill: rgb(242, 242, 243);"/>
</g>
<g transform="matrix(4.177751541137695, 0, 0, 4.177751541137695, -17.86123956533146, 111.0287520774245)">
	
		<path d="M 289.399994 115.400002 H 326.599995 V 152.600002 H 289.399994 V 115.400002 Z" transform="matrix(0.8111 0.5849 -0.5849 0.8111 136.5859 -154.8305)" class="st1" style="opacity: 0.15; fill: rgb(18, 16, 11);"/>
	
		<path d="M 287.899994 114 H 325.099995 V 151.200001 H 287.899994 V 114 Z" transform="matrix(0.8111 0.5849 -0.5849 0.8111 135.4724 -154.2613)" class="st14" style="fill: rgb(255, 255, 255);"/>
	
		<path d="M 292.5 117.699997 H 323.9 V 142.799997 H 292.5 V 117.699997 Z" transform="matrix(0.8111 0.5849 -0.5849 0.8111 134.3985 -155.714)" class="st15" style="fill: rgb(169, 201, 69);"/>
	
		<path d="M 254.5 102.099998 H 291.700001 V 139.299999 H 254.5 V 102.099998 Z" transform="matrix(0.8661 -0.4999 0.4999 0.8661 -23.7774 152.6721)" class="st1" style="opacity: 0.15; fill: rgb(18, 16, 11);"/>
	
		<path d="M 253 100.699997 H 290.200001 V 137.899998 H 253 V 100.699997 Z" transform="matrix(0.8661 -0.4999 0.4999 0.8661 -23.2513 151.7527)" class="st14" style="fill: rgb(255, 255, 255);"/>
	
		<path d="M 254.399994 104.199997 H 285.799994 V 129.299997 H 254.399994 V 104.199997 Z" transform="matrix(0.8661 -0.4999 0.4999 0.8661 -22.1755 150.673)" class="st9" style="fill: rgb(248, 177, 35);"/>
</g>
<g transform="matrix(4.177751541137695, 0, 0, 4.177751541137695, 26.062208615706993, -117.12916007367087)">
	<g class="st7" style="opacity: 0.15;">
		<path class="st8" d="M243.3,176.3c-0.8,0.9-2.2,1.1-3.1,0.3l-3.2-2.7c-0.9-0.8-1.1-2.2-0.3-3.1l6.2-7.5c0.8-0.9,2.2-1.1,3.1-0.3&#10;&#9;&#9;&#9;l3.2,2.7c0.9,0.8,1.1,2.2,0.3,3.1L243.3,176.3z" style="fill: rgb(18, 16, 11);"/>
		<g>
			<path d="M 215.8000030517578 195.89999389648438 L 212.60000610351562 206.5 L 222.39999389648438 201.39999389648438 Z" class="st8" style="fill: rgb(18, 16, 11);"/>
			<path d="M 213.3000030517578 204 L 212.60000610351562 206.5 L 215.60000610351562 205 Z" class="st8" style="fill: rgb(18, 16, 11);"/>
		</g>
		
			<path d="M 226.5 166.199997 H 235.1 V 202.899998 H 226.5 V 166.199997 Z" transform="matrix(0.7688 0.6395 -0.6395 0.7688 171.4008 -104.9411)" class="st8" style="fill: rgb(18, 16, 11);"/>
		
			<path d="M 229.100006 166.199997 H 232.500006 V 202.899998 H 229.100006 V 166.199997 Z" transform="matrix(0.7687 0.6397 -0.6397 0.7687 171.46 -104.953)" class="st8" style="fill: rgb(18, 16, 11);"/>
		
			<path d="M 238.5 168 H 248 V 171.4 H 238.5 V 168 Z" transform="matrix(0.7687 0.6396 -0.6396 0.7687 164.7693 -116.3091)" class="st8" style="fill: rgb(18, 16, 11);"/>
	</g>
	<path class="st16" d="M240.9,173.9c-0.8,0.9-2.2,1.1-3.1,0.3l-3.2-2.7c-0.9-0.8-1.1-2.2-0.3-3.1l6.2-7.5c0.8-0.9,2.2-1.1,3.1-0.3&#10;&#9;&#9;l3.2,2.7c0.9,0.8,1.1,2.2,0.3,3.1L240.9,173.9z" style="fill: rgb(255, 239, 190);"/>
	<g>
		<path d="M 213.39999389648438 193.5 L 210.1999969482422 204.10000610351562 L 220 199 Z" class="st17" style="fill: rgb(253, 209, 119);"/>
		<path d="M 210.89999389648438 201.60000610351562 L 210.1999969482422 204.10000610351562 L 213.1999969482422 202.60000610351562 Z" class="st18" style="fill: rgb(84, 78, 74);"/>
	</g>
	
		<path d="M 224.100006 163.800003 H 232.700006 V 200.500004 H 224.100006 V 163.800003 Z" transform="matrix(0.7688 0.6394 -0.6394 0.7688 169.2858 -103.9563)" class="st13" style="fill: rgb(233, 78, 80);"/>
	
		<path d="M 226.699997 163.800003 H 230.099997 V 200.500004 H 226.699997 V 163.800003 Z" transform="matrix(0.7687 0.6396 -0.6396 0.7687 169.3581 -103.9708)" class="st19" style="fill: rgb(200, 49, 47);"/>
	
		<path d="M 236.100006 165.600006 H 245.600006 V 169.000006 H 236.100006 V 165.600006 Z" transform="matrix(0.7688 0.6395 -0.6395 0.7688 162.6704 -115.3269)" class="st20" style="fill: rgb(107, 95, 87);"/>
</g>


<g transform="matrix(4.177751541137695, 0, 0, 4.177751541137695, 874.0287663354859, -318.44496154671197)">
	<g class="st7" style="opacity: 0.15;">
		<path class="st8" d="M37,198.6c-0.2,0.6-1.1,0.9-2,0.6l-11.9-3.5c-0.9-0.3-1.5-1-1.4-1.7l2.7-9c0.2-0.6,1.1-0.9,2-0.6l11.9,3.5&#10;&#9;&#9;&#9;c0.9,0.3,1.5,1,1.4,1.7L37,198.6z" style="fill: rgb(18, 16, 11);"/>
		
			<path d="M 18.6 190.399994 H 36.200001 V 215.499994 H 18.6 V 190.399994 Z" transform="matrix(0.9589 0.2836 -0.2836 0.9589 58.6885 0.5551)" class="st8" style="fill: rgb(18, 16, 11);"/>
	</g>
	<path class="st2" d="M34.6,196.2c-0.2,0.6-1.1,0.9-2,0.6l-11.9-3.5c-0.9-0.3-1.5-1-1.4-1.7l2.7-9c0.2-0.6,1.1-0.9,2-0.6l11.9,3.5&#10;&#9;&#9;c0.9,0.3,1.5,1,1.4,1.7L34.6,196.2z" style="fill: rgb(242, 242, 243);"/>
	<path d="M 16.200001 188 H 33.800001 V 213.1 H 16.200001 V 188 Z" transform="matrix(0.959 0.2835 -0.2835 0.959 57.8889 1.1338)" class="st26" style="fill: rgb(87, 122, 157);"/>
</g>
</svg>