<?xml version="1.0" encoding="utf-8"?>
<svg id="master-artboard" viewBox="0 0 1400 980" version="1.1" xmlns="http://www.w3.org/2000/svg" x="0px" y="0px" enable-background="new 0 0 1400 980" width="1400px" height="980px"><rect id="ee-background" x="0" y="0" width="1400" height="980" style="fill: rgb(234, 247, 255); fill-opacity: 1; pointer-events: none;"/>
<path fill="#7DA4EC" d="M537.8,109.1c2.6,0.8,5.3,0.9,8,1.4c26.3,5,47.5,26.6,52.1,53c0.2,1.2,0.4,2.4,0.6,3.6&#10;&#9;&#9;c0.1,0.6,0.5,0.8,1,0.5c0.4-0.2,0.8-0.5,1.2-0.7c23.6-14.4,55-1.7,60.8,26.8c0.4,2,0.7,4.1,0.7,6.2c0,2.7,0,2.7,2.4,1.7&#10;&#9;&#9;c4.4-1.8,8.9-2.1,13.4-1c11,2.7,17.9,13.8,15.3,24.9c-0.1,0.2-0.1,0.5-0.2,0.7c-0.4,1.3-1.1,1.8-2,1.5c-1.1-0.4-1.2-1.2-0.9-2.1&#10;&#9;&#9;c0.6-2.2,0.7-4.4,0.5-6.7c-1.5-13.2-16.4-20.2-27.6-12.9c-0.6,0.4-1.1,0.9-1.8,1.2c-1.2,0.6-2.3,0-2.3-1.4c0-1.3,0.2-2.5,0.2-3.8&#10;&#9;&#9;c0-19.5-14.2-35.6-33.7-37.6c-9.4-1-18.1,1.5-25.8,7.1c-3,2.2-3.6,2-4-1.6c-1.3-12-5.4-22.8-12.8-32.4&#10;&#9;&#9;c-10.5-13.6-24.3-21.8-41.4-24.1c-20.5-2.7-38.3,3.2-53.1,17.6c-10.7,10.5-17,23.4-18.4,38.3c-2,22.1,5.7,40.4,22.4,55&#10;&#9;&#9;c0.4,0.4,0.9,0.7,1.3,1.1c0.5,0.5,0.5,1.2,0.1,1.8c-0.5,0.7-1.2,0.9-1.9,0.5c-0.6-0.3-1.1-0.7-1.5-1.1&#10;&#9;&#9;c-13.3-11.4-21.3-25.6-23.2-43c-2.3-21,4-39.2,18.7-54.3c10.9-11.2,24.3-17.4,39.8-19.2c0.7-0.1,1.5,0.1,2-0.5&#10;&#9;&#9;C531,109.1,534.4,109.1,537.8,109.1z" transform="matrix(1, 0, 0, 1, 1.4210854715202004e-14, 7.105427357601002e-15)"/><path fill="#ACDCF6" d="M1093.6,233c-2.3,0.3-2.5,0.2-2.6-2.1c-0.3-6.5-1.5-12.9-4.4-18.8c-7.4-15.2-19.5-24.3-36.2-26.7&#10;&#9;&#9;c-24.3-3.5-46.8,12.7-52,36.3c-0.7,3.1-1,6.3-1.1,9.5c0,0.8,0,1.6-1.1,1.9c-0.9,0.2-1.5-0.3-1.9-1.1c-2.7-4.3-6.4-7.5-11.2-9.3&#10;&#9;&#9;c-14-5.4-29.4,4.5-30.4,19.5c0,0.6,0,1.1-0.1,1.7c-0.1,0.8-0.7,1.2-1.5,1.2c-0.8,0-1.4-0.5-1.4-1.3c0-1.3,0-2.6,0.2-3.8&#10;&#9;&#9;c1.8-11.9,11.5-21.5,25.1-21.7c6.6-0.1,12.5,2.3,17.5,6.8c0.2,0.2,0.4,0.5,0.7,0.7c0.4,0.3,0.6,1.1,1.3,0.8&#10;&#9;&#9;c0.5-0.2,0.3-0.9,0.4-1.3c3-22.1,20.1-39.5,42-42.7c26.2-3.8,50.5,12.9,56.1,38.6c0.3,1.4-0.1,2.9,0.8,4.2&#10;&#9;&#9;C1093.6,227.9,1093.6,230.4,1093.6,233z" transform="matrix(1, 0, 0, 1, 1.4210854715202004e-14, 7.105427357601002e-15)"/><path fill="#ACDCF6" d="M306.4,232.5c0.7-0.6,0.7-1.6,0.9-2.4c2.8-15.8,15-28,30.7-30.6c19.8-3.3,38.6,9.6,42.7,29.4&#10;&#9;&#9;c0.1,0.4,0.1,0.8,0.2,1.2c0.1,0.8,0.6,0.9,1.2,0.5c0.4-0.2,0.7-0.4,1.1-0.6c13.7-6.7,29.6,1,32.8,16c0.2,0.8,0.3,1.6,0.4,2.4&#10;&#9;&#9;c0.2,1.7,0.2,1.7,2,1.3c10.3-2.6,17.2,6.5,15.4,14.2c-0.1,0.5-0.2,0.9-0.4,1.3c-0.3,0.5-0.8,0.8-1.4,0.7c-0.7-0.1-1.2-0.5-1.2-1.3&#10;&#9;&#9;c0-0.6,0.1-1.3,0.2-1.9c0.4-3.9-1-6.9-4.2-9c-3.2-2.1-6.5-2-9.7-0.1c-0.9,0.5-1.6,1.5-2.8,0.8c-1.1-0.7-0.7-1.9-0.6-2.9&#10;&#9;&#9;c0.5-9.8-6.7-19.1-17.2-20.7c-4.9-0.7-9.4,0.4-13.5,3c-0.5,0.3-0.9,0.6-1.4,1c-1.8,1.2-2.7,0.8-3-1.4c-1.2-10.6-6-19.1-14.8-25.2&#10;&#9;&#9;c-20.9-14.5-49.8-1.7-53.4,23.5c-0.2,1.3-0.3,2.7-0.4,4.1c-0.1,2.1-0.6,2.5-2.7,1.8c-0.2-0.1-0.5,0-0.7-0.1&#10;&#9;&#9;C306.4,235.7,306.4,234.1,306.4,232.5z" transform="matrix(1, 0, 0, 1, 1.4210854715202004e-14, 7.105427357601002e-15)"/><path fill="#EBBE62" d="M536.3,874.7c-0.4-0.5-1.1-0.5-1.7-0.8c-2.1-1.3-3.1-3.7-2.5-6.2c0.6-2.2,2.7-3.9,5.1-4&#10;&#9;&#9;c2.5-0.1,4.6,1.3,5.3,3.6c0.8,2.4,0,4.9-2,6.3c-0.6,0.4-1.4,0.4-1.8,1.1C537.9,874.7,537.1,874.7,536.3,874.7z M539.9,869.1&#10;&#9;&#9;c0-1.3-1.2-2.4-2.4-2.5c-1.3-0.1-2.6,1.2-2.6,2.5c0,1.3,1.1,2.4,2.4,2.5C538.7,871.7,539.9,870.5,539.9,869.1z" transform="matrix(1, 0, 0, 1, 1.4210854715202004e-14, 7.105427357601002e-15)"/><path fill="#151D38" d="M682.5,508.1c1.1,0.6,1.6-0.4,2.2-0.8c5.7-4.2,11.4-8.5,17.1-12.8c20.9-15.8,41.9-31.6,62.8-47.4&#10;&#9;&#9;c7.5-5.7,15.1-11.4,22.6-17c0.5-0.4,1-0.8,1.5-1.1c1.4-1,1.9-0.9,3,0.4c1.8,2.2,1.8,2.2,4.1,0.4c11.5-8.8,23-17.6,34.4-26.5&#10;&#9;&#9;c0.4-0.3,0.8-0.6,1.1-0.9c0.5-0.4,0.5-0.8,0.3-1.4c-1.5-3.9-1.1-5.5,2-8.2c0.6-0.5,0.7-1,0.7-1.6c0.2-1.9,1.1-3.6,2.8-4.5&#10;&#9;&#9;c1.2-0.6,1.4-1.4,1.5-2.6c0.1-6.2,4.2-11,10.3-12.1c4.3-0.8,8.2,0.6,11.6,3.3c1.2,1,1.7,2.2,1.4,3.8c-2,11.7-3.9,23.3-5.8,35&#10;&#9;&#9;c-0.2,1.3-0.8,2.3-1.9,3.2c-3.3,2.5-6.4,5.1-9.7,7.5c-1,0.7-1.5,1.6-1.6,2.8c-0.5,3.1-1.1,6.1-1.6,9.2c-0.6,3.8-2.5,6.7-6,8.5&#10;&#9;&#9;c-4.6,2.2-9.9,0.7-12.9-3.7c-1-1.5-1-1.5-2.4-0.5c-3.8,2.8-7.5,5.7-11.3,8.6c-1,0.8-1.1,1.4-0.3,2.3c0.3,0.3,0.6,0.8,0.9,1.2&#10;&#9;&#9;c0.6,0.9,0.4,1.7-0.3,2.3c-0.4,0.4-0.9,0.7-1.3,1c-28.6,21.5-57.1,43-85.7,64.5c-11,8.3-22,16.5-33,24.8c-1.8,1.3-1.8,1.3-0.8,3.2&#10;&#9;&#9;c3.5,6.6,7,13.3,10.5,19.9c2.3,4.4,1.5,7.3-2.6,9.9c-12,7.5-24,15-36,22.4c-1.3,0.8-2.6,1.6-4.2,1.6c-2.5,0.1-4.6-0.8-5.8-3.1&#10;&#9;&#9;c-0.6-1.2-1.3-1.6-2.6-1.5c-2,0.2-2.3-0.2-2.4-2.3c-0.2-3.5-0.4-7-0.7-10.5c0-0.6-0.1-1.3-0.3-1.9c-0.1-0.3-0.3-0.5-0.7-0.5&#10;&#9;&#9;c-0.4,0-0.8,0.1-0.9,0.6c-0.2,0.9-0.3,1.7-0.3,2.6c-0.2,3.3-0.4,6.5-0.6,9.8c-0.1,2.1-0.4,2.4-2.4,2.3c-1.2-0.1-1.8,0.2-2.4,1.3&#10;&#9;&#9;c-1.8,3.3-5.3,4.3-8.6,2.5c-2.6-1.3-5.2-2.8-7.8-4.3c-1.1-0.6-1.6-0.5-2.3,0.6c-5.4,8.4-8.7,17.6-10,27.5&#10;&#9;&#9;c-1.4,11,0.6,21.4,4.1,31.8c4.1,12.2,7.9,24.5,11.9,36.7c0.4,1.3,0.9,2.6-0.8,3.5c-0.6,0.3-0.1,0.8,0.2,1.2c1.4,1.5,2.8,3,4.3,4.5&#10;&#9;&#9;c2.1,2.2,4.2,4.4,6.3,6.6c0.6,0.6,1.3,1.2,2.1,1.6c5.7,3,7.4,9.1,4.1,14.6c-0.1,0.2-0.3,0.4-0.4,0.6c-0.5,0.8-0.1,1,0.6,1&#10;&#9;&#9;c0.6,0,1.1,0,1.7,0c4.9,0,9.8,0.1,14.6,0c5.4-0.2,10.7,3.9,10.6,10.7c-0.1,30.1-0.1,60.2,0,90.2c0,6.8-5,11-10.9,10.9&#10;&#9;&#9;c-25.6-0.1-51.2,0-76.8,0c-38.2,0-76.3,0-114.5,0c-0.8,0-1.6,0-2.4-0.1c-0.8-0.1-1.3-0.6-1.3-1.5c0-0.8,0.4-1.4,1.3-1.4&#10;&#9;&#9;c0.7,0,1.4,0,2.2,0c18.3,0,36.6,0,55,0c2.8,0,2.8,0,1.6-2.4c-0.9-1.7-1.2-3.6-1.2-5.6c0-14.6,0-29.1,0-43.7c0-15.6,0-31.2,0-46.8&#10;&#9;&#9;c0-5.3,3-9.1,8-10.3c1-0.2,2.1-0.2,3.1-0.2c5.4,0,10.9,0,16.3,0c0.5,0,1,0,1.4,0c1.6,0,1.6,0,1.3-1.6c-0.2-1-0.5-2-0.6-3&#10;&#9;&#9;c-1.3-8.4,5.7-15.6,14.1-14.4c1.3,0.2,2,0.1,2.8-1c1.1-1.5,2.8-2.2,4.7-2c1.1,0.1,1.8-0.3,2.5-1c3.4-2.9,8-1.7,9.6,2.5&#10;&#9;&#9;c0.4,1.1,0.8,2.3,1.1,3.4c0.3,0.9,0.6,1.3,1.7,1c4.8-1.4,9.5-2.6,14.3-3.9c0.9-0.2,1.2-0.5,0.9-1.5c-0.3-0.8-0.5-1.5-1.6-1.1&#10;&#9;&#9;c-0.7,0.3-1.4,0.4-2.1,0.7c-2.1,0.6-2.5,0.5-3.2-1.6c-1.3-4.1-2.7-8.2-4-12.3c-3.4-10.5-6.8-21-10.1-31.5&#10;&#9;&#9;c-2.4-7.7-3.6-15.5-3.9-23.6c-0.6-19.1,4-36.9,13.9-53.3c1.2-1.9,1-1.6-0.7-2.6c-1.8-1-3.6-2-5.5-3c-3.6-2.1-4.7-5.1-2.9-9&#10;&#9;&#9;c3.1-6.8,6.2-13.5,9.3-20.3c0.1-0.2,0.2-0.4,0.3-0.6c0.8-1.7,0.8-1.7-0.8-2.5c-0.8-0.4-1.6-0.7-2.4-1.2&#10;&#9;&#9;c-11.2-6.4-17.4-16-18.5-28.8c-1-11.4,2.7-21.2,10.7-29.4c8.6-8.9,17-18,25.6-27c1.2-1.3,1.6-2.5,1.2-4.2c-3-16.1-6-32.2-8.9-48.3&#10;&#9;&#9;c-1.5-8.3-3.1-16.7-4.6-25c-0.5-2.8-0.5-2.8-3.4-2.4c-7.7,1.1-15.1-3.5-17.5-10.8c-2.4-7.5,0.9-15.6,7.9-19.2&#10;&#9;&#9;c0.4-0.2,0.7-0.4,1.1-0.5c0.9-0.3,1-0.9,0.7-1.7c-1-2.6-1.8-5.3-2.5-8c-1.5-6.4-2.3-12.7-0.8-19.2c2-8.4,6.9-14.1,15-17&#10;&#9;&#9;c1.4-0.5,2.2-1.2,2.9-2.5c3.6-7,9.8-10.7,17.2-12.7c3.2-0.8,6.5-1,9.7-1.1c13-0.4,26-0.7,39.1-1.1c9.4-0.3,18.9-0.5,28.3-0.8&#10;&#9;&#9;c5-0.1,10.1-0.3,15.1-0.5c1,0,2.2-0.4,2.7,0.8c0.6,1.4-0.6,2-1.5,2.7c-2.9,2.4-5.8,4.8-8.6,7.2c-1.5,1.2-1.5,1.3,0.3,2.1&#10;&#9;&#9;c2.9,1.5,5.9,2.9,8.8,4.3c0.8,0.4,1.7,0.7,1.7,1.8c0,1.1-0.8,1.5-1.6,1.9c-2.9,1.7-5.8,3.3-8.7,5c-1.8,1-1.8,1.1,0,2.3&#10;&#9;&#9;c2.8,2.1,5.7,4.1,8.5,6.2c0.5,0.3,0.9,0.7,1.3,1c0.5,0.4,0.8,1,0.6,1.7c-0.2,0.7-0.8,1-1.5,1c-1.8,0.1-3.5,0.1-5.3,0.2&#10;&#9;&#9;c-1.7,0.1-1.8,0.2-0.8,1.6c4.5,6.1,7.3,12.9,8.5,20.4c1.1,7,0.4,13.9-1,20.7c-1.9,9.4-5.5,18.2-9.7,26.7&#10;&#9;&#9;c-4.6,9.4-9.9,18.5-14.8,27.7c-2.8,5.1-5.4,10.4-7.6,15.8c-0.3,0.8-0.6,1.6-1,2.5c-0.2,0.4-0.3,0.8,0,1.1c0.1,0.1,0.6-0.2,0.8-0.4&#10;&#9;&#9;c2.5-1.8,4.9-3.5,7.4-5.3c17.9-12.9,35.8-25.8,53.7-38.7c0.3-0.2,0.5-0.4,0.8-0.6c1.6-1.2,1.6-1.2,0.6-2.9&#10;&#9;&#9;c-1.7-2.9-0.9-6.1,2.1-7.4c1.4-0.6,1.3-1.2,1-2.3c-1.2-5.2,0-9.8,3.3-13.9c0.9-1.1,1.9-1.9,3-2.7c7.3-5.3,14.7-10.5,21.9-15.9&#10;&#9;&#9;c7-5.3,17.4-4.3,23,3.8c5.2,7.6,10.8,14.9,16.1,22.4c5.4,7.6,4,16.9-3.6,22.5c-7.3,5.4-14.7,10.7-22.2,16c-5.8,4.1-11.8,4.5-18,0.9&#10;&#9;&#9;c-1.1-0.6-1.5-0.5-2.3,0.4c-2.1,2.4-5.4,2.4-7.6,0c-1.3-1.3-1.3-1.3-2.8-0.3c-20.4,14.7-40.7,29.4-61.1,44.1&#10;&#9;&#9;c-1.2,0.8-2.3,1.7-3.5,2.5c-0.9,0.6-0.9,1.1-0.1,1.8c2.4,2.1,4.9,4.1,7.1,6.4c4.7,4.7,5.8,10.3,3.7,16.6c-0.6,1.8-1.5,3.3-2.8,4.7&#10;&#9;&#9;c-5,5.6-9.9,11.3-14.9,16.9C683.1,507.8,682.8,508,682.5,508.1c0,0.4-0.2,0.7-0.5,0.8c0,0.2-0.1,0.3,0,0&#10;&#9;&#9;C682.3,508.7,682.5,508.5,682.5,508.1z" transform="matrix(1, 0, 0, 1, 1.4210854715202004e-14, 7.105427357601002e-15)"/><path fill="#FCDCA6" d="M594.2,730.8c-20.5,0-40.9,0-61.4,0c-0.9,0-1.8,0-2.6,0.1c-4,0.5-6.4,3.2-6.5,7.3c0,0.6,0,1.1,0,1.7&#10;&#9;&#9;c0,29.3,0,58.5,0,87.8c0,0.6,0,1.3,0,1.9c0.2,3.7,2.3,6.3,6,7c0.9,0.2,1.9,0.2,2.9,0.2c41.1,0,82.2,0,123.3,0&#10;&#9;&#9;c1.3,0,2.6-0.1,3.8-0.4c2.8-0.8,4.7-3.3,4.9-6.1c0-0.6,0-1.1,0-1.7c0-29.8,0-59.7,0-89.5c0-0.6,0-1.1,0-1.7&#10;&#9;&#9;c-0.2-2.9-2.1-5.3-4.9-6.1c-1.2-0.4-2.5-0.4-3.8-0.4C635.3,730.8,614.7,730.8,594.2,730.8z" transform="matrix(1, 0, 0, 1, 1.4210854715202004e-14, 7.105427357601002e-15)"/><path fill="#FAE0D6" d="M658,324.2C658,324.2,658,324.2,658,324.2c-9.3,0.3-18.7,0.6-28,0.9c-3.8,0.1-7.7,0.3-11.5,0.4&#10;&#9;&#9;c-1,0-1.6,0.4-2,1.3c-4.3,9.6-11.7,16-21.1,20.4c-0.4,0.2-0.9,0.4-1.3,0.6c-0.4,0.2-0.7,0.5-0.2,0.9c0.7,0.6,0.9,1.4,0.4,2.1&#10;&#9;&#9;c-0.6,0.9-1.5,0.6-2.4,0.3c-1.5-0.4-3-0.7-4.5-0.6c-5.3,0.6-9.2,3.2-11.2,8.2c-2,5.1-1,9.8,2.8,13.7c3.7,3.8,8.3,4.8,13.5,3.1&#10;&#9;&#9;c0.5-0.2,1-0.4,1.6-0.6c0.8-0.2,1.4,0.1,1.7,0.9c0.2,0.5,0.3,1.1,0.4,1.6c2.8,15.1,5.5,30.2,8.3,45.3c2,10.7,3.9,21.4,5.9,32.1&#10;&#9;&#9;c0.3,1.6,0.9,3,2.1,4.2c4.8,4.7,10.4,7.9,16.8,9.9c0.2,0.1,0.5,0.1,0.7,0.2c0.6,0.1,0.9-0.2,0.8-0.8c0-0.4-0.1-0.8-0.1-1.2&#10;&#9;&#9;c-0.3-4.5,1-8.5,4-11.9c1.8-2,3.5-4,5.2-5.9c3.8-4.2,9.1-4.7,13.4-1.1c0.8,0.7,1.3,0.8,2.2,0.2c4.4-2.9,9.2-3.6,14.2-1.8&#10;&#9;&#9;c1.5,0.5,1.5,0.3,1.9-1.1c0.6-2.4,1.3-4.8,2.1-7.1c3-8.5,7.3-16.3,11.6-24.2c4.8-8.8,9.9-17.6,14.1-26.7c5-10.9,9-22.1,9.3-34.2&#10;&#9;&#9;c0.3-11-3.1-20.7-10-29.3c-0.8-0.9-1.6-1.1-2.7-1.1C683.4,323.3,670.7,323.8,658,324.2z" transform="matrix(1, 0, 0, 1, 1.4210854715202004e-14, 7.105427357601002e-15)"/><path fill="#FFFFFF" d="M602.6,513.2c0.1,0,0.2,0,0.3,0c-0.1,0.6-0.1,1.1-0.2,1.7c-0.1,2-0.1,2.1,1.8,2.8c2.6,1.1,5.3,1.9,7.9,2.9&#10;&#9;&#9;c1.7,0.6,2.7,0.3,3.9-1c4.8-5.6,9.8-11.2,14.7-16.8c1.5-1.7,1.5-1.7,0-3.5c-1.8-2-2.1-4.7-0.4-6.5c1.6-1.7,1.4-3.2,0.7-5&#10;&#9;&#9;c-1.3-3.3-1.3-6.7-0.3-10.1c0.3-1.1,0.5-2.2,0.5-3.3c0.1-1.3-0.4-1.9-1.8-2.2c-7.3-1.9-13.7-5.3-19-10.7c-1.3-1.3-1.3-1.3-2.7,0.2&#10;&#9;&#9;c-8.7,9.2-17.5,18.4-26.2,27.7c-13,13.9-11.9,36,2.2,48.4c13.5,11.8,34.2,10.7,46.8-2.6c5.8-6.1,11.1-12.6,16.7-18.8&#10;&#9;&#9;c0.9-1,0.7-1.5-0.2-2.3c-3.7-3.2-7.3-6.4-11-9.7c-1.4-1.2-1.5-1.2-2.8,0.2c-5.1,5.8-10.3,11.6-15.4,17.4c-2.5,2.9-5.6,4.7-9.3,5.5&#10;&#9;&#9;c-7.6,1.6-15-2.4-17.1-9.6c-1.8-5.8-0.8-11.2,3.3-15.9c3.5-4,7.1-8,10.6-12c0.6-0.7,1.2-1.3,1.8-2c0.7-0.7,1.5-0.9,2.3-0.2&#10;&#9;&#9;c0.7,0.7,0.5,1.5-0.1,2.1c-0.3,0.4-0.6,0.7-0.9,1.1c-1.5,1.7-3,3.5-4.6,5.2c-1.1,1.1-1.5,2.3-1.5,3.8&#10;&#9;&#9;C602.7,504.4,602.6,508.8,602.6,513.2z" transform="matrix(1, 0, 0, 1, 1.4210854715202004e-14, 7.105427357601002e-15)"/><path fill="#E5384A" d="M664.5,448.6c-3.8,0.2-7,1.6-9.6,4.5c-6.1,6.9-12.2,13.8-18.2,20.7c-4.9,5.6-4.4,13.2,1.3,18.2&#10;&#9;&#9;c7,6.2,14,12.4,21,18.6c6,5.3,13.3,4.8,18.7-1.1c6-6.7,12-13.5,17.9-20.3c4.9-5.6,4.6-13-0.9-18c-7.2-6.6-14.6-12.9-21.9-19.4&#10;&#9;&#9;C670.4,449.6,667.6,448.7,664.5,448.6z" transform="matrix(1, 0, 0, 1, 1.4210854715202004e-14, 7.105427357601002e-15)"/><path fill="#FAE0D6" d="M852.7,379.1c0.4,3.7-3.1,8.3-8.5,7.6c-0.5-0.1-0.9-0.2-1.4-0.2c-0.5-0.1-0.7,0.2-0.6,0.7&#10;&#9;&#9;c0.2,0.4,0.3,0.9,0.5,1.3c0.7,1.4,1.7,2.5,2.9,3.4c1.6,1.3,1.6,2-0.1,3.4c-0.4,0.3-0.8,0.6-1.1,0.9c-5.7,4.4-11.4,8.8-17.1,13.2&#10;&#9;&#9;c-10.2,7.8-20.4,15.7-30.6,23.5c-1.4,1.1-1.4,1.1-0.4,2.6c2.4,3.3,4.9,6.5,7.4,9.8c2.1,2.8,2.1,2.8,5,0.6c4.1-3.1,8.2-6.3,12.4-9.4&#10;&#9;&#9;c1.7-1.3,2.5-1,3.1,1c0.1,0.4,0.2,0.8,0.4,1.1c1.5,3.9,6,5.6,9.7,3.7c2.6-1.3,3.8-3.6,4.2-6.3c0.6-3.3,1.2-6.6,1.7-9.9&#10;&#9;&#9;c0.2-1.4,0.8-2.5,2-3.3c3.2-2.4,6.3-4.9,9.5-7.3c1-0.8,1.5-1.7,1.7-3c1.7-10.5,3.5-21,5.2-31.4c0.6-3.4,0.3-3.8-2.9-5.2&#10;&#9;&#9;c-1-0.4-1.9-0.7-3-0.9c-0.8-0.1-1.3,0-0.8,1C852.5,377,852.8,378.1,852.7,379.1z" transform="matrix(1, 0, 0, 1, 1.4210854715202004e-14, 7.105427357601002e-15)"/><path fill="#FFFFFF" d="M631.3,542.9c0.3-1-0.2-1.4-1.2-1.6c-0.9-0.1-1.7,0.1-2.5,0.6c-9.5,6.6-19.8,8.5-31,5.8&#10;&#9;&#9;c-1.2-0.3-1.7,0-2.2,1c-1.4,3.2-2.9,6.4-4.4,9.6c-1.8,4-3.7,8-5.5,12c-1,2.3-0.5,3.8,1.6,5.1c0.5,0.3,1,0.6,1.5,0.8&#10;&#9;&#9;c10.9,6,21.8,12.1,32.7,18.1c3.1,1.7,2.7,2.2,3.3-1.7c1.9-12.1,3.7-24.2,5.6-36.2C630,551.9,630.7,547.4,631.3,542.9z" transform="matrix(1, 0, 0, 1, 1.4210854715202004e-14, 7.105427357601002e-15)"/><path fill="#FFFFFF" d="M697.4,572.7c-0.1-1-0.5-1.7-0.9-2.5c-2.5-4.7-4.9-9.3-7.4-14c-3.7-6.9-7.4-13.8-9.6-21.4&#10;&#9;&#9;c-0.4-1.4-0.5-1.4-2-0.8c-6.2,2.5-12.6,4.5-19.2,5.8c-2.7,0.5-2.7,0.5-2.3,3.4c2.3,14.7,4.5,29.3,6.8,44c0.3,2,0.6,3.9,0.9,5.9&#10;&#9;&#9;c0.4,2.2,0.4,2.2,2.3,1.1c0.2-0.1,0.4-0.3,0.6-0.4c7.9-4.9,15.9-9.9,23.8-14.8c1.8-1.1,3.5-2.2,5.3-3.3&#10;&#9;&#9;C696.7,575.1,697.3,574,697.4,572.7z" transform="matrix(1, 0, 0, 1, 1.4210854715202004e-14, 7.105427357601002e-15)"/><path fill="#FAE0D6" d="M594,727.9c12.1,0,24.2,0,36.2,0c0.7,0,1.4,0,2.2,0c3.2-0.3,6-2.7,6.6-5.7c0.6-3.2-0.9-6.3-3.9-7.7&#10;&#9;&#9;c-1.4-0.6-2.4-1.6-3.3-2.6c-3.7-3.9-7.4-7.7-11.1-11.6c-0.8-0.9-1.6-1.1-2.7-0.7c-2.5,0.9-5,1.6-7.5,2.5c-1.7,0.6-3.5,1.2-5.2,1.7&#10;&#9;&#9;c-0.9,0.3-0.7,0.9-0.5,1.5c0.3,0.6,0.2,1.6,1.3,1.2c0.8-0.2,1.7-0.5,2.6-0.6c0.8-0.1,1.4,0.4,1.6,1.2c0.2,0.7-0.2,1.3-0.8,1.6&#10;&#9;&#9;c-0.5,0.2-1.1,0.4-1.6,0.5c-5.9,1.6-11.9,3.2-17.8,4.8c-5.1,1.4-10.2,2.8-15.3,4.1c-2.4,0.7-2.5,0.6-3.8-1.5&#10;&#9;&#9;c-0.8-1.3-1.7-2.3-2.9-3.1c-0.5-0.3-1.1-1-1.7-0.7c-0.6,0.3-0.2,1.1-0.2,1.7c-0.2,5.5-5.5,9-10.5,6.9c-0.6-0.2-1.1-0.6-1.7-0.9&#10;&#9;&#9;c-0.6-0.4-0.9-0.1-0.9,0.5c0,1.4,0.2,2.9,0.6,4.2c0.8,2.5,0.9,2.6,3.5,2.6C569.3,727.9,581.7,727.9,594,727.9z" transform="matrix(1, 0, 0, 1, 1.4210854715202004e-14, 7.105427357601002e-15)"/><path fill="#E5384A" d="M781.9,348.6c-0.3,0-0.6,0-1,0c-6,0.8-10.3,4.4-13.8,9c-0.6,0.8-0.2,1.2,0.7,1c1.8-0.2,3.6-0.5,5.5-0.7&#10;&#9;&#9;c4.6-0.6,8.6,2.5,9.2,7.1c0.6,4.4-2.5,8.4-7,9c-1.4,0.2-2.9,0.3-4.3,0.5c-1.3,0.2-1.4,0.4-0.6,1.5c4.6,6.4,9,12.8,13.8,19&#10;&#9;&#9;c4.1,5.3,11.8,6.4,17.5,2.7c1.5-1,3-2.1,4.5-3.2c5.4-4.2,6.6-11.5,2.7-17.1c-5.7-8-11.5-16-17.3-23.9&#10;&#9;&#9;C789.3,350.2,786,348.6,781.9,348.6z" transform="matrix(1, 0, 0, 1, 1.4210854715202004e-14, 7.105427357601002e-15)"/><path fill="#FFFFFF" d="M674.3,447.8c-0.3,0.7,0,1.1,0.4,1.5c3.7,3.3,7.4,6.5,11.1,9.8c0.6,0.5,1.1,0.6,1.7,0.1&#10;&#9;&#9;c0.4-0.4,0.9-0.7,1.4-1c12.6-9.1,25.3-18.2,37.9-27.3c2.9-2.1,5.8-4.2,8.8-6.3c1-0.7,1.2-1.3,0.3-2.3c-0.6-0.7-1.1-1.5-1.7-2.3&#10;&#9;&#9;c-2.5-3.4-5-6.9-7.4-10.3c-1.2-1.6-1.2-1.6-2.7-0.5c-0.1,0.1-0.3,0.2-0.4,0.3c-15.5,11.2-31.1,22.5-46.7,33.6&#10;&#9;&#9;C675.2,444.4,674.5,445.9,674.3,447.8z" transform="matrix(1, 0, 0, 1, 1.4210854715202004e-14, 7.105427357601002e-15)"/><path fill="#E5384A" d="M746.1,377.7c0.1,2.7,0.8,5.2,2.4,7.4c1.4,1.9,2.7,3.8,4.1,5.6c4.3,5.9,8.5,11.8,12.8,17.7&#10;&#9;&#9;c4.2,5.6,11.3,7.1,17,3.4c3.7-2.4,7.3-5.2,10.9-7.8c0.3-0.2,0.8-0.4,0.6-0.9c-0.1-0.2-0.6-0.2-0.9-0.2c-5.4-0.6-9.5-3.4-12.6-7.8&#10;&#9;&#9;c-4.1-5.9-8.4-11.7-12.6-17.5c-0.8-1.1-1.3-2.4-3-2.4c-0.6,0-0.9-0.6-0.9-1.2c0-0.7,0.4-1.2,1-1.5c0.4-0.2,0.9-0.2,1.4-0.2&#10;&#9;&#9;c2.7-0.3,5.4-0.6,8.1-1c3.2-0.4,5.4-2.8,5.1-5.5c-0.3-3.1-2.8-4.9-6.1-4.6c-2.9,0.3-5.7,0.8-8.6,1c-5.6,0.3-10.3,2.7-14.4,6.3&#10;&#9;&#9;C747.6,370.8,746.3,374,746.1,377.7z" transform="matrix(1, 0, 0, 1, 1.4210854715202004e-14, 7.105427357601002e-15)"/><path fill="#EBBE62" d="M639.3,534.8c-0.4,0-0.8,0-1.2,0c-2.6,0-2.6,0-3,2.7c-1,6.7-2.1,13.4-3.1,20.1c-1.8,11.5-3.6,23.1-5.4,34.6&#10;&#9;&#9;c-0.2,1.6-0.2,1.7,1.6,1.9c3.1,0.4,6.2,0.6,9.3,1.1c1.2,0.2,1.5-0.2,1.6-1.3c0.6-10,1.3-19.9,1.9-29.9c0.5-8.5,1-17.1,1.6-25.6&#10;&#9;&#9;C642.8,534.8,642.8,534.8,639.3,534.8z" transform="matrix(1, 0, 0, 1, 1.4210854715202004e-14, 7.105427357601002e-15)"/><path fill="#EBBE62" d="M650.8,595c2.6-0.3,5.2-0.6,7.8-0.9c2.1-0.3,2.1-0.3,1.8-2.5c-0.9-5.6-1.7-11.2-2.6-16.8&#10;&#9;&#9;c-2-12.9-3.9-25.7-5.9-38.6c-0.4-2.4-0.4-2.3-2.7-2.1c-0.6,0.1-1.3,0.2-1.9,0.2c-1.1,0-1.6,0.3-1.6,1.5c-0.2,4-0.7,8-0.4,12&#10;&#9;&#9;c0.9,14.9,1.9,29.8,2.8,44.7C648.2,595.7,648,595.3,650.8,595z" transform="matrix(1, 0, 0, 1, 1.4210854715202004e-14, 7.105427357601002e-15)"/><path fill="#E5384A" d="M754.5,410.8c-0.2-0.3-0.3-0.6-0.5-0.9c-3.3-4.6-6.6-9.2-9.9-13.8c-0.5-0.7-1-0.6-1.6-0.1&#10;&#9;&#9;c-4.5,3.2-8.9,6.5-13.4,9.7c-0.7,0.5-0.9,1-0.3,1.7c3.3,4.5,6.6,9.1,9.8,13.6c0.6,0.8,1.1,0.7,1.8,0.2c4.4-3.2,8.8-6.4,13.2-9.6&#10;&#9;&#9;C753.9,411.4,754.2,411.1,754.5,410.8z" transform="matrix(1, 0, 0, 1, 1.4210854715202004e-14, 7.105427357601002e-15)"/><path fill="#E5384A" d="M633.7,466c-0.1,1.3,0.1,2.7,0.6,4.1c0.3,0.8,0.7,0.9,1.3,0.2c1.1-1.3,2.2-2.5,3.3-3.8c4-4.5,8-9.1,12-13.6&#10;&#9;&#9;c1.4-1.6,1.3-2-0.5-3.1c-2.6-1.6-5.7-1.2-7.9,1.1c-2.2,2.4-4.4,4.9-6.5,7.4C634.4,460.4,633.6,463,633.7,466z" transform="matrix(1, 0, 0, 1, 1.4210854715202004e-14, 7.105427357601002e-15)"/><path fill="#EBBE62" d="M643.2,531.7c6.9-0.2,13.6-1.4,20.3-3.2c4.5-1.2,8.8-2.8,13.1-4.6c0.9-0.4,1.5-0.7,1.3-1.9&#10;&#9;&#9;c-0.4-2.6-0.5-2.7-2.9-1.7c-9.6,3.9-19.5,6.5-29.9,7c-2.7,0.1-4.6,1-6,3.2c-0.2,0.4-0.9,0.6-0.5,1.2c0.3,0.5,0.9,0.3,1.3,0.3&#10;&#9;&#9;C641,531.8,642.1,531.7,643.2,531.7z" transform="matrix(1, 0, 0, 1, 1.4210854715202004e-14, 7.105427357601002e-15)"/><path fill="#E5384A" d="M763.3,411.5c-0.1-0.8-0.6-1.4-1.1-2.1c-5.1-7.1-10.2-14.2-15.3-21.2c-0.3-0.5-0.6-0.9-1.1-1.3&#10;&#9;&#9;c-0.7-0.7-1.6-0.7-2.4-0.2c-0.8,0.6-1,1.4-0.6,2.3c0.2,0.5,0.6,1,0.9,1.4c5.1,7.1,10.3,14.3,15.4,21.4c0.4,0.5,0.7,1.1,1.3,1.4&#10;&#9;&#9;c0.6,0.3,1.2,0.4,1.8,0C762.9,412.9,763.3,412.3,763.3,411.5z" transform="matrix(1, 0, 0, 1, 1.4210854715202004e-14, 7.105427357601002e-15)"/><path fill="#E5384A" d="M657.9,514.5c-0.1-0.8-0.9-1.4-1.6-2c-6.5-5.8-13-11.6-19.5-17.3c-0.4-0.4-0.8-0.8-1.3-1&#10;&#9;&#9;c-0.9-0.4-1.7-0.4-2.4,0.4c-0.6,0.8-0.6,1.6,0,2.4c0.4,0.5,0.9,0.9,1.4,1.3c6.4,5.7,12.9,11.4,19.4,17.2c0.4,0.4,0.8,0.8,1.3,1&#10;&#9;&#9;C656.5,517.2,658,516.2,657.9,514.5z" transform="matrix(1, 0, 0, 1, 1.4210854715202004e-14, 7.105427357601002e-15)"/><path fill="#EBBE62" d="M678.9,529.3c0-2.7-0.5-3-2.9-2c-5.1,2.1-10.3,3.8-15.7,5c-1.6,0.4-3.1,0.7-4.7,1c-0.9,0.2-1.3,0.5-1,1.5&#10;&#9;&#9;c0.1,0.5,0.2,0.9,0.2,1.4c0,1.2,0.7,1.3,1.6,1.1c1.3-0.3,2.7-0.6,4-0.9c5.8-1.3,11.5-3.2,17-5.5&#10;&#9;&#9;C678.2,530.5,679.1,530.4,678.9,529.3z" transform="matrix(1, 0, 0, 1, 1.4210854715202004e-14, 7.105427357601002e-15)"/><path fill="#FFFFFF" d="M652,520.9c0,0.3,0,0.6,0,1c0.1,1.7,0.2,1.8,1.8,1.6c0.2,0,0.5-0.1,0.7-0.1c6.6-1.2,13-3.1,19.3-5.7&#10;&#9;&#9;c0.5-0.2,1-0.4,1.5-0.7c0.5-0.3,0.6-0.8,0.3-1.2c-0.3-0.5-0.7-0.2-1-0.1c-4.1,1.9-8.3,2.1-12.6,0.5c-0.8-0.3-1.1-0.1-1.5,0.6&#10;&#9;&#9;c-1.8,3.2-4.1,3.9-7.4,2.3c-1-0.5-1.3-0.3-1.2,0.7C652,520.1,652,520.5,652,520.9z" transform="matrix(1, 0, 0, 1, 1.4210854715202004e-14, 7.105427357601002e-15)"/><path fill="#FFFFFF" d="M593.9,513c-0.1,1.5,0.3,3.1,1,4.8c0.4,1,0.9,1.9,1.6,2.7c0.4,0.5,0.8,0.5,1-0.2c0.2-0.7,0.3-1.4,0.4-2.1&#10;&#9;&#9;c0.1-0.6,0.1-1.5,0.6-1.8c1.9-1.1,1.7-2.9,1.5-4.6c-0.2-2.4-0.1-4.8-0.1-7.2c0-0.6,0-1.3-0.1-1.9c0-0.3-0.1-0.7-0.4-0.7&#10;&#9;&#9;c-0.2,0-0.4,0.2-0.6,0.4C595.9,505.2,593.9,508.4,593.9,513z" transform="matrix(1, 0, 0, 1, 1.4210854715202004e-14, 7.105427357601002e-15)"/><path fill="#FFFFFF" d="M845.2,383.8c1.9-0.1,3.3-0.9,4.1-2.5c0.8-1.6,0.6-3.1-0.4-4.5c-0.8-1.2-1.3-1.4-2.5-0.6&#10;&#9;&#9;c-1.8,1.1-3.1,2.5-3.9,4.4c-0.8,1.8-0.4,2.6,1.6,3.1C844.5,383.7,844.9,383.7,845.2,383.8z" transform="matrix(1, 0, 0, 1, 1.4210854715202004e-14, 7.105427357601002e-15)"/><path fill="#FFFFFF" d="M558.3,719c3.1,0,5.2-2.6,4.6-5.4c-0.3-1.5-0.8-1.9-2.3-1.6c-1.8,0.3-3.3,1.2-4.6,2.4&#10;&#9;&#9;c-2.5,2.2-1.1,3.4,1,4.4C557.4,718.9,558,718.9,558.3,719z" transform="matrix(1, 0, 0, 1, 1.4210854715202004e-14, 7.105427357601002e-15)"/><path fill="#EBBE62" d="M605.4,524.8c1.6,0,2.9-0.3,4.2-0.6c0.4-0.1,1.1-0.2,1.2-0.6c0.1-0.6-0.6-0.6-1-0.7&#10;&#9;&#9;c-2.2-0.8-4.5-1.6-6.7-2.5c-2.4-0.9-2.8-0.6-2.9,1.9c0,0.8,0.2,1.2,0.9,1.5C602.5,524.3,603.9,524.9,605.4,524.8z" transform="matrix(1, 0, 0, 1, 1.4210854715202004e-14, 7.105427357601002e-15)"/><path fill="#FAE0D6" d="M582.2,712.2c-0.6-1.6-0.8-3.4-1.9-4.8c-0.9-1.3-2.6-1.4-3.8-0.5c-0.4,0.3-0.7,0.7-0.4,1.2&#10;&#9;&#9;c1.1,1.6,2.3,3.3,3.4,4.9c0.6,0.8,1.3,0.3,1.9,0.1C581.9,712.9,582.3,712.8,582.2,712.2z" transform="matrix(1, 0, 0, 1, 1.4210854715202004e-14, 7.105427357601002e-15)"/><path fill="#FAE0D6" d="M571.3,708.8c-0.4,0.1-0.9,0.2-1.3,0.4c-1.1,0.6-1.1,1.1-0.2,1.8c1.2,0.9,2.3,2,3.1,3.2&#10;&#9;&#9;c0.6,0.8,2.4,0.9,3.2,0.1c0.7-0.8-0.3-1.2-0.6-1.7c-0.5-0.9-1.2-1.7-1.8-2.5C573.2,709.3,572.4,708.9,571.3,708.8z" transform="matrix(1, 0, 0, 1, 1.4210854715202004e-14, 7.105427357601002e-15)"/><path fill="#FAE0D6" d="M839.3,389.1c-0.1,0.1-0.3,0.1-0.4,0.2c-1,0.5-1.5,1.9-1.2,3.1c0.2,0.9,2.2,3,2.8,3c0.1,0,0.2,0,0.2-0.1&#10;&#9;&#9;c0.7-0.4,1.4-0.8,1.8-1.5c0.4-0.7-0.5-1-0.8-1.5c-0.5-0.9-1.1-1.7-1.7-2.6C839.8,389.4,839.7,389.1,839.3,389.1z" transform="matrix(1, 0, 0, 1, 1.4210854715202004e-14, 7.105427357601002e-15)"/><path fill="#FFFFFF" d="M627.1,596.9c-0.3,0.2-0.9-0.4-1,0.3c-0.1,0.4,0.5,0.6,0.8,0.7c1,0.6,2.1,1.2,3.2,1.7&#10;&#9;&#9;c1.4,0.6,2.7,0.3,3.7-0.7c0.2-0.2,0.5-0.5,0.4-0.8c-0.1-0.4-0.5-0.4-0.7-0.4C631.4,597.4,629.3,597.2,627.1,596.9z" transform="matrix(1, 0, 0, 1, 1.4210854715202004e-14, 7.105427357601002e-15)"/><path fill="#FFFFFF" d="M655.7,599.8c2-0.1,3.4-1.4,4.9-2.4c0.1,0,0.1-0.3,0-0.4c-0.1-0.1-0.3-0.1-0.5-0.1&#10;&#9;&#9;c-1.8,0.2-3.7,0.4-5.5,0.7c-0.5,0.1-1.5-0.3-1.6,0.6c-0.1,0.8,0.8,1.1,1.5,1.4C654.9,599.8,655.3,599.8,655.7,599.8z" transform="matrix(1, 0, 0, 1, 1.4210854715202004e-14, 7.105427357601002e-15)"/><path fill="#FFFFFF" d="M649.1,521.7c0-0.5,0-1,0-1.4c0-0.5-0.4-0.8-0.7-0.4c-1.1,1.2-2.2,2.5-3.3,3.7c-0.3,0.3,0,0.6,0.3,0.7&#10;&#9;&#9;C647.8,524.9,649.2,524,649.1,521.7z" transform="matrix(1, 0, 0, 1, 1.4210854715202004e-14, 7.105427357601002e-15)"/><path fill="#FAE0D6" d="M835.6,395.4c-0.1,0-0.2,0-0.3,0c-0.8,0.3-1.2,1-1.4,1.8c-0.2,0.8-0.2,1.7,0.6,2.2c0.8,0.5,1.2-0.4,1.8-0.7&#10;&#9;&#9;c0.1,0,0.1-0.1,0.2-0.1c0.4-0.4,1.3-0.6,0.9-1.4C837.1,396.4,836.4,395.8,835.6,395.4z" transform="matrix(1, 0, 0, 1, 1.4210854715202004e-14, 7.105427357601002e-15)"/><path fill="#151D38" d="M644.2,578.2c-0.2-2.2-0.3-4-0.5-5.8c0-0.3-0.1-0.5-0.2-0.8c0,0.2-0.1,0.5-0.1,0.7&#10;&#9;&#9;c-0.2,1.9-0.3,3.8-0.5,5.7c0,0.5,0,0.9,0,1.4c0,0.3,0.2,0.6,0.6,0.6c0.4,0,0.6-0.2,0.6-0.5C644.3,578.9,644.2,578.3,644.2,578.2z" transform="matrix(1, 0, 0, 1, 1.4210854715202004e-14, 7.105427357601002e-15)"/><path fill="#151D38" d="M962.9,442.1c-2.1-0.6-4.2-1.1-6.2-1.7c-26.2-7.2-52.4-14.3-78.5-21.5c-0.4-0.1-0.8-0.2-1.2-0.3&#10;&#9;&#9;c-1.6-0.5-1.9-1-1.6-2.6c0.2-0.9,0.5-1.8,0.8-2.8c4.5-16.3,8.9-32.7,13.4-49c0.2-0.7,0.3-1.4,0.6-2.1c0.6-1.2,1.9-1.3,2.7-0.2&#10;&#9;&#9;c0.3,0.4,0.5,1,0.7,1.5c2.5,5.1,4.9,10.2,7.4,15.3c1.3,2.7,1,2.3,3.1,0.9c4.7-3.1,9.3-6.2,13.9-9.3c0.5-0.3,0.9-0.7,1.4-0.9&#10;&#9;&#9;c1.2-0.6,1.9-0.4,2.6,0.8c0.6,1.1,1.1,2.2,1.6,3.2c2.1,4.5,4.3,8.9,6.4,13.4c1,2,1,2,2.8,0.8c4.5-3,8.9-6,13.4-8.9&#10;&#9;&#9;c0.5-0.3,0.9-0.6,1.4-0.9c2.1-1.3,2.6-1.3,3.7,0.9c2.1,4.4,4.2,8.8,6.3,13.2c0.6,1.2,1.2,2.4,1.7,3.7c0.4,1,1,1,1.8,0.4&#10;&#9;&#9;c4.9-3.3,9.8-6.6,14.7-9.9c0.3-0.2,0.5-0.4,0.8-0.5c0.8-0.6,1.7-1.1,2.6-0.4c0.9,0.7,0.5,1.6,0.2,2.4c-3.3,12-6.6,24-9.8,36&#10;&#9;&#9;c-1.5,5.5-3,11.1-4.6,16.6C964.5,441.9,964.1,442.2,962.9,442.1z" transform="matrix(1, 0, 0, 1, 1.4210854715202004e-14, 7.105427357601002e-15)"/><path fill="#FCDCA6" d="M975.4,391c0-0.1,0-0.4-0.1-0.4c-0.4-0.3-0.7,0.1-1,0.3c-3.9,2.6-7.7,5.1-11.6,7.7c-4.1,2.8-4.1,3-6.3-1.7&#10;&#9;&#9;c-2.3-4.9-4.7-9.8-7-14.7c-0.7-1.4-0.8-1.5-2.1-0.6c-2.7,1.8-5.4,3.6-8.2,5.5c-2.5,1.7-5,3.4-7.6,5.1c-1.4,0.9-2,0.7-2.9-0.7&#10;&#9;&#9;c-0.2-0.4-0.4-0.9-0.6-1.3c-2.4-5.1-4.9-10.2-7.4-15.3c-1-2.1-1-1.9-2.7-0.8c-4.5,3-9,6-13.6,9.1c-0.7,0.5-1.4,1-2.2,1.4&#10;&#9;&#9;c-0.9,0.5-1.7,0.3-2.3-0.6c-0.2-0.4-0.4-0.9-0.6-1.3c-2.3-4.7-4.5-9.4-6.8-14c-0.2-0.3-0.2-0.9-0.8-0.7c-0.3,0.1-0.3,0.5-0.4,0.8&#10;&#9;&#9;c-0.9,3.2-1.7,6.3-2.6,9.5c-3.3,11.9-6.5,23.7-9.8,35.6c-0.6,2.2-0.6,2.2,1.7,2.8c3.6,1,7.2,2,10.9,3c22.8,6.2,45.6,12.5,68.4,18.7&#10;&#9;&#9;c2.2,0.6,2.2,0.6,2.8-1.4c4.1-14.9,8.1-29.7,12.2-44.6C975.2,391.8,975.3,391.4,975.4,391z" transform="matrix(1, 0, 0, 1, 1.4210854715202004e-14, 7.105427357601002e-15)"/><path fill="#151D38" d="M952.4,330.2c0.1,1.3-0.7,2-1.8,1.7c-0.8-0.2-1.5-0.6-2.2-1c-5.1-2.7-10.2-5.3-15.3-8&#10;&#9;&#9;c-1.5-0.8-1.6-0.8-2.1,0.8c-2,5.5-3.9,11-5.8,16.5c-0.2,0.5-0.3,0.9-0.5,1.4c-0.6,1.4-1.2,1.7-2.6,1c-2.3-1.1-4.5-2.3-6.8-3.5&#10;&#9;&#9;c-3.3-1.7-6.7-3.5-10-5.2c-1.5-0.8-1.6-0.8-2.2,0.8c-1.9,5.4-3.8,10.8-5.8,16.3c-0.1,0.3-0.2,0.6-0.3,0.9c-0.9,2.3-1.3,2.5-3.5,1.4&#10;&#9;&#9;c-5.3-2.7-10.6-5.6-15.9-8.3c-1.7-0.9-1.8-0.9-2.4,1c-1.9,5.4-3.8,10.8-5.8,16.3c-0.2,0.5-0.4,1.1-0.6,1.6&#10;&#9;&#9;c-0.3,0.6-0.7,1.1-1.4,1.1c-0.7,0-1.2-0.4-1.5-1c-0.4-1-0.8-1.9-1.2-2.9c-6.3-15.9-12.5-31.8-18.8-47.7c-0.1-0.3-0.3-0.6-0.4-0.9&#10;&#9;&#9;c-0.6-1.9-0.5-2.3,1.5-3.1c4.7-1.9,9.5-3.8,14.3-5.6c22.3-8.8,44.6-17.5,66.9-26.3c0.4-0.1,0.7-0.3,1.1-0.4c1.4-0.5,1.8-0.3,2.5,1&#10;&#9;&#9;c0.2,0.4,0.4,0.9,0.5,1.3c6.5,16.4,12.9,32.9,19.4,49.3C952,329.1,952.3,329.7,952.4,330.2z" transform="matrix(1, 0, 0, 1, 1.4210854715202004e-14, 7.105427357601002e-15)"/><path fill="#FCDCA6" d="M894,350.1c0.7-0.3,0.8-0.9,1-1.5c1.9-5.4,3.8-10.8,5.7-16.3c0.2-0.5,0.3-1.1,0.6-1.6&#10;&#9;&#9;c0.6-1.4,1.2-1.6,2.7-1c0.4,0.2,0.7,0.4,1.1,0.5c5,2.6,9.9,5.2,14.9,7.8c2.5,1.3,2.3,1.4,3.2-1.2c1.9-5.3,3.7-10.5,5.6-15.8&#10;&#9;&#9;c1.1-3.2,1.4-3.3,4.4-1.7c2.8,1.5,5.7,3,8.5,4.5c1.7,0.9,3.4,1.8,5.1,2.7c0.2,0.1,0.5,0.4,0.8,0.1c0.2-0.3,0.1-0.6,0-0.9&#10;&#9;&#9;c-0.2-0.6-0.5-1.2-0.7-1.8c-2.2-5.7-4.5-11.5-6.7-17.2c-3.2-8.3-6.5-16.5-9.7-24.8c-0.8-2-0.8-2-2.7-1.2c-2.1,0.8-4.2,1.6-6.2,2.5&#10;&#9;&#9;c-23.6,9.3-47.1,18.5-70.7,27.8c-1.9,0.8-1.9,0.8-1.2,2.7c0.1,0.1,0.1,0.3,0.2,0.4c5.4,13.8,10.8,27.5,16.2,41.3&#10;&#9;&#9;c0.4,1,0.5,2.2,1.5,2.9c0.6-0.9,0.8-1.9,1.2-2.9c1.6-4.4,3.1-8.7,4.7-13.1c0.8-2.3,1.4-2.5,3.5-1.4c0.4,0.2,0.7,0.4,1.1,0.6&#10;&#9;&#9;c5,2.6,9.9,5.2,14.9,7.8C893,349.6,893.5,349.8,894,350.1z" transform="matrix(1, 0, 0, 1, 1.4210854715202004e-14, 7.105427357601002e-15)"/><path fill="#151D38" d="M803.4,220.7c-10.1,0-18.1-8-18.1-18.1c0-10.2,8.1-18.2,18.3-18.2c8.9,0,18.1,6.8,18.1,18.2&#10;&#9;&#9;C821.7,214,812.2,221,803.4,220.7z" transform="matrix(1, 0, 0, 1, 1.4210854715202004e-14, 7.105427357601002e-15)"/><path fill="#EBBE62" d="M803.5,217.7c8.4,0,15.3-6.8,15.3-15.2c0.1-8.3-6.8-15.3-15.2-15.3c-8.5,0-15.5,6.8-15.4,15.3&#10;&#9;&#9;C788.2,211,795,217.7,803.5,217.7z" transform="matrix(1, 0, 0, 1, 1.4210854715202004e-14, 7.105427357601002e-15)"/><path fill="#ACDCF6" d="M530.2,536.5c-5.5,0-10.2-1.5-14.4-4.6c-0.9-0.7-1.6-1-2.7-0.1c-8,6.2-19.8,6.4-27.9,0.1&#10;&#9;&#9;c-1-0.8-1.5-0.5-2.2,0.1c-4.4,3.4-9.4,5.1-15,4.8c-5.3-0.3-10-2.1-14-5.6c-0.3-0.3-0.6-0.5-0.9-0.8c-0.7-0.7-0.9-1.6-0.2-2.3&#10;&#9;&#9;c0.7-0.8,1.6-0.5,2.3,0.2c1.8,1.7,3.8,3.1,6.2,4c7.3,2.8,13.9,1.8,20-3c0.3-0.2,0.6-0.5,0.9-0.8c1.5-1.3,2-1.3,3.5,0&#10;&#9;&#9;c2.4,2.2,5.2,3.7,8.4,4.4c6.3,1.4,12,0.1,17.2-3.8c0.3-0.2,0.6-0.5,0.9-0.8c1.8-1.5,2-1.5,3.9,0c4.3,3.6,9.2,5.4,14.8,5&#10;&#9;&#9;c4.1-0.3,7.8-1.7,10.9-4.4c0.5-0.4,0.9-0.9,1.5-1.2c0.7-0.4,1.4-0.5,2,0.1c0.6,0.6,0.6,1.3,0.1,2c-0.3,0.4-0.8,0.8-1.2,1.2&#10;&#9;&#9;C540.2,534.7,535.3,536.4,530.2,536.5z" transform="matrix(1, 0, 0, 1, 1.4210854715202004e-14, 7.105427357601002e-15)"/><path fill="#7DA4EC" d="M835.9,577.3c-4.8-0.2-9.1-1.7-12.9-4.6c-1.2-0.9-1.9-0.7-3.1,0.1c-7.6,5.2-15.6,6-24,2&#10;&#9;&#9;c-1.1-0.5-2.3-1.2-3.2-2c-1-0.9-1.7-0.7-2.6,0.1c-4.3,3.4-9.3,5-14.7,4.7c-5.4-0.3-10.1-2.1-14.2-5.7c-0.4-0.3-0.7-0.6-1-1&#10;&#9;&#9;c-0.5-0.6-0.5-1.4,0-2c0.6-0.6,1.3-0.6,2-0.2c0.5,0.4,1,0.8,1.5,1.2c7.5,6.2,18.2,6.1,25.5-0.2c0.2-0.2,0.3-0.3,0.5-0.5&#10;&#9;&#9;c1.5-1.3,2-1.3,3.5,0c2.5,2.2,5.3,3.8,8.6,4.5c6.4,1.4,12.2,0,17.3-4.1c0.3-0.2,0.5-0.4,0.7-0.6c1.6-1.3,1.9-1.3,3.5,0&#10;&#9;&#9;c2.9,2.5,6.2,4.2,10,4.9c6.1,1.1,11.6-0.3,16.3-4.3c0.5-0.4,0.9-1,1.5-1.2c0.6-0.2,1.1-0.1,1.6,0.3c0.5,0.5,0.6,1.2,0.2,1.8&#10;&#9;&#9;c-0.3,0.5-0.7,0.9-1.1,1.2C847.3,575.8,841.9,577.5,835.9,577.3z" transform="matrix(1, 0, 0, 1, 1.4210854715202004e-14, 7.105427357601002e-15)"/><path fill="#ACDCF6" d="M892.7,531.2c-4.8,0-9.3-1.4-13.4-4.2c-1.9-1.3-1.9-1.3-3.8,0c-7.6,5-15.6,5.7-23.9,1.7&#10;&#9;&#9;c-1-0.5-1.9-1.1-2.9-1.7c-1.6-1.1-1.6-1.1-3.2,0.1c-8.7,6.4-20.7,5.9-28.6-1.2c-0.4-0.4-0.8-0.7-1.2-1.2c-0.4-0.6-0.4-1.2,0-1.8&#10;&#9;&#9;c0.5-0.6,1.2-0.7,1.9-0.3c0.5,0.3,1,0.8,1.5,1.2c7.7,6.4,18.2,6.3,25.7-0.2c2.2-1.9,2.2-1.9,4.4,0c7.3,6.2,17.9,6.2,25.4,0.1&#10;&#9;&#9;c0.3-0.3,0.6-0.5,0.9-0.8c1.5-1.2,1.9-1.2,3.3,0c2,1.7,4.1,3.1,6.5,4c7.4,2.6,14.1,1.6,20.2-3.6c0.3-0.3,0.6-0.6,0.9-0.8&#10;&#9;&#9;c0.7-0.4,1.4-0.4,2,0.2c0.6,0.6,0.5,1.4,0,1.9c-0.7,0.7-1.4,1.4-2.1,1.9C902.4,529.7,897.8,531.2,892.7,531.2z" transform="matrix(1, 0, 0, 1, 1.4210854715202004e-14, 7.105427357601002e-15)"/><path fill="#151D38" d="M413,345.4c0.1-0.3,0.2-0.8,0.4-1.3c4.5-13,18.5-20.1,31.7-16c2.5,0.8,2.5,0.8,3.2-1.9&#10;&#9;&#9;c3.3-13.5,16-21.7,29.6-19.3c0.6,0.1,1.3,0.3,1.9,0.5c0.8,0.3,1.1,0.9,0.9,1.7c-0.2,0.9-0.9,1.1-1.7,1c-0.9-0.1-1.9-0.4-2.8-0.5&#10;&#9;&#9;c-12-1.8-23.7,7-25.4,19.1c-0.1,0.9-0.2,1.8-0.3,2.6c-0.3,1.4-0.9,1.7-2.2,1.3c-0.4-0.1-0.7-0.3-1.1-0.5&#10;&#9;&#9;c-12.4-5.7-26.3,0.1-31,12.9c-0.2,0.4-0.3,0.9-0.5,1.4c-0.3,0.8-0.9,1.4-1.8,1.1C413.1,347.2,412.9,346.5,413,345.4z" transform="matrix(1, 0, 0, 1, 1.4210854715202004e-14, 7.105427357601002e-15)"/><path fill="#ACDCF6" d="M962.4,595.8c-5.1-0.2-9.6-1.6-13.5-4.7c-1.5-1.2-1.5-1.2-2.9-0.1c-8.7,6.8-20.6,6.3-28.8-1.1&#10;&#9;&#9;c-0.1-0.1-0.1-0.1-0.2-0.2c-1.2-1.1-1.4-2.1-0.7-2.9c0.7-0.7,1.4-0.6,2.7,0.5c3.2,2.8,6.8,4.7,11.1,5.2c5.7,0.7,10.7-1,15-4.8&#10;&#9;&#9;c2.3-2.1,2.5-2.1,4.7-0.1c7.1,6.6,18,6.7,25.5,0.1c0.4-0.4,0.8-0.8,1.2-1.1c0.6-0.5,1.3-0.6,2,0c0.7,0.7,0.6,1.4,0.1,2.1&#10;&#9;&#9;c-0.3,0.4-0.6,0.7-1,1C973.6,593.5,967.6,595.8,962.4,595.8z" transform="matrix(1, 0, 0, 1, 1.4210854715202004e-14, 7.105427357601002e-15)"/><path fill="#7DA4EC" d="M729.4,666.1c-5.1-0.2-9.6-1.6-13.5-4.7c-1.5-1.2-1.5-1.2-2.9-0.1c-8.7,6.8-20.6,6.3-28.8-1.1&#10;&#9;&#9;c-0.1-0.1-0.1-0.1-0.2-0.2c-1.2-1.1-1.4-2.1-0.7-2.9c0.7-0.7,1.4-0.6,2.7,0.5c3.2,2.8,6.8,4.7,11.1,5.2c5.7,0.7,10.7-1,15-4.8&#10;&#9;&#9;c2.3-2.1,2.5-2.1,4.7-0.1c7.1,6.6,18,6.7,25.5,0.1c0.4-0.4,0.8-0.8,1.2-1.1c0.6-0.5,1.3-0.6,2,0c0.7,0.7,0.6,1.4,0.1,2.1&#10;&#9;&#9;c-0.3,0.4-0.6,0.7-1,1C740.6,663.9,734.6,666.2,729.4,666.1z" transform="matrix(1, 0, 0, 1, 1.4210854715202004e-14, 7.105427357601002e-15)"/><path fill="#7DA4EC" d="M821.2,595.8c-4.8-0.2-9.4-1.6-13.3-4.8c-1.5-1.2-1.3-1.3-2.9,0c-8.6,6.8-20.8,6.3-28.8-1.2&#10;&#9;&#9;c-0.2-0.2-0.5-0.4-0.7-0.7c-0.7-0.7-0.9-1.5-0.1-2.3c0.7-0.7,1.5-0.5,2.1,0.1c0.3,0.3,0.6,0.5,0.9,0.8c7.1,6.3,18.3,7.1,26.1-0.4&#10;&#9;&#9;c1.7-1.7,2.2-1.6,4,0c7.4,6.9,18.1,7.1,25.9,0.3c0.5-0.4,0.9-0.9,1.5-1.2c0.6-0.4,1.2-0.3,1.7,0.2c0.5,0.5,0.6,1.2,0.2,1.7&#10;&#9;&#9;c-0.4,0.5-0.8,1-1.3,1.4C832.2,593.7,827.1,595.6,821.2,595.8z" transform="matrix(1, 0, 0, 1, 1.4210854715202004e-14, 7.105427357601002e-15)"/><path fill="#7DA4EC" d="M514,638.6c-4.8-0.2-9.4-1.6-13.3-4.8c-1.5-1.2-1.3-1.3-2.9,0c-8.6,6.8-20.8,6.3-28.8-1.2&#10;&#9;&#9;c-0.2-0.2-0.5-0.4-0.7-0.7c-0.7-0.7-0.9-1.5-0.1-2.3c0.7-0.7,1.5-0.5,2.1,0.1c0.3,0.3,0.6,0.5,0.9,0.8c7.1,6.3,18.3,7.1,26.1-0.4&#10;&#9;&#9;c1.7-1.7,2.2-1.6,4,0c7.4,6.9,18.1,7.1,25.9,0.3c0.5-0.4,0.9-0.9,1.5-1.2c0.6-0.4,1.2-0.3,1.7,0.2c0.5,0.5,0.6,1.2,0.2,1.7&#10;&#9;&#9;c-0.4,0.5-0.8,1-1.3,1.4C525,636.5,519.9,638.4,514,638.6z" transform="matrix(1, 0, 0, 1, 1.4210854715202004e-14, 7.105427357601002e-15)"/><path fill="#ACDCF6" d="M438.6,592.5c-5.1-0.7-9.4-2.6-13-6.1c-1.4-1.3-1.4-1.3-3.1-0.3c-9.2,5.8-21.2,4-28.3-4.1&#10;&#9;&#9;c-0.3-0.4-0.6-0.7-0.9-1.1c-0.4-0.7-0.4-1.4,0.2-1.9c0.6-0.6,1.3-0.5,2,0c0.5,0.4,0.9,0.9,1.3,1.4c7,7.3,17.6,8.2,25.6,2.1&#10;&#9;&#9;c1.9-1.5,2.4-1.4,4,0.3c6.9,7.7,17.1,9,25.7,3.1c0.5-0.4,1-0.8,1.6-1.1c0.6-0.3,1.2-0.3,1.7,0.3c0.5,0.5,0.5,1.2,0.2,1.8&#10;&#9;&#9;c-0.2,0.4-0.6,0.7-1,1C450.3,591.2,443.8,593.1,438.6,592.5z" transform="matrix(1, 0, 0, 1, 1.4210854715202004e-14, 7.105427357601002e-15)"/><path fill="#151D38" d="M372.1,389.1c2.3,0,4.3,0.3,6.2,0.9c1.9,0.6,1.9,1,2.5-1.4c1-4.1,3-7.6,6.1-10.4c5.2-4.7,11.3-6.4,18.2-5.1&#10;&#9;&#9;c0.5,0.1,0.9,0.2,1.4,0.4c0.7,0.3,0.9,0.8,0.8,1.5c-0.1,0.8-0.6,1.1-1.3,1.1c-0.6,0-1.3-0.1-1.9-0.2c-10.3-1.7-19.8,5.5-20.8,15.9&#10;&#9;&#9;c0,0.5,0,1-0.2,1.4c-0.3,0.9-0.9,1.3-1.8,1.1c-0.5-0.1-1-0.4-1.5-0.7c-9.4-4.2-20.2,0.2-23.9,9.8c-0.2,0.6-0.4,1.2-0.7,1.8&#10;&#9;&#9;c-0.3,0.8-1,1.1-1.8,0.8c-0.7-0.2-1-0.8-0.9-1.5c0.1-0.7,0.3-1.4,0.5-2.1C355.9,394.4,363.7,389.1,372.1,389.1z" transform="matrix(1, 0, 0, 1, 1.4210854715202004e-14, 7.105427357601002e-15)"/><path fill="#151D38" d="M492.8,353.4c1.7-0.1,3.5,0.2,5.3,0.7c1.6,0.5,1.7,0.4,2.1-1.1c0.5-1.8,1.1-3.5,2-5.1&#10;&#9;&#9;c4.1-7.1,12.2-10.8,20.2-9.3c1.8,0.3,2.4,0.9,2.3,1.9c-0.1,1-0.9,1.3-2.7,1c-10.2-1.9-18.7,5.5-19.3,14.5c-0.1,2.1-1.4,2.7-3.4,1.8&#10;&#9;&#9;c-6.4-2.9-12.3-1.8-17.6,2.7c-2.1,1.8-3.5,4.1-4.4,6.7c-0.7,1.8-1.3,2.3-2.2,1.9c-0.9-0.3-1.1-1.2-0.5-2.9&#10;&#9;&#9;C477.5,357.6,485.7,353.1,492.8,353.4z" transform="matrix(1, 0, 0, 1, 1.4210854715202004e-14, 7.105427357601002e-15)"/><path fill="#151D38" d="M805,259.8c0,5.5,0,11,0,16.6c0,0.6,0,1.3-0.1,1.9c-0.1,0.8-0.7,1.3-1.5,1.2c-0.8,0-1.1-0.5-1.2-1.2&#10;&#9;&#9;c-0.1-0.5-0.1-1-0.1-1.4c0-11.4,0-22.9,0-34.3c0-0.4,0-0.8,0-1.2c0.1-0.8,0.4-1.4,1.3-1.5c0.9,0,1.5,0.6,1.6,1.5&#10;&#9;&#9;c0.1,0.6,0,1.3,0,1.9C805,248.8,805,254.3,805,259.8z" transform="matrix(1, 0, 0, 1, 1.4210854715202004e-14, 7.105427357601002e-15)"/><path fill="#151D38" d="M860.8,201.1c5.5,0,11,0,16.6,0c0.6,0,1.3,0,1.9,0.1c0.7,0.1,1.2,0.4,1.2,1.2c0,0.7-0.3,1.3-1,1.4&#10;&#9;&#9;c-0.5,0.1-1.1,0.2-1.7,0.2c-11.4,0-22.9,0-34.3,0c-0.6,0-1.1,0-1.6-0.2c-0.7-0.2-1.1-0.7-1-1.4c0.1-0.7,0.5-1.2,1.2-1.2&#10;&#9;&#9;c0.6,0,1.3,0,1.9,0C849.6,201.1,855.2,201.1,860.8,201.1z" transform="matrix(1, 0, 0, 1, 1.4210854715202004e-14, 7.105427357601002e-15)"/><path fill="#151D38" d="M805,145.4c0,5.5,0,11,0,16.5c0,0.6,0,1.3-0.1,1.9c-0.1,0.8-0.6,1.3-1.4,1.3c-0.9,0-1.3-0.5-1.4-1.3&#10;&#9;&#9;c-0.1-0.6-0.1-1.1-0.1-1.7c0-11.2,0-22.5,0-33.7c0-0.6,0-1.1,0.1-1.7c0.1-0.7,0.5-1.2,1.2-1.2c0.8-0.1,1.4,0.4,1.5,1.2&#10;&#9;&#9;c0.1,0.6,0.1,1.3,0.1,1.9C805,134.2,805,139.8,805,145.4z" transform="matrix(1, 0, 0, 1, 1.4210854715202004e-14, 7.105427357601002e-15)"/><path fill="#151D38" d="M746.5,201.1c5.4,0,10.9,0,16.3,0c0.6,0,1.1,0,1.7,0c0.9,0,1.6,0.3,1.6,1.4c0,1-0.7,1.4-1.6,1.5&#10;&#9;&#9;c-0.5,0.1-1.1,0-1.7,0c-11,0-22.1,0-33.1,0c-0.7,0-1.5,0-2.1-0.1c-0.8-0.2-1.2-0.7-1.1-1.6c0.1-0.7,0.6-1.1,1.3-1.2&#10;&#9;&#9;c0.6-0.1,1.3,0,1.9,0C735.3,201.1,740.9,201.1,746.5,201.1z" transform="matrix(1, 0, 0, 1, 1.4210854715202004e-14, 7.105427357601002e-15)"/><path fill="#151D38" d="M377.3,326.1c2.6,1.3,3.4-0.6,4.6-2.8c2.1-4,6.9-6.1,11.4-5.3c0.5,0.1,0.9,0.2,1.4,0.4&#10;&#9;&#9;c0.7,0.3,0.8,1,0.6,1.6c-0.2,0.6-0.6,0.9-1.2,1c-0.5,0-0.9-0.1-1.4-0.2c-4.6-0.5-8.6,2.4-9.4,6.9c-0.1,0.4-0.1,0.8-0.1,1.2&#10;&#9;&#9;c-0.3,1-0.9,1.5-2,1.2c-0.5-0.1-0.9-0.4-1.3-0.5c-4.5-1.7-9,1-10.4,4.4c-0.2,0.4-0.3,0.7-0.5,1.1c-0.3,0.9-1,1.3-1.9,1&#10;&#9;&#9;c-1-0.4-1.1-1.2-0.8-2.1c0.6-1.8,1.5-3.3,2.9-4.6C371.1,327.4,374.1,326.2,377.3,326.1z" transform="matrix(1, 0, 0, 1, 1.4210854715202004e-14, 7.105427357601002e-15)"/><path fill="#151D38" d="M438.4,387.4c-4.7-0.4-8.2,2.3-9.2,6.8c-0.1,0.4-0.1,0.8-0.2,1.2c-0.3,1.3-0.8,1.6-2.1,1.3&#10;&#9;&#9;c-0.5-0.1-0.9-0.4-1.3-0.5c-4-1.4-8.2,0.3-10.1,4.2c-0.3,0.6-0.5,1.2-0.8,1.7c-0.3,0.6-0.9,0.9-1.6,0.7c-0.8-0.3-1.1-0.9-1-1.7&#10;&#9;&#9;c0.1-0.4,0.2-0.8,0.3-1.1c1.5-4.1,5.5-7,9.9-7.1c0.9,0,1.8-0.1,2.6,0.1c1.1,0.3,1.5-0.2,1.9-1.2c1.7-4.5,5-6.8,9.8-7.4&#10;&#9;&#9;c1.1-0.1,2.2,0.1,3.3,0.3c0.9,0.2,1.5,0.7,1.3,1.7c-0.2,1-0.9,1.2-1.8,1.1C439,387.5,438.6,387.4,438.4,387.4z" transform="matrix(1, 0, 0, 1, 1.4210854715202004e-14, 7.105427357601002e-15)"/><path fill="#151D38" d="M853.5,153.8c0,0.8-0.5,1.3-1,1.8c-1.7,1.7-3.4,3.4-5.1,5.1c-4,4-8,8-12,12c-1.3,1.3-2.1,1.5-2.8,0.8&#10;&#9;&#9;c-0.7-0.7-0.6-1.6,0.7-2.8c5.7-5.7,11.4-11.4,17.1-17.1c0.4-0.4,0.8-0.8,1.3-1C852.5,152.2,853.5,152.9,853.5,153.8z" transform="matrix(1, 0, 0, 1, 1.4210854715202004e-14, 7.105427357601002e-15)"/><path fill="#151D38" d="M754.9,152.5c0.7,0,1.2,0.5,1.7,1c1.5,1.5,3.1,3.1,4.6,4.6c4.1,4.1,8.1,8.1,12.2,12.2&#10;&#9;&#9;c0.5,0.5,1,0.9,1.3,1.4c0.4,0.7,0.4,1.4-0.3,1.9c-0.6,0.5-1.2,0.4-1.8,0c-0.4-0.3-0.7-0.6-1.1-1c-5.6-5.6-11.2-11.2-16.8-16.8&#10;&#9;&#9;c-0.4-0.4-0.8-0.8-1.1-1.3C753.1,153.7,753.7,152.5,754.9,152.5z" transform="matrix(1, 0, 0, 1, 1.4210854715202004e-14, 7.105427357601002e-15)"/><path fill="#151D38" d="M853.5,251.2c0,1-1.1,1.7-2.1,1.2c-0.4-0.2-0.8-0.6-1.1-0.9c-5.7-5.7-11.4-11.4-17.1-17.1&#10;&#9;&#9;c-0.1-0.1-0.1-0.1-0.2-0.2c-1.1-1.2-1.3-2-0.5-2.7c0.7-0.7,1.5-0.5,2.7,0.6c5.8,5.8,11.5,11.5,17.3,17.3&#10;&#9;&#9;C853,249.9,853.5,250.4,853.5,251.2z" transform="matrix(1, 0, 0, 1, 1.4210854715202004e-14, 7.105427357601002e-15)"/><path fill="#151D38" d="M754.9,252.6c-1,0-1.8-1.1-1.3-2c0.2-0.5,0.6-0.9,1-1.3c5.6-5.7,11.3-11.3,17-17c1.3-1.3,2.1-1.5,2.8-0.9&#10;&#9;&#9;c0.8,0.7,0.6,1.6-0.8,3c-5.6,5.7-11.3,11.3-17,17C756.2,251.9,755.7,252.5,754.9,252.6z" transform="matrix(1, 0, 0, 1, 1.4210854715202004e-14, 7.105427357601002e-15)"/><path fill="#EBBE62" d="M709.1,799.4c3,0.1,5.4,2.5,5.3,5.6c-0.1,3-2.6,5.4-5.6,5.3c-3-0.1-5.4-2.6-5.3-5.6&#10;&#9;&#9;C703.6,801.7,706.1,799.3,709.1,799.4z M711.5,804.9c0-1.3-1.3-2.6-2.6-2.6c-1.3,0-2.4,1.2-2.5,2.5c0,1.3,1,2.5,2.4,2.6&#10;&#9;&#9;C710.2,807.4,711.5,806.3,711.5,804.9z" transform="matrix(1, 0, 0, 1, 1.4210854715202004e-14, 7.105427357601002e-15)"/><path fill="#EBBE62" d="M788.3,754.3c3,0.1,5.4,2.5,5.3,5.6c-0.1,3-2.6,5.4-5.6,5.3c-3-0.1-5.4-2.6-5.3-5.6&#10;&#9;&#9;C782.8,756.6,785.3,754.3,788.3,754.3z M790.8,759.8c0-1.3-1.3-2.6-2.6-2.6c-1.3,0-2.4,1.2-2.5,2.5c0,1.3,1,2.5,2.4,2.6&#10;&#9;&#9;C789.4,762.4,790.7,761.2,790.8,759.8z" transform="matrix(1, 0, 0, 1, 1.4210854715202004e-14, 7.105427357601002e-15)"/><path fill="#EBBE62" d="M1067.3,805.2c-3.1,0-5.4-2.3-5.4-5.5c0-3.1,2.4-5.5,5.4-5.5c3,0,5.5,2.5,5.5,5.5&#10;&#9;&#9;C1072.8,802.7,1070.3,805.1,1067.3,805.2z M1069.8,799.7c0-1.3-1-2.5-2.3-2.6c-1.4-0.1-2.6,1.1-2.7,2.5c0,1.4,1.2,2.6,2.6,2.6&#10;&#9;&#9;C1068.6,802.2,1069.7,801.1,1069.8,799.7z" transform="matrix(1, 0, 0, 1, 1.4210854715202004e-14, 7.105427357601002e-15)"/><path fill="#EBBE62" d="M884.3,817.3c0.1-3,2.3-5.3,5.3-5.3c3.1,0,5.4,2.3,5.4,5.5c0,3.2-2.3,5.4-5.5,5.4&#10;&#9;&#9;C886.4,822.8,884.2,820.5,884.3,817.3z M892.1,817.5c0-1.4-0.9-2.5-2.3-2.6c-1.4-0.1-2.6,1-2.7,2.4c0,1.3,1,2.5,2.3,2.6&#10;&#9;&#9;C890.9,820.1,892.1,819,892.1,817.5z" transform="matrix(1, 0, 0, 1, 1.4210854715202004e-14, 7.105427357601002e-15)"/><path fill="#EBBE62" d="M980.8,818.3c0,3-2.4,5.5-5.5,5.5c-3,0-5.5-2.4-5.5-5.5c0-3,2.4-5.5,5.5-5.5&#10;&#9;&#9;C978.3,812.9,980.8,815.3,980.8,818.3z M975.3,815.8c-1.4,0-2.5,1.4-2.4,2.8c0.1,1.3,1.3,2.4,2.6,2.4c1.4-0.1,2.6-1.4,2.5-2.7&#10;&#9;&#9;C977.8,816.9,976.5,815.7,975.3,815.8z" transform="matrix(1, 0, 0, 1, 1.4210854715202004e-14, 7.105427357601002e-15)"/><path fill="#EBBE62" d="M927.3,797.9c-2,0.1-3.6-1.6-3.6-3.6c0-1.9,1.5-3.4,3.5-3.5c2,0,3.5,1.4,3.7,3.3&#10;&#9;&#9;C930.9,796.1,929.3,797.8,927.3,797.9z" transform="matrix(1, 0, 0, 1, 1.4210854715202004e-14, 7.105427357601002e-15)"/><path fill="#EBBE62" d="M805.1,862.4c0,2-1.5,3.4-3.5,3.4c-2,0-3.5-1.5-3.6-3.4c0-2,1.7-3.6,3.7-3.6&#10;&#9;&#9;C803.7,858.9,805.1,860.4,805.1,862.4z" transform="matrix(1, 0, 0, 1, 1.4210854715202004e-14, 7.105427357601002e-15)"/><path fill="#EBBE62" d="M916.6,859.5c-1.5,0-2.5-1.1-2.5-2.6c0-1.5,1.2-2.5,2.6-2.5c1.4,0,2.5,1.2,2.5,2.6&#10;&#9;&#9;C919.2,858.5,918,859.6,916.6,859.5z" transform="matrix(1, 0, 0, 1, 1.4210854715202004e-14, 7.105427357601002e-15)"/><path fill="#EBBE62" d="M1027.1,837.2c1.5,0,2.6,1.1,2.6,2.5c0,1.4-1.1,2.5-2.6,2.5c-1.5,0-2.6-1.1-2.6-2.5&#10;&#9;&#9;C1024.5,838.2,1025.6,837.1,1027.1,837.2z" transform="matrix(1, 0, 0, 1, 1.4210854715202004e-14, 7.105427357601002e-15)"/><path fill="#EBBE62" d="M1019.3,802c0,1.4-1.2,2.6-2.6,2.5c-1.4,0-2.5-1.1-2.4-2.7c0-1.5,1-2.5,2.6-2.5&#10;&#9;&#9;C1018.3,799.5,1019.3,800.6,1019.3,802z" transform="matrix(1, 0, 0, 1, 1.4210854715202004e-14, 7.105427357601002e-15)"/><path fill="#EBBE62" d="M439,770.7c-3.1,0-5.4-2.3-5.4-5.5c0-3.1,2.4-5.5,5.4-5.5c3,0,5.5,2.5,5.5,5.5&#10;&#9;&#9;C444.5,768.2,442,770.7,439,770.7z M441.5,765.3c0-1.3-1-2.5-2.3-2.6c-1.4-0.1-2.6,1.1-2.7,2.5c0,1.4,1.2,2.6,2.6,2.6&#10;&#9;&#9;C440.3,767.8,441.4,766.6,441.5,765.3z" transform="matrix(1, 0, 0, 1, 1.4210854715202004e-14, 7.105427357601002e-15)"/><path fill="#EBBE62" d="M352.5,783.9c0,3-2.4,5.5-5.5,5.5c-3,0-5.5-2.4-5.5-5.5c0-3,2.4-5.5,5.5-5.5&#10;&#9;&#9;C350,778.4,352.5,780.9,352.5,783.9z M347,781.3c-1.4,0-2.5,1.4-2.4,2.8c0.1,1.3,1.3,2.4,2.6,2.4c1.4-0.1,2.6-1.4,2.5-2.7&#10;&#9;&#9;C349.5,782.5,348.2,781.3,347,781.3z" transform="matrix(1, 0, 0, 1, 1.4210854715202004e-14, 7.105427357601002e-15)"/><path fill="#EBBE62" d="M398.8,802.7c1.5,0,2.6,1.1,2.6,2.5c0,1.4-1.1,2.5-2.6,2.5c-1.5,0-2.6-1.1-2.6-2.5&#10;&#9;&#9;C396.2,803.8,397.3,802.7,398.8,802.7z" transform="matrix(1, 0, 0, 1, 1.4210854715202004e-14, 7.105427357601002e-15)"/><path fill="#EBBE62" d="M391,767.6c0,1.4-1.2,2.6-2.6,2.5c-1.4,0-2.5-1.1-2.4-2.7c0-1.5,1-2.5,2.6-2.5C390,765,391,766.1,391,767.6&#10;&#9;&#9;z" transform="matrix(1, 0, 0, 1, 1.4210854715202004e-14, 7.105427357601002e-15)"/><path fill="#EBBE62" d="M837.6,804.8c-1.4,0-2.6-1.1-2.6-2.5c0-1.4,1.1-2.5,2.6-2.5c1.5,0,2.6,1,2.6,2.5&#10;&#9;&#9;C840.1,803.7,839,804.8,837.6,804.8z" transform="matrix(1, 0, 0, 1, 1.4210854715202004e-14, 7.105427357601002e-15)"/><path fill="#151D38" d="M656,364c-9.8-0.5-17.2-5.2-22.4-13.8c-1.1-1.9-0.5-2.8,1.7-2.9c10.2-0.5,20.4-1,30.7-1.5&#10;&#9;&#9;c3.8-0.2,7.5-0.4,11.3-0.6c0.3,0,0.6-0.1,1,0c1.9,0.1,2.4,0.9,1.7,2.7c-2.2,5-5.5,9.2-10.1,12.2C665.7,362.6,661.2,363.8,656,364z" transform="matrix(1, 0, 0, 1, 1.4210854715202004e-14, 7.105427357601002e-15)"/><path fill="#FFFFFF" d="M658.5,349.1c-5.7,0.3-10,0.4-14.3,0.6c-1.9,0.1-3.8,0.3-5.7,0.4c-0.8,0-1,0.3-0.6,1&#10;&#9;&#9;c0.1,0.2,0.3,0.4,0.4,0.6c9.5,12.3,27,12.3,36-0.5c0.5-0.7,0.9-1.3,1.3-2c0.4-0.6,0.3-1.1-0.6-1c-0.8,0-1.6,0-2.4,0.1&#10;&#9;&#9;C667.5,348.6,662.3,348.9,658.5,349.1z" transform="matrix(1, 0, 0, 1, 1.4210854715202004e-14, 7.105427357601002e-15)"/><path fill="#151D38" d="M614.8,348.2c5.2,0,9.4,4.3,9.3,9.5c-0.1,5.1-4.3,9.2-9.4,9.2c-5.2-0.1-9.3-4.3-9.3-9.6&#10;&#9;&#9;C605.5,352.2,609.6,348.1,614.8,348.2z" transform="matrix(1, 0, 0, 1, 1.4210854715202004e-14, 7.105427357601002e-15)"/><path fill="#E5384A" d="M621,357.5c0-3.5-3-6.5-6.4-6.4c-3.3,0.1-6.2,3-6.3,6.3c0,3.4,3.1,6.5,6.4,6.4&#10;&#9;&#9;C618.2,363.8,621,360.9,621,357.5z" transform="matrix(1, 0, 0, 1, 1.4210854715202004e-14, 7.105427357601002e-15)"/><path fill="#151D38" d="M696.8,362.7c-5.2,0-9.3-4-9.4-9.1c-0.1-5.3,3.9-9.5,9.2-9.5c5.2,0,9.5,4.2,9.5,9.3&#10;&#9;&#9;C706.1,358.6,702,362.7,696.8,362.7z" transform="matrix(1, 0, 0, 1, 1.4210854715202004e-14, 7.105427357601002e-15)"/><path fill="#E5384A" d="M696.9,347.1c-3.5-0.1-6.5,2.8-6.5,6.3c0,3.4,2.8,6.3,6.2,6.3c3.5,0.1,6.5-2.8,6.5-6.3&#10;&#9;&#9;C703.1,350,700.3,347.2,696.9,347.1z" transform="matrix(1, 0, 0, 1, 1.4210854715202004e-14, 7.105427357601002e-15)"/><path fill="#151D38" d="M588,372.1c-4.5,0-8-3.1-8.7-7.6c-0.6-4.1,2.1-8.1,6.3-9.3c0.2-0.1,0.5-0.1,0.7-0.2c1.5-0.3,2.4,0,2.6,1&#10;&#9;&#9;c0.2,0.9-0.3,1.3-2,1.8c-2.9,0.8-4.7,2.9-4.8,5.5c-0.1,2.6,1.7,4.9,4.3,5.7c0.9,0.3,1.9,0.3,2.8,0.1c0.5-0.1,1.1-0.3,1.6-0.4&#10;&#9;&#9;c0.7-0.1,1.3,0.1,1.5,0.9c0.2,0.7,0,1.3-0.7,1.6C590.5,371.9,589.3,372.2,588,372.1z" transform="matrix(1, 0, 0, 1, 1.4210854715202004e-14, 7.105427357601002e-15)"/><path fill="#151D38" d="M689.9,339.6c0,2.7-2.1,4.8-4.8,4.9c-2.8,0.1-5-2.1-5-4.9c0-2.8,2-4.8,4.8-4.9&#10;&#9;&#9;C687.7,334.7,689.9,336.8,689.9,339.6z" transform="matrix(1, 0, 0, 1, 1.4210854715202004e-14, 7.105427357601002e-15)"/><path fill="#151D38" d="M632.5,342.5c0,2.8-2,4.9-4.7,5c-2.8,0.1-5.1-2.1-5.1-4.9c0-2.7,2-4.9,4.8-4.9&#10;&#9;&#9;C630.4,337.6,632.5,339.6,632.5,342.5z" transform="matrix(1, 0, 0, 1, 1.4210854715202004e-14, 7.105427357601002e-15)"/><path fill="#151D38" d="M658.1,339.2c0.1-0.5-0.2-0.6-0.5-0.8c-0.6-0.3-1.3-0.6-1.9-0.9c-0.8-0.4-1.3-1-0.9-1.9&#10;&#9;&#9;c0.4-0.9,1.2-1.2,2-0.9c1.9,0.8,3.8,1.6,5.6,2.6c0.9,0.5,1.1,1.6,0.3,2.2c-1.6,1.4-3.4,2.7-5.1,3.9c-0.7,0.5-1.4,0.3-1.9-0.4&#10;&#9;&#9;c-0.5-0.7-0.4-1.4,0.2-2c0.5-0.5,1.1-0.9,1.7-1.4C657.7,339.6,657.9,339.4,658.1,339.2z" transform="matrix(1, 0, 0, 1, 1.4210854715202004e-14, 7.105427357601002e-15)"/><path fill="#151D38" d="M616.1,339.9c0-4,3.5-8,7.3-8.2c0.7,0,1.5,0,1.8,0.8c0.2,0.6,0.1,1.1-0.2,1.6c-0.3,0.4-0.8,0.5-1.3,0.6&#10;&#9;&#9;c-2.8,0.7-4.3,2.5-4.5,5.4c-0.1,1.5-0.7,2.3-1.6,2.2C616.7,342.2,616.1,341.3,616.1,339.9z" transform="matrix(1, 0, 0, 1, 1.4210854715202004e-14, 7.105427357601002e-15)"/><path fill="#151D38" d="M696.2,336.4c0.1,0.9-0.1,1.8-1.2,1.9c-1.2,0.1-1.6-0.7-1.7-1.8c-0.4-3-2.1-4.7-5.1-5.1&#10;&#9;&#9;c-1-0.1-1.7-0.6-1.6-1.6c0.1-1.1,0.9-1.3,1.9-1.3C692.3,328.4,696.2,332.3,696.2,336.4z" transform="matrix(1, 0, 0, 1, 1.4210854715202004e-14, 7.105427357601002e-15)"/>
</svg>